G04 #@! TF.GenerationSoftware,KiCad,Pcbnew,(5.1.5)-3*
G04 #@! TF.CreationDate,2021-02-11T22:25:29+01:00*
G04 #@! TF.ProjectId,20210211_eduino,32303231-3032-4313-915f-656475696e6f,v1.0*
G04 #@! TF.SameCoordinates,Original*
G04 #@! TF.FileFunction,Paste,Top*
G04 #@! TF.FilePolarity,Positive*
%FSLAX46Y46*%
G04 Gerber Fmt 4.6, Leading zero omitted, Abs format (unit mm)*
G04 Created by KiCad (PCBNEW (5.1.5)-3) date 2021-02-11 22:25:29*
%MOMM*%
%LPD*%
G04 APERTURE LIST*
%ADD10C,0.100000*%
%ADD11R,1.060000X0.650000*%
%ADD12R,1.900000X1.900000*%
%ADD13R,0.400000X1.350000*%
%ADD14R,1.550000X1.300000*%
G04 APERTURE END LIST*
D10*
G36*
X153990191Y-98713053D02*
G01*
X154011426Y-98716203D01*
X154032250Y-98721419D01*
X154052462Y-98728651D01*
X154071868Y-98737830D01*
X154090281Y-98748866D01*
X154107524Y-98761654D01*
X154123430Y-98776070D01*
X154137846Y-98791976D01*
X154150634Y-98809219D01*
X154161670Y-98827632D01*
X154170849Y-98847038D01*
X154178081Y-98867250D01*
X154183297Y-98888074D01*
X154186447Y-98909309D01*
X154187500Y-98930750D01*
X154187500Y-99443250D01*
X154186447Y-99464691D01*
X154183297Y-99485926D01*
X154178081Y-99506750D01*
X154170849Y-99526962D01*
X154161670Y-99546368D01*
X154150634Y-99564781D01*
X154137846Y-99582024D01*
X154123430Y-99597930D01*
X154107524Y-99612346D01*
X154090281Y-99625134D01*
X154071868Y-99636170D01*
X154052462Y-99645349D01*
X154032250Y-99652581D01*
X154011426Y-99657797D01*
X153990191Y-99660947D01*
X153968750Y-99662000D01*
X153531250Y-99662000D01*
X153509809Y-99660947D01*
X153488574Y-99657797D01*
X153467750Y-99652581D01*
X153447538Y-99645349D01*
X153428132Y-99636170D01*
X153409719Y-99625134D01*
X153392476Y-99612346D01*
X153376570Y-99597930D01*
X153362154Y-99582024D01*
X153349366Y-99564781D01*
X153338330Y-99546368D01*
X153329151Y-99526962D01*
X153321919Y-99506750D01*
X153316703Y-99485926D01*
X153313553Y-99464691D01*
X153312500Y-99443250D01*
X153312500Y-98930750D01*
X153313553Y-98909309D01*
X153316703Y-98888074D01*
X153321919Y-98867250D01*
X153329151Y-98847038D01*
X153338330Y-98827632D01*
X153349366Y-98809219D01*
X153362154Y-98791976D01*
X153376570Y-98776070D01*
X153392476Y-98761654D01*
X153409719Y-98748866D01*
X153428132Y-98737830D01*
X153447538Y-98728651D01*
X153467750Y-98721419D01*
X153488574Y-98716203D01*
X153509809Y-98713053D01*
X153531250Y-98712000D01*
X153968750Y-98712000D01*
X153990191Y-98713053D01*
G37*
G36*
X152415191Y-98713053D02*
G01*
X152436426Y-98716203D01*
X152457250Y-98721419D01*
X152477462Y-98728651D01*
X152496868Y-98737830D01*
X152515281Y-98748866D01*
X152532524Y-98761654D01*
X152548430Y-98776070D01*
X152562846Y-98791976D01*
X152575634Y-98809219D01*
X152586670Y-98827632D01*
X152595849Y-98847038D01*
X152603081Y-98867250D01*
X152608297Y-98888074D01*
X152611447Y-98909309D01*
X152612500Y-98930750D01*
X152612500Y-99443250D01*
X152611447Y-99464691D01*
X152608297Y-99485926D01*
X152603081Y-99506750D01*
X152595849Y-99526962D01*
X152586670Y-99546368D01*
X152575634Y-99564781D01*
X152562846Y-99582024D01*
X152548430Y-99597930D01*
X152532524Y-99612346D01*
X152515281Y-99625134D01*
X152496868Y-99636170D01*
X152477462Y-99645349D01*
X152457250Y-99652581D01*
X152436426Y-99657797D01*
X152415191Y-99660947D01*
X152393750Y-99662000D01*
X151956250Y-99662000D01*
X151934809Y-99660947D01*
X151913574Y-99657797D01*
X151892750Y-99652581D01*
X151872538Y-99645349D01*
X151853132Y-99636170D01*
X151834719Y-99625134D01*
X151817476Y-99612346D01*
X151801570Y-99597930D01*
X151787154Y-99582024D01*
X151774366Y-99564781D01*
X151763330Y-99546368D01*
X151754151Y-99526962D01*
X151746919Y-99506750D01*
X151741703Y-99485926D01*
X151738553Y-99464691D01*
X151737500Y-99443250D01*
X151737500Y-98930750D01*
X151738553Y-98909309D01*
X151741703Y-98888074D01*
X151746919Y-98867250D01*
X151754151Y-98847038D01*
X151763330Y-98827632D01*
X151774366Y-98809219D01*
X151787154Y-98791976D01*
X151801570Y-98776070D01*
X151817476Y-98761654D01*
X151834719Y-98748866D01*
X151853132Y-98737830D01*
X151872538Y-98728651D01*
X151892750Y-98721419D01*
X151913574Y-98716203D01*
X151934809Y-98713053D01*
X151956250Y-98712000D01*
X152393750Y-98712000D01*
X152415191Y-98713053D01*
G37*
D11*
X147800000Y-99550000D03*
X147800000Y-97650000D03*
X150000000Y-97650000D03*
X150000000Y-98600000D03*
X150000000Y-99550000D03*
D12*
X147400000Y-89475000D03*
X149800000Y-89475000D03*
X144650000Y-89475000D03*
X152550000Y-89475000D03*
D13*
X149900000Y-92150000D03*
X149250000Y-92150000D03*
X148600000Y-92150000D03*
X147950000Y-92150000D03*
X147300000Y-92150000D03*
D10*
G36*
X141003984Y-115950431D02*
G01*
X141852512Y-115101903D01*
X142842462Y-116091853D01*
X141993934Y-116940381D01*
X141003984Y-115950431D01*
G37*
G36*
X142559619Y-117506066D02*
G01*
X143408147Y-116657538D01*
X144398097Y-117647488D01*
X143549569Y-118496016D01*
X142559619Y-117506066D01*
G37*
G36*
X141357538Y-118708147D02*
G01*
X142206066Y-117859619D01*
X143196016Y-118849569D01*
X142347488Y-119698097D01*
X141357538Y-118708147D01*
G37*
G36*
X139801903Y-117152512D02*
G01*
X140650431Y-116303984D01*
X141640381Y-117293934D01*
X140791853Y-118142462D01*
X139801903Y-117152512D01*
G37*
G36*
X149466206Y-105498848D02*
G01*
X149077298Y-105109940D01*
X150137958Y-104049280D01*
X150526866Y-104438188D01*
X149466206Y-105498848D01*
G37*
G36*
X150031891Y-106064534D02*
G01*
X149642983Y-105675626D01*
X150703643Y-104614966D01*
X151092551Y-105003874D01*
X150031891Y-106064534D01*
G37*
G36*
X150597576Y-106630219D02*
G01*
X150208668Y-106241311D01*
X151269328Y-105180651D01*
X151658236Y-105569559D01*
X150597576Y-106630219D01*
G37*
G36*
X151163262Y-107195904D02*
G01*
X150774354Y-106806996D01*
X151835014Y-105746336D01*
X152223922Y-106135244D01*
X151163262Y-107195904D01*
G37*
G36*
X151728947Y-107761590D02*
G01*
X151340039Y-107372682D01*
X152400699Y-106312022D01*
X152789607Y-106700930D01*
X151728947Y-107761590D01*
G37*
G36*
X152294633Y-108327275D02*
G01*
X151905725Y-107938367D01*
X152966385Y-106877707D01*
X153355293Y-107266615D01*
X152294633Y-108327275D01*
G37*
G36*
X152860318Y-108892961D02*
G01*
X152471410Y-108504053D01*
X153532070Y-107443393D01*
X153920978Y-107832301D01*
X152860318Y-108892961D01*
G37*
G36*
X153426004Y-109458646D02*
G01*
X153037096Y-109069738D01*
X154097756Y-108009078D01*
X154486664Y-108397986D01*
X153426004Y-109458646D01*
G37*
G36*
X153991689Y-110024332D02*
G01*
X153602781Y-109635424D01*
X154663441Y-108574764D01*
X155052349Y-108963672D01*
X153991689Y-110024332D01*
G37*
G36*
X154557374Y-110590017D02*
G01*
X154168466Y-110201109D01*
X155229126Y-109140449D01*
X155618034Y-109529357D01*
X154557374Y-110590017D01*
G37*
G36*
X155123060Y-111155702D02*
G01*
X154734152Y-110766794D01*
X155794812Y-109706134D01*
X156183720Y-110095042D01*
X155123060Y-111155702D01*
G37*
G36*
X154734152Y-112499206D02*
G01*
X155123060Y-112110298D01*
X156183720Y-113170958D01*
X155794812Y-113559866D01*
X154734152Y-112499206D01*
G37*
G36*
X154168466Y-113064891D02*
G01*
X154557374Y-112675983D01*
X155618034Y-113736643D01*
X155229126Y-114125551D01*
X154168466Y-113064891D01*
G37*
G36*
X153602781Y-113630576D02*
G01*
X153991689Y-113241668D01*
X155052349Y-114302328D01*
X154663441Y-114691236D01*
X153602781Y-113630576D01*
G37*
G36*
X153037096Y-114196262D02*
G01*
X153426004Y-113807354D01*
X154486664Y-114868014D01*
X154097756Y-115256922D01*
X153037096Y-114196262D01*
G37*
G36*
X152471410Y-114761947D02*
G01*
X152860318Y-114373039D01*
X153920978Y-115433699D01*
X153532070Y-115822607D01*
X152471410Y-114761947D01*
G37*
G36*
X151905725Y-115327633D02*
G01*
X152294633Y-114938725D01*
X153355293Y-115999385D01*
X152966385Y-116388293D01*
X151905725Y-115327633D01*
G37*
G36*
X151340039Y-115893318D02*
G01*
X151728947Y-115504410D01*
X152789607Y-116565070D01*
X152400699Y-116953978D01*
X151340039Y-115893318D01*
G37*
G36*
X150774354Y-116459004D02*
G01*
X151163262Y-116070096D01*
X152223922Y-117130756D01*
X151835014Y-117519664D01*
X150774354Y-116459004D01*
G37*
G36*
X150208668Y-117024689D02*
G01*
X150597576Y-116635781D01*
X151658236Y-117696441D01*
X151269328Y-118085349D01*
X150208668Y-117024689D01*
G37*
G36*
X149642983Y-117590374D02*
G01*
X150031891Y-117201466D01*
X151092551Y-118262126D01*
X150703643Y-118651034D01*
X149642983Y-117590374D01*
G37*
G36*
X149077298Y-118156060D02*
G01*
X149466206Y-117767152D01*
X150526866Y-118827812D01*
X150137958Y-119216720D01*
X149077298Y-118156060D01*
G37*
G36*
X147062042Y-119216720D02*
G01*
X146673134Y-118827812D01*
X147733794Y-117767152D01*
X148122702Y-118156060D01*
X147062042Y-119216720D01*
G37*
G36*
X146496357Y-118651034D02*
G01*
X146107449Y-118262126D01*
X147168109Y-117201466D01*
X147557017Y-117590374D01*
X146496357Y-118651034D01*
G37*
G36*
X145930672Y-118085349D02*
G01*
X145541764Y-117696441D01*
X146602424Y-116635781D01*
X146991332Y-117024689D01*
X145930672Y-118085349D01*
G37*
G36*
X145364986Y-117519664D02*
G01*
X144976078Y-117130756D01*
X146036738Y-116070096D01*
X146425646Y-116459004D01*
X145364986Y-117519664D01*
G37*
G36*
X144799301Y-116953978D02*
G01*
X144410393Y-116565070D01*
X145471053Y-115504410D01*
X145859961Y-115893318D01*
X144799301Y-116953978D01*
G37*
G36*
X144233615Y-116388293D02*
G01*
X143844707Y-115999385D01*
X144905367Y-114938725D01*
X145294275Y-115327633D01*
X144233615Y-116388293D01*
G37*
G36*
X143667930Y-115822607D02*
G01*
X143279022Y-115433699D01*
X144339682Y-114373039D01*
X144728590Y-114761947D01*
X143667930Y-115822607D01*
G37*
G36*
X143102244Y-115256922D02*
G01*
X142713336Y-114868014D01*
X143773996Y-113807354D01*
X144162904Y-114196262D01*
X143102244Y-115256922D01*
G37*
G36*
X142536559Y-114691236D02*
G01*
X142147651Y-114302328D01*
X143208311Y-113241668D01*
X143597219Y-113630576D01*
X142536559Y-114691236D01*
G37*
G36*
X141970874Y-114125551D02*
G01*
X141581966Y-113736643D01*
X142642626Y-112675983D01*
X143031534Y-113064891D01*
X141970874Y-114125551D01*
G37*
G36*
X141405188Y-113559866D02*
G01*
X141016280Y-113170958D01*
X142076940Y-112110298D01*
X142465848Y-112499206D01*
X141405188Y-113559866D01*
G37*
G36*
X141016280Y-110095042D02*
G01*
X141405188Y-109706134D01*
X142465848Y-110766794D01*
X142076940Y-111155702D01*
X141016280Y-110095042D01*
G37*
G36*
X141581966Y-109529357D02*
G01*
X141970874Y-109140449D01*
X143031534Y-110201109D01*
X142642626Y-110590017D01*
X141581966Y-109529357D01*
G37*
G36*
X142147651Y-108963672D02*
G01*
X142536559Y-108574764D01*
X143597219Y-109635424D01*
X143208311Y-110024332D01*
X142147651Y-108963672D01*
G37*
G36*
X142713336Y-108397986D02*
G01*
X143102244Y-108009078D01*
X144162904Y-109069738D01*
X143773996Y-109458646D01*
X142713336Y-108397986D01*
G37*
G36*
X143279022Y-107832301D02*
G01*
X143667930Y-107443393D01*
X144728590Y-108504053D01*
X144339682Y-108892961D01*
X143279022Y-107832301D01*
G37*
G36*
X143844707Y-107266615D02*
G01*
X144233615Y-106877707D01*
X145294275Y-107938367D01*
X144905367Y-108327275D01*
X143844707Y-107266615D01*
G37*
G36*
X144410393Y-106700930D02*
G01*
X144799301Y-106312022D01*
X145859961Y-107372682D01*
X145471053Y-107761590D01*
X144410393Y-106700930D01*
G37*
G36*
X144976078Y-106135244D02*
G01*
X145364986Y-105746336D01*
X146425646Y-106806996D01*
X146036738Y-107195904D01*
X144976078Y-106135244D01*
G37*
G36*
X145541764Y-105569559D02*
G01*
X145930672Y-105180651D01*
X146991332Y-106241311D01*
X146602424Y-106630219D01*
X145541764Y-105569559D01*
G37*
G36*
X146107449Y-105003874D02*
G01*
X146496357Y-104614966D01*
X147557017Y-105675626D01*
X147168109Y-106064534D01*
X146107449Y-105003874D01*
G37*
G36*
X146673134Y-104438188D02*
G01*
X147062042Y-104049280D01*
X148122702Y-105109940D01*
X147733794Y-105498848D01*
X146673134Y-104438188D01*
G37*
G36*
X155163691Y-123280553D02*
G01*
X155184926Y-123283703D01*
X155205750Y-123288919D01*
X155225962Y-123296151D01*
X155245368Y-123305330D01*
X155263781Y-123316366D01*
X155281024Y-123329154D01*
X155296930Y-123343570D01*
X155311346Y-123359476D01*
X155324134Y-123376719D01*
X155335170Y-123395132D01*
X155344349Y-123414538D01*
X155351581Y-123434750D01*
X155356797Y-123455574D01*
X155359947Y-123476809D01*
X155361000Y-123498250D01*
X155361000Y-123935750D01*
X155359947Y-123957191D01*
X155356797Y-123978426D01*
X155351581Y-123999250D01*
X155344349Y-124019462D01*
X155335170Y-124038868D01*
X155324134Y-124057281D01*
X155311346Y-124074524D01*
X155296930Y-124090430D01*
X155281024Y-124104846D01*
X155263781Y-124117634D01*
X155245368Y-124128670D01*
X155225962Y-124137849D01*
X155205750Y-124145081D01*
X155184926Y-124150297D01*
X155163691Y-124153447D01*
X155142250Y-124154500D01*
X154629750Y-124154500D01*
X154608309Y-124153447D01*
X154587074Y-124150297D01*
X154566250Y-124145081D01*
X154546038Y-124137849D01*
X154526632Y-124128670D01*
X154508219Y-124117634D01*
X154490976Y-124104846D01*
X154475070Y-124090430D01*
X154460654Y-124074524D01*
X154447866Y-124057281D01*
X154436830Y-124038868D01*
X154427651Y-124019462D01*
X154420419Y-123999250D01*
X154415203Y-123978426D01*
X154412053Y-123957191D01*
X154411000Y-123935750D01*
X154411000Y-123498250D01*
X154412053Y-123476809D01*
X154415203Y-123455574D01*
X154420419Y-123434750D01*
X154427651Y-123414538D01*
X154436830Y-123395132D01*
X154447866Y-123376719D01*
X154460654Y-123359476D01*
X154475070Y-123343570D01*
X154490976Y-123329154D01*
X154508219Y-123316366D01*
X154526632Y-123305330D01*
X154546038Y-123296151D01*
X154566250Y-123288919D01*
X154587074Y-123283703D01*
X154608309Y-123280553D01*
X154629750Y-123279500D01*
X155142250Y-123279500D01*
X155163691Y-123280553D01*
G37*
G36*
X155163691Y-124855553D02*
G01*
X155184926Y-124858703D01*
X155205750Y-124863919D01*
X155225962Y-124871151D01*
X155245368Y-124880330D01*
X155263781Y-124891366D01*
X155281024Y-124904154D01*
X155296930Y-124918570D01*
X155311346Y-124934476D01*
X155324134Y-124951719D01*
X155335170Y-124970132D01*
X155344349Y-124989538D01*
X155351581Y-125009750D01*
X155356797Y-125030574D01*
X155359947Y-125051809D01*
X155361000Y-125073250D01*
X155361000Y-125510750D01*
X155359947Y-125532191D01*
X155356797Y-125553426D01*
X155351581Y-125574250D01*
X155344349Y-125594462D01*
X155335170Y-125613868D01*
X155324134Y-125632281D01*
X155311346Y-125649524D01*
X155296930Y-125665430D01*
X155281024Y-125679846D01*
X155263781Y-125692634D01*
X155245368Y-125703670D01*
X155225962Y-125712849D01*
X155205750Y-125720081D01*
X155184926Y-125725297D01*
X155163691Y-125728447D01*
X155142250Y-125729500D01*
X154629750Y-125729500D01*
X154608309Y-125728447D01*
X154587074Y-125725297D01*
X154566250Y-125720081D01*
X154546038Y-125712849D01*
X154526632Y-125703670D01*
X154508219Y-125692634D01*
X154490976Y-125679846D01*
X154475070Y-125665430D01*
X154460654Y-125649524D01*
X154447866Y-125632281D01*
X154436830Y-125613868D01*
X154427651Y-125594462D01*
X154420419Y-125574250D01*
X154415203Y-125553426D01*
X154412053Y-125532191D01*
X154411000Y-125510750D01*
X154411000Y-125073250D01*
X154412053Y-125051809D01*
X154415203Y-125030574D01*
X154420419Y-125009750D01*
X154427651Y-124989538D01*
X154436830Y-124970132D01*
X154447866Y-124951719D01*
X154460654Y-124934476D01*
X154475070Y-124918570D01*
X154490976Y-124904154D01*
X154508219Y-124891366D01*
X154526632Y-124880330D01*
X154546038Y-124871151D01*
X154566250Y-124863919D01*
X154587074Y-124858703D01*
X154608309Y-124855553D01*
X154629750Y-124854500D01*
X155142250Y-124854500D01*
X155163691Y-124855553D01*
G37*
G36*
X156487691Y-96083553D02*
G01*
X156508926Y-96086703D01*
X156529750Y-96091919D01*
X156549962Y-96099151D01*
X156569368Y-96108330D01*
X156587781Y-96119366D01*
X156605024Y-96132154D01*
X156620930Y-96146570D01*
X156635346Y-96162476D01*
X156648134Y-96179719D01*
X156659170Y-96198132D01*
X156668349Y-96217538D01*
X156675581Y-96237750D01*
X156680797Y-96258574D01*
X156683947Y-96279809D01*
X156685000Y-96301250D01*
X156685000Y-96738750D01*
X156683947Y-96760191D01*
X156680797Y-96781426D01*
X156675581Y-96802250D01*
X156668349Y-96822462D01*
X156659170Y-96841868D01*
X156648134Y-96860281D01*
X156635346Y-96877524D01*
X156620930Y-96893430D01*
X156605024Y-96907846D01*
X156587781Y-96920634D01*
X156569368Y-96931670D01*
X156549962Y-96940849D01*
X156529750Y-96948081D01*
X156508926Y-96953297D01*
X156487691Y-96956447D01*
X156466250Y-96957500D01*
X155953750Y-96957500D01*
X155932309Y-96956447D01*
X155911074Y-96953297D01*
X155890250Y-96948081D01*
X155870038Y-96940849D01*
X155850632Y-96931670D01*
X155832219Y-96920634D01*
X155814976Y-96907846D01*
X155799070Y-96893430D01*
X155784654Y-96877524D01*
X155771866Y-96860281D01*
X155760830Y-96841868D01*
X155751651Y-96822462D01*
X155744419Y-96802250D01*
X155739203Y-96781426D01*
X155736053Y-96760191D01*
X155735000Y-96738750D01*
X155735000Y-96301250D01*
X155736053Y-96279809D01*
X155739203Y-96258574D01*
X155744419Y-96237750D01*
X155751651Y-96217538D01*
X155760830Y-96198132D01*
X155771866Y-96179719D01*
X155784654Y-96162476D01*
X155799070Y-96146570D01*
X155814976Y-96132154D01*
X155832219Y-96119366D01*
X155850632Y-96108330D01*
X155870038Y-96099151D01*
X155890250Y-96091919D01*
X155911074Y-96086703D01*
X155932309Y-96083553D01*
X155953750Y-96082500D01*
X156466250Y-96082500D01*
X156487691Y-96083553D01*
G37*
G36*
X156487691Y-97658553D02*
G01*
X156508926Y-97661703D01*
X156529750Y-97666919D01*
X156549962Y-97674151D01*
X156569368Y-97683330D01*
X156587781Y-97694366D01*
X156605024Y-97707154D01*
X156620930Y-97721570D01*
X156635346Y-97737476D01*
X156648134Y-97754719D01*
X156659170Y-97773132D01*
X156668349Y-97792538D01*
X156675581Y-97812750D01*
X156680797Y-97833574D01*
X156683947Y-97854809D01*
X156685000Y-97876250D01*
X156685000Y-98313750D01*
X156683947Y-98335191D01*
X156680797Y-98356426D01*
X156675581Y-98377250D01*
X156668349Y-98397462D01*
X156659170Y-98416868D01*
X156648134Y-98435281D01*
X156635346Y-98452524D01*
X156620930Y-98468430D01*
X156605024Y-98482846D01*
X156587781Y-98495634D01*
X156569368Y-98506670D01*
X156549962Y-98515849D01*
X156529750Y-98523081D01*
X156508926Y-98528297D01*
X156487691Y-98531447D01*
X156466250Y-98532500D01*
X155953750Y-98532500D01*
X155932309Y-98531447D01*
X155911074Y-98528297D01*
X155890250Y-98523081D01*
X155870038Y-98515849D01*
X155850632Y-98506670D01*
X155832219Y-98495634D01*
X155814976Y-98482846D01*
X155799070Y-98468430D01*
X155784654Y-98452524D01*
X155771866Y-98435281D01*
X155760830Y-98416868D01*
X155751651Y-98397462D01*
X155744419Y-98377250D01*
X155739203Y-98356426D01*
X155736053Y-98335191D01*
X155735000Y-98313750D01*
X155735000Y-97876250D01*
X155736053Y-97854809D01*
X155739203Y-97833574D01*
X155744419Y-97812750D01*
X155751651Y-97792538D01*
X155760830Y-97773132D01*
X155771866Y-97754719D01*
X155784654Y-97737476D01*
X155799070Y-97721570D01*
X155814976Y-97707154D01*
X155832219Y-97694366D01*
X155850632Y-97683330D01*
X155870038Y-97674151D01*
X155890250Y-97666919D01*
X155911074Y-97661703D01*
X155932309Y-97658553D01*
X155953750Y-97657500D01*
X156466250Y-97657500D01*
X156487691Y-97658553D01*
G37*
G36*
X141247691Y-96032553D02*
G01*
X141268926Y-96035703D01*
X141289750Y-96040919D01*
X141309962Y-96048151D01*
X141329368Y-96057330D01*
X141347781Y-96068366D01*
X141365024Y-96081154D01*
X141380930Y-96095570D01*
X141395346Y-96111476D01*
X141408134Y-96128719D01*
X141419170Y-96147132D01*
X141428349Y-96166538D01*
X141435581Y-96186750D01*
X141440797Y-96207574D01*
X141443947Y-96228809D01*
X141445000Y-96250250D01*
X141445000Y-96687750D01*
X141443947Y-96709191D01*
X141440797Y-96730426D01*
X141435581Y-96751250D01*
X141428349Y-96771462D01*
X141419170Y-96790868D01*
X141408134Y-96809281D01*
X141395346Y-96826524D01*
X141380930Y-96842430D01*
X141365024Y-96856846D01*
X141347781Y-96869634D01*
X141329368Y-96880670D01*
X141309962Y-96889849D01*
X141289750Y-96897081D01*
X141268926Y-96902297D01*
X141247691Y-96905447D01*
X141226250Y-96906500D01*
X140713750Y-96906500D01*
X140692309Y-96905447D01*
X140671074Y-96902297D01*
X140650250Y-96897081D01*
X140630038Y-96889849D01*
X140610632Y-96880670D01*
X140592219Y-96869634D01*
X140574976Y-96856846D01*
X140559070Y-96842430D01*
X140544654Y-96826524D01*
X140531866Y-96809281D01*
X140520830Y-96790868D01*
X140511651Y-96771462D01*
X140504419Y-96751250D01*
X140499203Y-96730426D01*
X140496053Y-96709191D01*
X140495000Y-96687750D01*
X140495000Y-96250250D01*
X140496053Y-96228809D01*
X140499203Y-96207574D01*
X140504419Y-96186750D01*
X140511651Y-96166538D01*
X140520830Y-96147132D01*
X140531866Y-96128719D01*
X140544654Y-96111476D01*
X140559070Y-96095570D01*
X140574976Y-96081154D01*
X140592219Y-96068366D01*
X140610632Y-96057330D01*
X140630038Y-96048151D01*
X140650250Y-96040919D01*
X140671074Y-96035703D01*
X140692309Y-96032553D01*
X140713750Y-96031500D01*
X141226250Y-96031500D01*
X141247691Y-96032553D01*
G37*
G36*
X141247691Y-97607553D02*
G01*
X141268926Y-97610703D01*
X141289750Y-97615919D01*
X141309962Y-97623151D01*
X141329368Y-97632330D01*
X141347781Y-97643366D01*
X141365024Y-97656154D01*
X141380930Y-97670570D01*
X141395346Y-97686476D01*
X141408134Y-97703719D01*
X141419170Y-97722132D01*
X141428349Y-97741538D01*
X141435581Y-97761750D01*
X141440797Y-97782574D01*
X141443947Y-97803809D01*
X141445000Y-97825250D01*
X141445000Y-98262750D01*
X141443947Y-98284191D01*
X141440797Y-98305426D01*
X141435581Y-98326250D01*
X141428349Y-98346462D01*
X141419170Y-98365868D01*
X141408134Y-98384281D01*
X141395346Y-98401524D01*
X141380930Y-98417430D01*
X141365024Y-98431846D01*
X141347781Y-98444634D01*
X141329368Y-98455670D01*
X141309962Y-98464849D01*
X141289750Y-98472081D01*
X141268926Y-98477297D01*
X141247691Y-98480447D01*
X141226250Y-98481500D01*
X140713750Y-98481500D01*
X140692309Y-98480447D01*
X140671074Y-98477297D01*
X140650250Y-98472081D01*
X140630038Y-98464849D01*
X140610632Y-98455670D01*
X140592219Y-98444634D01*
X140574976Y-98431846D01*
X140559070Y-98417430D01*
X140544654Y-98401524D01*
X140531866Y-98384281D01*
X140520830Y-98365868D01*
X140511651Y-98346462D01*
X140504419Y-98326250D01*
X140499203Y-98305426D01*
X140496053Y-98284191D01*
X140495000Y-98262750D01*
X140495000Y-97825250D01*
X140496053Y-97803809D01*
X140499203Y-97782574D01*
X140504419Y-97761750D01*
X140511651Y-97741538D01*
X140520830Y-97722132D01*
X140531866Y-97703719D01*
X140544654Y-97686476D01*
X140559070Y-97670570D01*
X140574976Y-97656154D01*
X140592219Y-97643366D01*
X140610632Y-97632330D01*
X140630038Y-97623151D01*
X140650250Y-97615919D01*
X140671074Y-97610703D01*
X140692309Y-97607553D01*
X140713750Y-97606500D01*
X141226250Y-97606500D01*
X141247691Y-97607553D01*
G37*
G36*
X156487691Y-94178553D02*
G01*
X156508926Y-94181703D01*
X156529750Y-94186919D01*
X156549962Y-94194151D01*
X156569368Y-94203330D01*
X156587781Y-94214366D01*
X156605024Y-94227154D01*
X156620930Y-94241570D01*
X156635346Y-94257476D01*
X156648134Y-94274719D01*
X156659170Y-94293132D01*
X156668349Y-94312538D01*
X156675581Y-94332750D01*
X156680797Y-94353574D01*
X156683947Y-94374809D01*
X156685000Y-94396250D01*
X156685000Y-94833750D01*
X156683947Y-94855191D01*
X156680797Y-94876426D01*
X156675581Y-94897250D01*
X156668349Y-94917462D01*
X156659170Y-94936868D01*
X156648134Y-94955281D01*
X156635346Y-94972524D01*
X156620930Y-94988430D01*
X156605024Y-95002846D01*
X156587781Y-95015634D01*
X156569368Y-95026670D01*
X156549962Y-95035849D01*
X156529750Y-95043081D01*
X156508926Y-95048297D01*
X156487691Y-95051447D01*
X156466250Y-95052500D01*
X155953750Y-95052500D01*
X155932309Y-95051447D01*
X155911074Y-95048297D01*
X155890250Y-95043081D01*
X155870038Y-95035849D01*
X155850632Y-95026670D01*
X155832219Y-95015634D01*
X155814976Y-95002846D01*
X155799070Y-94988430D01*
X155784654Y-94972524D01*
X155771866Y-94955281D01*
X155760830Y-94936868D01*
X155751651Y-94917462D01*
X155744419Y-94897250D01*
X155739203Y-94876426D01*
X155736053Y-94855191D01*
X155735000Y-94833750D01*
X155735000Y-94396250D01*
X155736053Y-94374809D01*
X155739203Y-94353574D01*
X155744419Y-94332750D01*
X155751651Y-94312538D01*
X155760830Y-94293132D01*
X155771866Y-94274719D01*
X155784654Y-94257476D01*
X155799070Y-94241570D01*
X155814976Y-94227154D01*
X155832219Y-94214366D01*
X155850632Y-94203330D01*
X155870038Y-94194151D01*
X155890250Y-94186919D01*
X155911074Y-94181703D01*
X155932309Y-94178553D01*
X155953750Y-94177500D01*
X156466250Y-94177500D01*
X156487691Y-94178553D01*
G37*
G36*
X156487691Y-92603553D02*
G01*
X156508926Y-92606703D01*
X156529750Y-92611919D01*
X156549962Y-92619151D01*
X156569368Y-92628330D01*
X156587781Y-92639366D01*
X156605024Y-92652154D01*
X156620930Y-92666570D01*
X156635346Y-92682476D01*
X156648134Y-92699719D01*
X156659170Y-92718132D01*
X156668349Y-92737538D01*
X156675581Y-92757750D01*
X156680797Y-92778574D01*
X156683947Y-92799809D01*
X156685000Y-92821250D01*
X156685000Y-93258750D01*
X156683947Y-93280191D01*
X156680797Y-93301426D01*
X156675581Y-93322250D01*
X156668349Y-93342462D01*
X156659170Y-93361868D01*
X156648134Y-93380281D01*
X156635346Y-93397524D01*
X156620930Y-93413430D01*
X156605024Y-93427846D01*
X156587781Y-93440634D01*
X156569368Y-93451670D01*
X156549962Y-93460849D01*
X156529750Y-93468081D01*
X156508926Y-93473297D01*
X156487691Y-93476447D01*
X156466250Y-93477500D01*
X155953750Y-93477500D01*
X155932309Y-93476447D01*
X155911074Y-93473297D01*
X155890250Y-93468081D01*
X155870038Y-93460849D01*
X155850632Y-93451670D01*
X155832219Y-93440634D01*
X155814976Y-93427846D01*
X155799070Y-93413430D01*
X155784654Y-93397524D01*
X155771866Y-93380281D01*
X155760830Y-93361868D01*
X155751651Y-93342462D01*
X155744419Y-93322250D01*
X155739203Y-93301426D01*
X155736053Y-93280191D01*
X155735000Y-93258750D01*
X155735000Y-92821250D01*
X155736053Y-92799809D01*
X155739203Y-92778574D01*
X155744419Y-92757750D01*
X155751651Y-92737538D01*
X155760830Y-92718132D01*
X155771866Y-92699719D01*
X155784654Y-92682476D01*
X155799070Y-92666570D01*
X155814976Y-92652154D01*
X155832219Y-92639366D01*
X155850632Y-92628330D01*
X155870038Y-92619151D01*
X155890250Y-92611919D01*
X155911074Y-92606703D01*
X155932309Y-92603553D01*
X155953750Y-92602500D01*
X156466250Y-92602500D01*
X156487691Y-92603553D01*
G37*
G36*
X139788077Y-115053274D02*
G01*
X139809312Y-115056424D01*
X139830136Y-115061640D01*
X139850348Y-115068872D01*
X139869754Y-115078051D01*
X139888167Y-115089087D01*
X139905410Y-115101875D01*
X139921316Y-115116291D01*
X140283709Y-115478684D01*
X140298125Y-115494590D01*
X140310913Y-115511833D01*
X140321949Y-115530246D01*
X140331128Y-115549652D01*
X140338360Y-115569864D01*
X140343576Y-115590688D01*
X140346726Y-115611923D01*
X140347779Y-115633364D01*
X140346726Y-115654805D01*
X140343576Y-115676040D01*
X140338360Y-115696864D01*
X140331128Y-115717076D01*
X140321949Y-115736482D01*
X140310913Y-115754895D01*
X140298125Y-115772138D01*
X140283709Y-115788044D01*
X139974350Y-116097403D01*
X139958444Y-116111819D01*
X139941201Y-116124607D01*
X139922788Y-116135643D01*
X139903382Y-116144822D01*
X139883170Y-116152054D01*
X139862346Y-116157270D01*
X139841111Y-116160420D01*
X139819670Y-116161473D01*
X139798229Y-116160420D01*
X139776994Y-116157270D01*
X139756170Y-116152054D01*
X139735958Y-116144822D01*
X139716552Y-116135643D01*
X139698139Y-116124607D01*
X139680896Y-116111819D01*
X139664990Y-116097403D01*
X139302597Y-115735010D01*
X139288181Y-115719104D01*
X139275393Y-115701861D01*
X139264357Y-115683448D01*
X139255178Y-115664042D01*
X139247946Y-115643830D01*
X139242730Y-115623006D01*
X139239580Y-115601771D01*
X139238527Y-115580330D01*
X139239580Y-115558889D01*
X139242730Y-115537654D01*
X139247946Y-115516830D01*
X139255178Y-115496618D01*
X139264357Y-115477212D01*
X139275393Y-115458799D01*
X139288181Y-115441556D01*
X139302597Y-115425650D01*
X139611956Y-115116291D01*
X139627862Y-115101875D01*
X139645105Y-115089087D01*
X139663518Y-115078051D01*
X139682924Y-115068872D01*
X139703136Y-115061640D01*
X139723960Y-115056424D01*
X139745195Y-115053274D01*
X139766636Y-115052221D01*
X139788077Y-115053274D01*
G37*
G36*
X140901771Y-113939580D02*
G01*
X140923006Y-113942730D01*
X140943830Y-113947946D01*
X140964042Y-113955178D01*
X140983448Y-113964357D01*
X141001861Y-113975393D01*
X141019104Y-113988181D01*
X141035010Y-114002597D01*
X141397403Y-114364990D01*
X141411819Y-114380896D01*
X141424607Y-114398139D01*
X141435643Y-114416552D01*
X141444822Y-114435958D01*
X141452054Y-114456170D01*
X141457270Y-114476994D01*
X141460420Y-114498229D01*
X141461473Y-114519670D01*
X141460420Y-114541111D01*
X141457270Y-114562346D01*
X141452054Y-114583170D01*
X141444822Y-114603382D01*
X141435643Y-114622788D01*
X141424607Y-114641201D01*
X141411819Y-114658444D01*
X141397403Y-114674350D01*
X141088044Y-114983709D01*
X141072138Y-114998125D01*
X141054895Y-115010913D01*
X141036482Y-115021949D01*
X141017076Y-115031128D01*
X140996864Y-115038360D01*
X140976040Y-115043576D01*
X140954805Y-115046726D01*
X140933364Y-115047779D01*
X140911923Y-115046726D01*
X140890688Y-115043576D01*
X140869864Y-115038360D01*
X140849652Y-115031128D01*
X140830246Y-115021949D01*
X140811833Y-115010913D01*
X140794590Y-114998125D01*
X140778684Y-114983709D01*
X140416291Y-114621316D01*
X140401875Y-114605410D01*
X140389087Y-114588167D01*
X140378051Y-114569754D01*
X140368872Y-114550348D01*
X140361640Y-114530136D01*
X140356424Y-114509312D01*
X140353274Y-114488077D01*
X140352221Y-114466636D01*
X140353274Y-114445195D01*
X140356424Y-114423960D01*
X140361640Y-114403136D01*
X140368872Y-114382924D01*
X140378051Y-114363518D01*
X140389087Y-114345105D01*
X140401875Y-114327862D01*
X140416291Y-114311956D01*
X140725650Y-114002597D01*
X140741556Y-113988181D01*
X140758799Y-113975393D01*
X140777212Y-113964357D01*
X140796618Y-113955178D01*
X140816830Y-113947946D01*
X140837654Y-113942730D01*
X140858889Y-113939580D01*
X140880330Y-113938527D01*
X140901771Y-113939580D01*
G37*
G36*
X145001771Y-118039580D02*
G01*
X145023006Y-118042730D01*
X145043830Y-118047946D01*
X145064042Y-118055178D01*
X145083448Y-118064357D01*
X145101861Y-118075393D01*
X145119104Y-118088181D01*
X145135010Y-118102597D01*
X145497403Y-118464990D01*
X145511819Y-118480896D01*
X145524607Y-118498139D01*
X145535643Y-118516552D01*
X145544822Y-118535958D01*
X145552054Y-118556170D01*
X145557270Y-118576994D01*
X145560420Y-118598229D01*
X145561473Y-118619670D01*
X145560420Y-118641111D01*
X145557270Y-118662346D01*
X145552054Y-118683170D01*
X145544822Y-118703382D01*
X145535643Y-118722788D01*
X145524607Y-118741201D01*
X145511819Y-118758444D01*
X145497403Y-118774350D01*
X145188044Y-119083709D01*
X145172138Y-119098125D01*
X145154895Y-119110913D01*
X145136482Y-119121949D01*
X145117076Y-119131128D01*
X145096864Y-119138360D01*
X145076040Y-119143576D01*
X145054805Y-119146726D01*
X145033364Y-119147779D01*
X145011923Y-119146726D01*
X144990688Y-119143576D01*
X144969864Y-119138360D01*
X144949652Y-119131128D01*
X144930246Y-119121949D01*
X144911833Y-119110913D01*
X144894590Y-119098125D01*
X144878684Y-119083709D01*
X144516291Y-118721316D01*
X144501875Y-118705410D01*
X144489087Y-118688167D01*
X144478051Y-118669754D01*
X144468872Y-118650348D01*
X144461640Y-118630136D01*
X144456424Y-118609312D01*
X144453274Y-118588077D01*
X144452221Y-118566636D01*
X144453274Y-118545195D01*
X144456424Y-118523960D01*
X144461640Y-118503136D01*
X144468872Y-118482924D01*
X144478051Y-118463518D01*
X144489087Y-118445105D01*
X144501875Y-118427862D01*
X144516291Y-118411956D01*
X144825650Y-118102597D01*
X144841556Y-118088181D01*
X144858799Y-118075393D01*
X144877212Y-118064357D01*
X144896618Y-118055178D01*
X144916830Y-118047946D01*
X144937654Y-118042730D01*
X144958889Y-118039580D01*
X144980330Y-118038527D01*
X145001771Y-118039580D01*
G37*
G36*
X143888077Y-119153274D02*
G01*
X143909312Y-119156424D01*
X143930136Y-119161640D01*
X143950348Y-119168872D01*
X143969754Y-119178051D01*
X143988167Y-119189087D01*
X144005410Y-119201875D01*
X144021316Y-119216291D01*
X144383709Y-119578684D01*
X144398125Y-119594590D01*
X144410913Y-119611833D01*
X144421949Y-119630246D01*
X144431128Y-119649652D01*
X144438360Y-119669864D01*
X144443576Y-119690688D01*
X144446726Y-119711923D01*
X144447779Y-119733364D01*
X144446726Y-119754805D01*
X144443576Y-119776040D01*
X144438360Y-119796864D01*
X144431128Y-119817076D01*
X144421949Y-119836482D01*
X144410913Y-119854895D01*
X144398125Y-119872138D01*
X144383709Y-119888044D01*
X144074350Y-120197403D01*
X144058444Y-120211819D01*
X144041201Y-120224607D01*
X144022788Y-120235643D01*
X144003382Y-120244822D01*
X143983170Y-120252054D01*
X143962346Y-120257270D01*
X143941111Y-120260420D01*
X143919670Y-120261473D01*
X143898229Y-120260420D01*
X143876994Y-120257270D01*
X143856170Y-120252054D01*
X143835958Y-120244822D01*
X143816552Y-120235643D01*
X143798139Y-120224607D01*
X143780896Y-120211819D01*
X143764990Y-120197403D01*
X143402597Y-119835010D01*
X143388181Y-119819104D01*
X143375393Y-119801861D01*
X143364357Y-119783448D01*
X143355178Y-119764042D01*
X143347946Y-119743830D01*
X143342730Y-119723006D01*
X143339580Y-119701771D01*
X143338527Y-119680330D01*
X143339580Y-119658889D01*
X143342730Y-119637654D01*
X143347946Y-119616830D01*
X143355178Y-119596618D01*
X143364357Y-119577212D01*
X143375393Y-119558799D01*
X143388181Y-119541556D01*
X143402597Y-119525650D01*
X143711956Y-119216291D01*
X143727862Y-119201875D01*
X143745105Y-119189087D01*
X143763518Y-119178051D01*
X143782924Y-119168872D01*
X143803136Y-119161640D01*
X143823960Y-119156424D01*
X143845195Y-119153274D01*
X143866636Y-119152221D01*
X143888077Y-119153274D01*
G37*
G36*
X152741191Y-100757053D02*
G01*
X152762426Y-100760203D01*
X152783250Y-100765419D01*
X152803462Y-100772651D01*
X152822868Y-100781830D01*
X152841281Y-100792866D01*
X152858524Y-100805654D01*
X152874430Y-100820070D01*
X152888846Y-100835976D01*
X152901634Y-100853219D01*
X152912670Y-100871632D01*
X152921849Y-100891038D01*
X152929081Y-100911250D01*
X152934297Y-100932074D01*
X152937447Y-100953309D01*
X152938500Y-100974750D01*
X152938500Y-101412250D01*
X152937447Y-101433691D01*
X152934297Y-101454926D01*
X152929081Y-101475750D01*
X152921849Y-101495962D01*
X152912670Y-101515368D01*
X152901634Y-101533781D01*
X152888846Y-101551024D01*
X152874430Y-101566930D01*
X152858524Y-101581346D01*
X152841281Y-101594134D01*
X152822868Y-101605170D01*
X152803462Y-101614349D01*
X152783250Y-101621581D01*
X152762426Y-101626797D01*
X152741191Y-101629947D01*
X152719750Y-101631000D01*
X152207250Y-101631000D01*
X152185809Y-101629947D01*
X152164574Y-101626797D01*
X152143750Y-101621581D01*
X152123538Y-101614349D01*
X152104132Y-101605170D01*
X152085719Y-101594134D01*
X152068476Y-101581346D01*
X152052570Y-101566930D01*
X152038154Y-101551024D01*
X152025366Y-101533781D01*
X152014330Y-101515368D01*
X152005151Y-101495962D01*
X151997919Y-101475750D01*
X151992703Y-101454926D01*
X151989553Y-101433691D01*
X151988500Y-101412250D01*
X151988500Y-100974750D01*
X151989553Y-100953309D01*
X151992703Y-100932074D01*
X151997919Y-100911250D01*
X152005151Y-100891038D01*
X152014330Y-100871632D01*
X152025366Y-100853219D01*
X152038154Y-100835976D01*
X152052570Y-100820070D01*
X152068476Y-100805654D01*
X152085719Y-100792866D01*
X152104132Y-100781830D01*
X152123538Y-100772651D01*
X152143750Y-100765419D01*
X152164574Y-100760203D01*
X152185809Y-100757053D01*
X152207250Y-100756000D01*
X152719750Y-100756000D01*
X152741191Y-100757053D01*
G37*
G36*
X152741191Y-102332053D02*
G01*
X152762426Y-102335203D01*
X152783250Y-102340419D01*
X152803462Y-102347651D01*
X152822868Y-102356830D01*
X152841281Y-102367866D01*
X152858524Y-102380654D01*
X152874430Y-102395070D01*
X152888846Y-102410976D01*
X152901634Y-102428219D01*
X152912670Y-102446632D01*
X152921849Y-102466038D01*
X152929081Y-102486250D01*
X152934297Y-102507074D01*
X152937447Y-102528309D01*
X152938500Y-102549750D01*
X152938500Y-102987250D01*
X152937447Y-103008691D01*
X152934297Y-103029926D01*
X152929081Y-103050750D01*
X152921849Y-103070962D01*
X152912670Y-103090368D01*
X152901634Y-103108781D01*
X152888846Y-103126024D01*
X152874430Y-103141930D01*
X152858524Y-103156346D01*
X152841281Y-103169134D01*
X152822868Y-103180170D01*
X152803462Y-103189349D01*
X152783250Y-103196581D01*
X152762426Y-103201797D01*
X152741191Y-103204947D01*
X152719750Y-103206000D01*
X152207250Y-103206000D01*
X152185809Y-103204947D01*
X152164574Y-103201797D01*
X152143750Y-103196581D01*
X152123538Y-103189349D01*
X152104132Y-103180170D01*
X152085719Y-103169134D01*
X152068476Y-103156346D01*
X152052570Y-103141930D01*
X152038154Y-103126024D01*
X152025366Y-103108781D01*
X152014330Y-103090368D01*
X152005151Y-103070962D01*
X151997919Y-103050750D01*
X151992703Y-103029926D01*
X151989553Y-103008691D01*
X151988500Y-102987250D01*
X151988500Y-102549750D01*
X151989553Y-102528309D01*
X151992703Y-102507074D01*
X151997919Y-102486250D01*
X152005151Y-102466038D01*
X152014330Y-102446632D01*
X152025366Y-102428219D01*
X152038154Y-102410976D01*
X152052570Y-102395070D01*
X152068476Y-102380654D01*
X152085719Y-102367866D01*
X152104132Y-102356830D01*
X152123538Y-102347651D01*
X152143750Y-102340419D01*
X152164574Y-102335203D01*
X152185809Y-102332053D01*
X152207250Y-102331000D01*
X152719750Y-102331000D01*
X152741191Y-102332053D01*
G37*
G36*
X143629958Y-103410123D02*
G01*
X143653619Y-103413633D01*
X143676823Y-103419445D01*
X143699345Y-103427503D01*
X143720969Y-103437731D01*
X143741486Y-103450028D01*
X143760699Y-103464278D01*
X143778423Y-103480342D01*
X144423658Y-104125577D01*
X144439722Y-104143301D01*
X144453972Y-104162514D01*
X144466269Y-104183031D01*
X144476497Y-104204655D01*
X144484555Y-104227177D01*
X144490367Y-104250381D01*
X144493877Y-104274042D01*
X144495051Y-104297934D01*
X144493877Y-104321826D01*
X144490367Y-104345487D01*
X144484555Y-104368691D01*
X144476497Y-104391213D01*
X144466269Y-104412837D01*
X144453972Y-104433354D01*
X144439722Y-104452567D01*
X144423658Y-104470291D01*
X144078943Y-104815006D01*
X144061219Y-104831070D01*
X144042006Y-104845320D01*
X144021489Y-104857617D01*
X143999865Y-104867845D01*
X143977343Y-104875903D01*
X143954139Y-104881715D01*
X143930478Y-104885225D01*
X143906586Y-104886399D01*
X143882694Y-104885225D01*
X143859033Y-104881715D01*
X143835829Y-104875903D01*
X143813307Y-104867845D01*
X143791683Y-104857617D01*
X143771166Y-104845320D01*
X143751953Y-104831070D01*
X143734229Y-104815006D01*
X143088994Y-104169771D01*
X143072930Y-104152047D01*
X143058680Y-104132834D01*
X143046383Y-104112317D01*
X143036155Y-104090693D01*
X143028097Y-104068171D01*
X143022285Y-104044967D01*
X143018775Y-104021306D01*
X143017601Y-103997414D01*
X143018775Y-103973522D01*
X143022285Y-103949861D01*
X143028097Y-103926657D01*
X143036155Y-103904135D01*
X143046383Y-103882511D01*
X143058680Y-103861994D01*
X143072930Y-103842781D01*
X143088994Y-103825057D01*
X143433709Y-103480342D01*
X143451433Y-103464278D01*
X143470646Y-103450028D01*
X143491163Y-103437731D01*
X143512787Y-103427503D01*
X143535309Y-103419445D01*
X143558513Y-103413633D01*
X143582174Y-103410123D01*
X143606066Y-103408949D01*
X143629958Y-103410123D01*
G37*
G36*
X142304132Y-104735949D02*
G01*
X142327793Y-104739459D01*
X142350997Y-104745271D01*
X142373519Y-104753329D01*
X142395143Y-104763557D01*
X142415660Y-104775854D01*
X142434873Y-104790104D01*
X142452597Y-104806168D01*
X143097832Y-105451403D01*
X143113896Y-105469127D01*
X143128146Y-105488340D01*
X143140443Y-105508857D01*
X143150671Y-105530481D01*
X143158729Y-105553003D01*
X143164541Y-105576207D01*
X143168051Y-105599868D01*
X143169225Y-105623760D01*
X143168051Y-105647652D01*
X143164541Y-105671313D01*
X143158729Y-105694517D01*
X143150671Y-105717039D01*
X143140443Y-105738663D01*
X143128146Y-105759180D01*
X143113896Y-105778393D01*
X143097832Y-105796117D01*
X142753117Y-106140832D01*
X142735393Y-106156896D01*
X142716180Y-106171146D01*
X142695663Y-106183443D01*
X142674039Y-106193671D01*
X142651517Y-106201729D01*
X142628313Y-106207541D01*
X142604652Y-106211051D01*
X142580760Y-106212225D01*
X142556868Y-106211051D01*
X142533207Y-106207541D01*
X142510003Y-106201729D01*
X142487481Y-106193671D01*
X142465857Y-106183443D01*
X142445340Y-106171146D01*
X142426127Y-106156896D01*
X142408403Y-106140832D01*
X141763168Y-105495597D01*
X141747104Y-105477873D01*
X141732854Y-105458660D01*
X141720557Y-105438143D01*
X141710329Y-105416519D01*
X141702271Y-105393997D01*
X141696459Y-105370793D01*
X141692949Y-105347132D01*
X141691775Y-105323240D01*
X141692949Y-105299348D01*
X141696459Y-105275687D01*
X141702271Y-105252483D01*
X141710329Y-105229961D01*
X141720557Y-105208337D01*
X141732854Y-105187820D01*
X141747104Y-105168607D01*
X141763168Y-105150883D01*
X142107883Y-104806168D01*
X142125607Y-104790104D01*
X142144820Y-104775854D01*
X142165337Y-104763557D01*
X142186961Y-104753329D01*
X142209483Y-104745271D01*
X142232687Y-104739459D01*
X142256348Y-104735949D01*
X142280240Y-104734775D01*
X142304132Y-104735949D01*
G37*
G36*
X156777691Y-123276053D02*
G01*
X156798926Y-123279203D01*
X156819750Y-123284419D01*
X156839962Y-123291651D01*
X156859368Y-123300830D01*
X156877781Y-123311866D01*
X156895024Y-123324654D01*
X156910930Y-123339070D01*
X156925346Y-123354976D01*
X156938134Y-123372219D01*
X156949170Y-123390632D01*
X156958349Y-123410038D01*
X156965581Y-123430250D01*
X156970797Y-123451074D01*
X156973947Y-123472309D01*
X156975000Y-123493750D01*
X156975000Y-123931250D01*
X156973947Y-123952691D01*
X156970797Y-123973926D01*
X156965581Y-123994750D01*
X156958349Y-124014962D01*
X156949170Y-124034368D01*
X156938134Y-124052781D01*
X156925346Y-124070024D01*
X156910930Y-124085930D01*
X156895024Y-124100346D01*
X156877781Y-124113134D01*
X156859368Y-124124170D01*
X156839962Y-124133349D01*
X156819750Y-124140581D01*
X156798926Y-124145797D01*
X156777691Y-124148947D01*
X156756250Y-124150000D01*
X156243750Y-124150000D01*
X156222309Y-124148947D01*
X156201074Y-124145797D01*
X156180250Y-124140581D01*
X156160038Y-124133349D01*
X156140632Y-124124170D01*
X156122219Y-124113134D01*
X156104976Y-124100346D01*
X156089070Y-124085930D01*
X156074654Y-124070024D01*
X156061866Y-124052781D01*
X156050830Y-124034368D01*
X156041651Y-124014962D01*
X156034419Y-123994750D01*
X156029203Y-123973926D01*
X156026053Y-123952691D01*
X156025000Y-123931250D01*
X156025000Y-123493750D01*
X156026053Y-123472309D01*
X156029203Y-123451074D01*
X156034419Y-123430250D01*
X156041651Y-123410038D01*
X156050830Y-123390632D01*
X156061866Y-123372219D01*
X156074654Y-123354976D01*
X156089070Y-123339070D01*
X156104976Y-123324654D01*
X156122219Y-123311866D01*
X156140632Y-123300830D01*
X156160038Y-123291651D01*
X156180250Y-123284419D01*
X156201074Y-123279203D01*
X156222309Y-123276053D01*
X156243750Y-123275000D01*
X156756250Y-123275000D01*
X156777691Y-123276053D01*
G37*
G36*
X156777691Y-124851053D02*
G01*
X156798926Y-124854203D01*
X156819750Y-124859419D01*
X156839962Y-124866651D01*
X156859368Y-124875830D01*
X156877781Y-124886866D01*
X156895024Y-124899654D01*
X156910930Y-124914070D01*
X156925346Y-124929976D01*
X156938134Y-124947219D01*
X156949170Y-124965632D01*
X156958349Y-124985038D01*
X156965581Y-125005250D01*
X156970797Y-125026074D01*
X156973947Y-125047309D01*
X156975000Y-125068750D01*
X156975000Y-125506250D01*
X156973947Y-125527691D01*
X156970797Y-125548926D01*
X156965581Y-125569750D01*
X156958349Y-125589962D01*
X156949170Y-125609368D01*
X156938134Y-125627781D01*
X156925346Y-125645024D01*
X156910930Y-125660930D01*
X156895024Y-125675346D01*
X156877781Y-125688134D01*
X156859368Y-125699170D01*
X156839962Y-125708349D01*
X156819750Y-125715581D01*
X156798926Y-125720797D01*
X156777691Y-125723947D01*
X156756250Y-125725000D01*
X156243750Y-125725000D01*
X156222309Y-125723947D01*
X156201074Y-125720797D01*
X156180250Y-125715581D01*
X156160038Y-125708349D01*
X156140632Y-125699170D01*
X156122219Y-125688134D01*
X156104976Y-125675346D01*
X156089070Y-125660930D01*
X156074654Y-125645024D01*
X156061866Y-125627781D01*
X156050830Y-125609368D01*
X156041651Y-125589962D01*
X156034419Y-125569750D01*
X156029203Y-125548926D01*
X156026053Y-125527691D01*
X156025000Y-125506250D01*
X156025000Y-125068750D01*
X156026053Y-125047309D01*
X156029203Y-125026074D01*
X156034419Y-125005250D01*
X156041651Y-124985038D01*
X156050830Y-124965632D01*
X156061866Y-124947219D01*
X156074654Y-124929976D01*
X156089070Y-124914070D01*
X156104976Y-124899654D01*
X156122219Y-124886866D01*
X156140632Y-124875830D01*
X156160038Y-124866651D01*
X156180250Y-124859419D01*
X156201074Y-124854203D01*
X156222309Y-124851053D01*
X156243750Y-124850000D01*
X156756250Y-124850000D01*
X156777691Y-124851053D01*
G37*
G36*
X155091111Y-106289580D02*
G01*
X155112346Y-106292730D01*
X155133170Y-106297946D01*
X155153382Y-106305178D01*
X155172788Y-106314357D01*
X155191201Y-106325393D01*
X155208444Y-106338181D01*
X155224350Y-106352597D01*
X155533709Y-106661956D01*
X155548125Y-106677862D01*
X155560913Y-106695105D01*
X155571949Y-106713518D01*
X155581128Y-106732924D01*
X155588360Y-106753136D01*
X155593576Y-106773960D01*
X155596726Y-106795195D01*
X155597779Y-106816636D01*
X155596726Y-106838077D01*
X155593576Y-106859312D01*
X155588360Y-106880136D01*
X155581128Y-106900348D01*
X155571949Y-106919754D01*
X155560913Y-106938167D01*
X155548125Y-106955410D01*
X155533709Y-106971316D01*
X155171316Y-107333709D01*
X155155410Y-107348125D01*
X155138167Y-107360913D01*
X155119754Y-107371949D01*
X155100348Y-107381128D01*
X155080136Y-107388360D01*
X155059312Y-107393576D01*
X155038077Y-107396726D01*
X155016636Y-107397779D01*
X154995195Y-107396726D01*
X154973960Y-107393576D01*
X154953136Y-107388360D01*
X154932924Y-107381128D01*
X154913518Y-107371949D01*
X154895105Y-107360913D01*
X154877862Y-107348125D01*
X154861956Y-107333709D01*
X154552597Y-107024350D01*
X154538181Y-107008444D01*
X154525393Y-106991201D01*
X154514357Y-106972788D01*
X154505178Y-106953382D01*
X154497946Y-106933170D01*
X154492730Y-106912346D01*
X154489580Y-106891111D01*
X154488527Y-106869670D01*
X154489580Y-106848229D01*
X154492730Y-106826994D01*
X154497946Y-106806170D01*
X154505178Y-106785958D01*
X154514357Y-106766552D01*
X154525393Y-106748139D01*
X154538181Y-106730896D01*
X154552597Y-106714990D01*
X154914990Y-106352597D01*
X154930896Y-106338181D01*
X154948139Y-106325393D01*
X154966552Y-106314357D01*
X154985958Y-106305178D01*
X155006170Y-106297946D01*
X155026994Y-106292730D01*
X155048229Y-106289580D01*
X155069670Y-106288527D01*
X155091111Y-106289580D01*
G37*
G36*
X156204805Y-107403274D02*
G01*
X156226040Y-107406424D01*
X156246864Y-107411640D01*
X156267076Y-107418872D01*
X156286482Y-107428051D01*
X156304895Y-107439087D01*
X156322138Y-107451875D01*
X156338044Y-107466291D01*
X156647403Y-107775650D01*
X156661819Y-107791556D01*
X156674607Y-107808799D01*
X156685643Y-107827212D01*
X156694822Y-107846618D01*
X156702054Y-107866830D01*
X156707270Y-107887654D01*
X156710420Y-107908889D01*
X156711473Y-107930330D01*
X156710420Y-107951771D01*
X156707270Y-107973006D01*
X156702054Y-107993830D01*
X156694822Y-108014042D01*
X156685643Y-108033448D01*
X156674607Y-108051861D01*
X156661819Y-108069104D01*
X156647403Y-108085010D01*
X156285010Y-108447403D01*
X156269104Y-108461819D01*
X156251861Y-108474607D01*
X156233448Y-108485643D01*
X156214042Y-108494822D01*
X156193830Y-108502054D01*
X156173006Y-108507270D01*
X156151771Y-108510420D01*
X156130330Y-108511473D01*
X156108889Y-108510420D01*
X156087654Y-108507270D01*
X156066830Y-108502054D01*
X156046618Y-108494822D01*
X156027212Y-108485643D01*
X156008799Y-108474607D01*
X155991556Y-108461819D01*
X155975650Y-108447403D01*
X155666291Y-108138044D01*
X155651875Y-108122138D01*
X155639087Y-108104895D01*
X155628051Y-108086482D01*
X155618872Y-108067076D01*
X155611640Y-108046864D01*
X155606424Y-108026040D01*
X155603274Y-108004805D01*
X155602221Y-107983364D01*
X155603274Y-107961923D01*
X155606424Y-107940688D01*
X155611640Y-107919864D01*
X155618872Y-107899652D01*
X155628051Y-107880246D01*
X155639087Y-107861833D01*
X155651875Y-107844590D01*
X155666291Y-107828684D01*
X156028684Y-107466291D01*
X156044590Y-107451875D01*
X156061833Y-107439087D01*
X156080246Y-107428051D01*
X156099652Y-107418872D01*
X156119864Y-107411640D01*
X156140688Y-107406424D01*
X156161923Y-107403274D01*
X156183364Y-107402221D01*
X156204805Y-107403274D01*
G37*
G36*
X144794504Y-93226204D02*
G01*
X144818773Y-93229804D01*
X144842571Y-93235765D01*
X144865671Y-93244030D01*
X144887849Y-93254520D01*
X144908893Y-93267133D01*
X144928598Y-93281747D01*
X144946777Y-93298223D01*
X144963253Y-93316402D01*
X144977867Y-93336107D01*
X144990480Y-93357151D01*
X145000970Y-93379329D01*
X145009235Y-93402429D01*
X145015196Y-93426227D01*
X145018796Y-93450496D01*
X145020000Y-93475000D01*
X145020000Y-94225000D01*
X145018796Y-94249504D01*
X145015196Y-94273773D01*
X145009235Y-94297571D01*
X145000970Y-94320671D01*
X144990480Y-94342849D01*
X144977867Y-94363893D01*
X144963253Y-94383598D01*
X144946777Y-94401777D01*
X144928598Y-94418253D01*
X144908893Y-94432867D01*
X144887849Y-94445480D01*
X144865671Y-94455970D01*
X144842571Y-94464235D01*
X144818773Y-94470196D01*
X144794504Y-94473796D01*
X144770000Y-94475000D01*
X143520000Y-94475000D01*
X143495496Y-94473796D01*
X143471227Y-94470196D01*
X143447429Y-94464235D01*
X143424329Y-94455970D01*
X143402151Y-94445480D01*
X143381107Y-94432867D01*
X143361402Y-94418253D01*
X143343223Y-94401777D01*
X143326747Y-94383598D01*
X143312133Y-94363893D01*
X143299520Y-94342849D01*
X143289030Y-94320671D01*
X143280765Y-94297571D01*
X143274804Y-94273773D01*
X143271204Y-94249504D01*
X143270000Y-94225000D01*
X143270000Y-93475000D01*
X143271204Y-93450496D01*
X143274804Y-93426227D01*
X143280765Y-93402429D01*
X143289030Y-93379329D01*
X143299520Y-93357151D01*
X143312133Y-93336107D01*
X143326747Y-93316402D01*
X143343223Y-93298223D01*
X143361402Y-93281747D01*
X143381107Y-93267133D01*
X143402151Y-93254520D01*
X143424329Y-93244030D01*
X143447429Y-93235765D01*
X143471227Y-93229804D01*
X143495496Y-93226204D01*
X143520000Y-93225000D01*
X144770000Y-93225000D01*
X144794504Y-93226204D01*
G37*
G36*
X144794504Y-96026204D02*
G01*
X144818773Y-96029804D01*
X144842571Y-96035765D01*
X144865671Y-96044030D01*
X144887849Y-96054520D01*
X144908893Y-96067133D01*
X144928598Y-96081747D01*
X144946777Y-96098223D01*
X144963253Y-96116402D01*
X144977867Y-96136107D01*
X144990480Y-96157151D01*
X145000970Y-96179329D01*
X145009235Y-96202429D01*
X145015196Y-96226227D01*
X145018796Y-96250496D01*
X145020000Y-96275000D01*
X145020000Y-97025000D01*
X145018796Y-97049504D01*
X145015196Y-97073773D01*
X145009235Y-97097571D01*
X145000970Y-97120671D01*
X144990480Y-97142849D01*
X144977867Y-97163893D01*
X144963253Y-97183598D01*
X144946777Y-97201777D01*
X144928598Y-97218253D01*
X144908893Y-97232867D01*
X144887849Y-97245480D01*
X144865671Y-97255970D01*
X144842571Y-97264235D01*
X144818773Y-97270196D01*
X144794504Y-97273796D01*
X144770000Y-97275000D01*
X143520000Y-97275000D01*
X143495496Y-97273796D01*
X143471227Y-97270196D01*
X143447429Y-97264235D01*
X143424329Y-97255970D01*
X143402151Y-97245480D01*
X143381107Y-97232867D01*
X143361402Y-97218253D01*
X143343223Y-97201777D01*
X143326747Y-97183598D01*
X143312133Y-97163893D01*
X143299520Y-97142849D01*
X143289030Y-97120671D01*
X143280765Y-97097571D01*
X143274804Y-97073773D01*
X143271204Y-97049504D01*
X143270000Y-97025000D01*
X143270000Y-96275000D01*
X143271204Y-96250496D01*
X143274804Y-96226227D01*
X143280765Y-96202429D01*
X143289030Y-96179329D01*
X143299520Y-96157151D01*
X143312133Y-96136107D01*
X143326747Y-96116402D01*
X143343223Y-96098223D01*
X143361402Y-96081747D01*
X143381107Y-96067133D01*
X143402151Y-96054520D01*
X143424329Y-96044030D01*
X143447429Y-96035765D01*
X143471227Y-96029804D01*
X143495496Y-96026204D01*
X143520000Y-96025000D01*
X144770000Y-96025000D01*
X144794504Y-96026204D01*
G37*
D14*
X144615000Y-126550000D03*
X144615000Y-131050000D03*
X152565000Y-131050000D03*
X152565000Y-126550000D03*
D10*
G36*
X150177691Y-93476053D02*
G01*
X150198926Y-93479203D01*
X150219750Y-93484419D01*
X150239962Y-93491651D01*
X150259368Y-93500830D01*
X150277781Y-93511866D01*
X150295024Y-93524654D01*
X150310930Y-93539070D01*
X150325346Y-93554976D01*
X150338134Y-93572219D01*
X150349170Y-93590632D01*
X150358349Y-93610038D01*
X150365581Y-93630250D01*
X150370797Y-93651074D01*
X150373947Y-93672309D01*
X150375000Y-93693750D01*
X150375000Y-94131250D01*
X150373947Y-94152691D01*
X150370797Y-94173926D01*
X150365581Y-94194750D01*
X150358349Y-94214962D01*
X150349170Y-94234368D01*
X150338134Y-94252781D01*
X150325346Y-94270024D01*
X150310930Y-94285930D01*
X150295024Y-94300346D01*
X150277781Y-94313134D01*
X150259368Y-94324170D01*
X150239962Y-94333349D01*
X150219750Y-94340581D01*
X150198926Y-94345797D01*
X150177691Y-94348947D01*
X150156250Y-94350000D01*
X149643750Y-94350000D01*
X149622309Y-94348947D01*
X149601074Y-94345797D01*
X149580250Y-94340581D01*
X149560038Y-94333349D01*
X149540632Y-94324170D01*
X149522219Y-94313134D01*
X149504976Y-94300346D01*
X149489070Y-94285930D01*
X149474654Y-94270024D01*
X149461866Y-94252781D01*
X149450830Y-94234368D01*
X149441651Y-94214962D01*
X149434419Y-94194750D01*
X149429203Y-94173926D01*
X149426053Y-94152691D01*
X149425000Y-94131250D01*
X149425000Y-93693750D01*
X149426053Y-93672309D01*
X149429203Y-93651074D01*
X149434419Y-93630250D01*
X149441651Y-93610038D01*
X149450830Y-93590632D01*
X149461866Y-93572219D01*
X149474654Y-93554976D01*
X149489070Y-93539070D01*
X149504976Y-93524654D01*
X149522219Y-93511866D01*
X149540632Y-93500830D01*
X149560038Y-93491651D01*
X149580250Y-93484419D01*
X149601074Y-93479203D01*
X149622309Y-93476053D01*
X149643750Y-93475000D01*
X150156250Y-93475000D01*
X150177691Y-93476053D01*
G37*
G36*
X150177691Y-95051053D02*
G01*
X150198926Y-95054203D01*
X150219750Y-95059419D01*
X150239962Y-95066651D01*
X150259368Y-95075830D01*
X150277781Y-95086866D01*
X150295024Y-95099654D01*
X150310930Y-95114070D01*
X150325346Y-95129976D01*
X150338134Y-95147219D01*
X150349170Y-95165632D01*
X150358349Y-95185038D01*
X150365581Y-95205250D01*
X150370797Y-95226074D01*
X150373947Y-95247309D01*
X150375000Y-95268750D01*
X150375000Y-95706250D01*
X150373947Y-95727691D01*
X150370797Y-95748926D01*
X150365581Y-95769750D01*
X150358349Y-95789962D01*
X150349170Y-95809368D01*
X150338134Y-95827781D01*
X150325346Y-95845024D01*
X150310930Y-95860930D01*
X150295024Y-95875346D01*
X150277781Y-95888134D01*
X150259368Y-95899170D01*
X150239962Y-95908349D01*
X150219750Y-95915581D01*
X150198926Y-95920797D01*
X150177691Y-95923947D01*
X150156250Y-95925000D01*
X149643750Y-95925000D01*
X149622309Y-95923947D01*
X149601074Y-95920797D01*
X149580250Y-95915581D01*
X149560038Y-95908349D01*
X149540632Y-95899170D01*
X149522219Y-95888134D01*
X149504976Y-95875346D01*
X149489070Y-95860930D01*
X149474654Y-95845024D01*
X149461866Y-95827781D01*
X149450830Y-95809368D01*
X149441651Y-95789962D01*
X149434419Y-95769750D01*
X149429203Y-95748926D01*
X149426053Y-95727691D01*
X149425000Y-95706250D01*
X149425000Y-95268750D01*
X149426053Y-95247309D01*
X149429203Y-95226074D01*
X149434419Y-95205250D01*
X149441651Y-95185038D01*
X149450830Y-95165632D01*
X149461866Y-95147219D01*
X149474654Y-95129976D01*
X149489070Y-95114070D01*
X149504976Y-95099654D01*
X149522219Y-95086866D01*
X149540632Y-95075830D01*
X149560038Y-95066651D01*
X149580250Y-95059419D01*
X149601074Y-95054203D01*
X149622309Y-95051053D01*
X149643750Y-95050000D01*
X150156250Y-95050000D01*
X150177691Y-95051053D01*
G37*
G36*
X148105691Y-93476053D02*
G01*
X148126926Y-93479203D01*
X148147750Y-93484419D01*
X148167962Y-93491651D01*
X148187368Y-93500830D01*
X148205781Y-93511866D01*
X148223024Y-93524654D01*
X148238930Y-93539070D01*
X148253346Y-93554976D01*
X148266134Y-93572219D01*
X148277170Y-93590632D01*
X148286349Y-93610038D01*
X148293581Y-93630250D01*
X148298797Y-93651074D01*
X148301947Y-93672309D01*
X148303000Y-93693750D01*
X148303000Y-94131250D01*
X148301947Y-94152691D01*
X148298797Y-94173926D01*
X148293581Y-94194750D01*
X148286349Y-94214962D01*
X148277170Y-94234368D01*
X148266134Y-94252781D01*
X148253346Y-94270024D01*
X148238930Y-94285930D01*
X148223024Y-94300346D01*
X148205781Y-94313134D01*
X148187368Y-94324170D01*
X148167962Y-94333349D01*
X148147750Y-94340581D01*
X148126926Y-94345797D01*
X148105691Y-94348947D01*
X148084250Y-94350000D01*
X147571750Y-94350000D01*
X147550309Y-94348947D01*
X147529074Y-94345797D01*
X147508250Y-94340581D01*
X147488038Y-94333349D01*
X147468632Y-94324170D01*
X147450219Y-94313134D01*
X147432976Y-94300346D01*
X147417070Y-94285930D01*
X147402654Y-94270024D01*
X147389866Y-94252781D01*
X147378830Y-94234368D01*
X147369651Y-94214962D01*
X147362419Y-94194750D01*
X147357203Y-94173926D01*
X147354053Y-94152691D01*
X147353000Y-94131250D01*
X147353000Y-93693750D01*
X147354053Y-93672309D01*
X147357203Y-93651074D01*
X147362419Y-93630250D01*
X147369651Y-93610038D01*
X147378830Y-93590632D01*
X147389866Y-93572219D01*
X147402654Y-93554976D01*
X147417070Y-93539070D01*
X147432976Y-93524654D01*
X147450219Y-93511866D01*
X147468632Y-93500830D01*
X147488038Y-93491651D01*
X147508250Y-93484419D01*
X147529074Y-93479203D01*
X147550309Y-93476053D01*
X147571750Y-93475000D01*
X148084250Y-93475000D01*
X148105691Y-93476053D01*
G37*
G36*
X148105691Y-95051053D02*
G01*
X148126926Y-95054203D01*
X148147750Y-95059419D01*
X148167962Y-95066651D01*
X148187368Y-95075830D01*
X148205781Y-95086866D01*
X148223024Y-95099654D01*
X148238930Y-95114070D01*
X148253346Y-95129976D01*
X148266134Y-95147219D01*
X148277170Y-95165632D01*
X148286349Y-95185038D01*
X148293581Y-95205250D01*
X148298797Y-95226074D01*
X148301947Y-95247309D01*
X148303000Y-95268750D01*
X148303000Y-95706250D01*
X148301947Y-95727691D01*
X148298797Y-95748926D01*
X148293581Y-95769750D01*
X148286349Y-95789962D01*
X148277170Y-95809368D01*
X148266134Y-95827781D01*
X148253346Y-95845024D01*
X148238930Y-95860930D01*
X148223024Y-95875346D01*
X148205781Y-95888134D01*
X148187368Y-95899170D01*
X148167962Y-95908349D01*
X148147750Y-95915581D01*
X148126926Y-95920797D01*
X148105691Y-95923947D01*
X148084250Y-95925000D01*
X147571750Y-95925000D01*
X147550309Y-95923947D01*
X147529074Y-95920797D01*
X147508250Y-95915581D01*
X147488038Y-95908349D01*
X147468632Y-95899170D01*
X147450219Y-95888134D01*
X147432976Y-95875346D01*
X147417070Y-95860930D01*
X147402654Y-95845024D01*
X147389866Y-95827781D01*
X147378830Y-95809368D01*
X147369651Y-95789962D01*
X147362419Y-95769750D01*
X147357203Y-95748926D01*
X147354053Y-95727691D01*
X147353000Y-95706250D01*
X147353000Y-95268750D01*
X147354053Y-95247309D01*
X147357203Y-95226074D01*
X147362419Y-95205250D01*
X147369651Y-95185038D01*
X147378830Y-95165632D01*
X147389866Y-95147219D01*
X147402654Y-95129976D01*
X147417070Y-95114070D01*
X147432976Y-95099654D01*
X147450219Y-95086866D01*
X147468632Y-95075830D01*
X147488038Y-95066651D01*
X147508250Y-95059419D01*
X147529074Y-95054203D01*
X147550309Y-95051053D01*
X147571750Y-95050000D01*
X148084250Y-95050000D01*
X148105691Y-95051053D01*
G37*
G36*
X150389504Y-100726204D02*
G01*
X150413773Y-100729804D01*
X150437571Y-100735765D01*
X150460671Y-100744030D01*
X150482849Y-100754520D01*
X150503893Y-100767133D01*
X150523598Y-100781747D01*
X150541777Y-100798223D01*
X150558253Y-100816402D01*
X150572867Y-100836107D01*
X150585480Y-100857151D01*
X150595970Y-100879329D01*
X150604235Y-100902429D01*
X150610196Y-100926227D01*
X150613796Y-100950496D01*
X150615000Y-100975000D01*
X150615000Y-102225000D01*
X150613796Y-102249504D01*
X150610196Y-102273773D01*
X150604235Y-102297571D01*
X150595970Y-102320671D01*
X150585480Y-102342849D01*
X150572867Y-102363893D01*
X150558253Y-102383598D01*
X150541777Y-102401777D01*
X150523598Y-102418253D01*
X150503893Y-102432867D01*
X150482849Y-102445480D01*
X150460671Y-102455970D01*
X150437571Y-102464235D01*
X150413773Y-102470196D01*
X150389504Y-102473796D01*
X150365000Y-102475000D01*
X149615000Y-102475000D01*
X149590496Y-102473796D01*
X149566227Y-102470196D01*
X149542429Y-102464235D01*
X149519329Y-102455970D01*
X149497151Y-102445480D01*
X149476107Y-102432867D01*
X149456402Y-102418253D01*
X149438223Y-102401777D01*
X149421747Y-102383598D01*
X149407133Y-102363893D01*
X149394520Y-102342849D01*
X149384030Y-102320671D01*
X149375765Y-102297571D01*
X149369804Y-102273773D01*
X149366204Y-102249504D01*
X149365000Y-102225000D01*
X149365000Y-100975000D01*
X149366204Y-100950496D01*
X149369804Y-100926227D01*
X149375765Y-100902429D01*
X149384030Y-100879329D01*
X149394520Y-100857151D01*
X149407133Y-100836107D01*
X149421747Y-100816402D01*
X149438223Y-100798223D01*
X149456402Y-100781747D01*
X149476107Y-100767133D01*
X149497151Y-100754520D01*
X149519329Y-100744030D01*
X149542429Y-100735765D01*
X149566227Y-100729804D01*
X149590496Y-100726204D01*
X149615000Y-100725000D01*
X150365000Y-100725000D01*
X150389504Y-100726204D01*
G37*
G36*
X147589504Y-100726204D02*
G01*
X147613773Y-100729804D01*
X147637571Y-100735765D01*
X147660671Y-100744030D01*
X147682849Y-100754520D01*
X147703893Y-100767133D01*
X147723598Y-100781747D01*
X147741777Y-100798223D01*
X147758253Y-100816402D01*
X147772867Y-100836107D01*
X147785480Y-100857151D01*
X147795970Y-100879329D01*
X147804235Y-100902429D01*
X147810196Y-100926227D01*
X147813796Y-100950496D01*
X147815000Y-100975000D01*
X147815000Y-102225000D01*
X147813796Y-102249504D01*
X147810196Y-102273773D01*
X147804235Y-102297571D01*
X147795970Y-102320671D01*
X147785480Y-102342849D01*
X147772867Y-102363893D01*
X147758253Y-102383598D01*
X147741777Y-102401777D01*
X147723598Y-102418253D01*
X147703893Y-102432867D01*
X147682849Y-102445480D01*
X147660671Y-102455970D01*
X147637571Y-102464235D01*
X147613773Y-102470196D01*
X147589504Y-102473796D01*
X147565000Y-102475000D01*
X146815000Y-102475000D01*
X146790496Y-102473796D01*
X146766227Y-102470196D01*
X146742429Y-102464235D01*
X146719329Y-102455970D01*
X146697151Y-102445480D01*
X146676107Y-102432867D01*
X146656402Y-102418253D01*
X146638223Y-102401777D01*
X146621747Y-102383598D01*
X146607133Y-102363893D01*
X146594520Y-102342849D01*
X146584030Y-102320671D01*
X146575765Y-102297571D01*
X146569804Y-102273773D01*
X146566204Y-102249504D01*
X146565000Y-102225000D01*
X146565000Y-100975000D01*
X146566204Y-100950496D01*
X146569804Y-100926227D01*
X146575765Y-100902429D01*
X146584030Y-100879329D01*
X146594520Y-100857151D01*
X146607133Y-100836107D01*
X146621747Y-100816402D01*
X146638223Y-100798223D01*
X146656402Y-100781747D01*
X146676107Y-100767133D01*
X146697151Y-100754520D01*
X146719329Y-100744030D01*
X146742429Y-100735765D01*
X146766227Y-100729804D01*
X146790496Y-100726204D01*
X146815000Y-100725000D01*
X147565000Y-100725000D01*
X147589504Y-100726204D01*
G37*
G36*
X141247691Y-94178553D02*
G01*
X141268926Y-94181703D01*
X141289750Y-94186919D01*
X141309962Y-94194151D01*
X141329368Y-94203330D01*
X141347781Y-94214366D01*
X141365024Y-94227154D01*
X141380930Y-94241570D01*
X141395346Y-94257476D01*
X141408134Y-94274719D01*
X141419170Y-94293132D01*
X141428349Y-94312538D01*
X141435581Y-94332750D01*
X141440797Y-94353574D01*
X141443947Y-94374809D01*
X141445000Y-94396250D01*
X141445000Y-94833750D01*
X141443947Y-94855191D01*
X141440797Y-94876426D01*
X141435581Y-94897250D01*
X141428349Y-94917462D01*
X141419170Y-94936868D01*
X141408134Y-94955281D01*
X141395346Y-94972524D01*
X141380930Y-94988430D01*
X141365024Y-95002846D01*
X141347781Y-95015634D01*
X141329368Y-95026670D01*
X141309962Y-95035849D01*
X141289750Y-95043081D01*
X141268926Y-95048297D01*
X141247691Y-95051447D01*
X141226250Y-95052500D01*
X140713750Y-95052500D01*
X140692309Y-95051447D01*
X140671074Y-95048297D01*
X140650250Y-95043081D01*
X140630038Y-95035849D01*
X140610632Y-95026670D01*
X140592219Y-95015634D01*
X140574976Y-95002846D01*
X140559070Y-94988430D01*
X140544654Y-94972524D01*
X140531866Y-94955281D01*
X140520830Y-94936868D01*
X140511651Y-94917462D01*
X140504419Y-94897250D01*
X140499203Y-94876426D01*
X140496053Y-94855191D01*
X140495000Y-94833750D01*
X140495000Y-94396250D01*
X140496053Y-94374809D01*
X140499203Y-94353574D01*
X140504419Y-94332750D01*
X140511651Y-94312538D01*
X140520830Y-94293132D01*
X140531866Y-94274719D01*
X140544654Y-94257476D01*
X140559070Y-94241570D01*
X140574976Y-94227154D01*
X140592219Y-94214366D01*
X140610632Y-94203330D01*
X140630038Y-94194151D01*
X140650250Y-94186919D01*
X140671074Y-94181703D01*
X140692309Y-94178553D01*
X140713750Y-94177500D01*
X141226250Y-94177500D01*
X141247691Y-94178553D01*
G37*
G36*
X141247691Y-92603553D02*
G01*
X141268926Y-92606703D01*
X141289750Y-92611919D01*
X141309962Y-92619151D01*
X141329368Y-92628330D01*
X141347781Y-92639366D01*
X141365024Y-92652154D01*
X141380930Y-92666570D01*
X141395346Y-92682476D01*
X141408134Y-92699719D01*
X141419170Y-92718132D01*
X141428349Y-92737538D01*
X141435581Y-92757750D01*
X141440797Y-92778574D01*
X141443947Y-92799809D01*
X141445000Y-92821250D01*
X141445000Y-93258750D01*
X141443947Y-93280191D01*
X141440797Y-93301426D01*
X141435581Y-93322250D01*
X141428349Y-93342462D01*
X141419170Y-93361868D01*
X141408134Y-93380281D01*
X141395346Y-93397524D01*
X141380930Y-93413430D01*
X141365024Y-93427846D01*
X141347781Y-93440634D01*
X141329368Y-93451670D01*
X141309962Y-93460849D01*
X141289750Y-93468081D01*
X141268926Y-93473297D01*
X141247691Y-93476447D01*
X141226250Y-93477500D01*
X140713750Y-93477500D01*
X140692309Y-93476447D01*
X140671074Y-93473297D01*
X140650250Y-93468081D01*
X140630038Y-93460849D01*
X140610632Y-93451670D01*
X140592219Y-93440634D01*
X140574976Y-93427846D01*
X140559070Y-93413430D01*
X140544654Y-93397524D01*
X140531866Y-93380281D01*
X140520830Y-93361868D01*
X140511651Y-93342462D01*
X140504419Y-93322250D01*
X140499203Y-93301426D01*
X140496053Y-93280191D01*
X140495000Y-93258750D01*
X140495000Y-92821250D01*
X140496053Y-92799809D01*
X140499203Y-92778574D01*
X140504419Y-92757750D01*
X140511651Y-92737538D01*
X140520830Y-92718132D01*
X140531866Y-92699719D01*
X140544654Y-92682476D01*
X140559070Y-92666570D01*
X140574976Y-92652154D01*
X140592219Y-92639366D01*
X140610632Y-92628330D01*
X140630038Y-92619151D01*
X140650250Y-92611919D01*
X140671074Y-92606703D01*
X140692309Y-92603553D01*
X140713750Y-92602500D01*
X141226250Y-92602500D01*
X141247691Y-92603553D01*
G37*
G36*
X153684504Y-93223204D02*
G01*
X153708773Y-93226804D01*
X153732571Y-93232765D01*
X153755671Y-93241030D01*
X153777849Y-93251520D01*
X153798893Y-93264133D01*
X153818598Y-93278747D01*
X153836777Y-93295223D01*
X153853253Y-93313402D01*
X153867867Y-93333107D01*
X153880480Y-93354151D01*
X153890970Y-93376329D01*
X153899235Y-93399429D01*
X153905196Y-93423227D01*
X153908796Y-93447496D01*
X153910000Y-93472000D01*
X153910000Y-94222000D01*
X153908796Y-94246504D01*
X153905196Y-94270773D01*
X153899235Y-94294571D01*
X153890970Y-94317671D01*
X153880480Y-94339849D01*
X153867867Y-94360893D01*
X153853253Y-94380598D01*
X153836777Y-94398777D01*
X153818598Y-94415253D01*
X153798893Y-94429867D01*
X153777849Y-94442480D01*
X153755671Y-94452970D01*
X153732571Y-94461235D01*
X153708773Y-94467196D01*
X153684504Y-94470796D01*
X153660000Y-94472000D01*
X152410000Y-94472000D01*
X152385496Y-94470796D01*
X152361227Y-94467196D01*
X152337429Y-94461235D01*
X152314329Y-94452970D01*
X152292151Y-94442480D01*
X152271107Y-94429867D01*
X152251402Y-94415253D01*
X152233223Y-94398777D01*
X152216747Y-94380598D01*
X152202133Y-94360893D01*
X152189520Y-94339849D01*
X152179030Y-94317671D01*
X152170765Y-94294571D01*
X152164804Y-94270773D01*
X152161204Y-94246504D01*
X152160000Y-94222000D01*
X152160000Y-93472000D01*
X152161204Y-93447496D01*
X152164804Y-93423227D01*
X152170765Y-93399429D01*
X152179030Y-93376329D01*
X152189520Y-93354151D01*
X152202133Y-93333107D01*
X152216747Y-93313402D01*
X152233223Y-93295223D01*
X152251402Y-93278747D01*
X152271107Y-93264133D01*
X152292151Y-93251520D01*
X152314329Y-93241030D01*
X152337429Y-93232765D01*
X152361227Y-93226804D01*
X152385496Y-93223204D01*
X152410000Y-93222000D01*
X153660000Y-93222000D01*
X153684504Y-93223204D01*
G37*
G36*
X153684504Y-96023204D02*
G01*
X153708773Y-96026804D01*
X153732571Y-96032765D01*
X153755671Y-96041030D01*
X153777849Y-96051520D01*
X153798893Y-96064133D01*
X153818598Y-96078747D01*
X153836777Y-96095223D01*
X153853253Y-96113402D01*
X153867867Y-96133107D01*
X153880480Y-96154151D01*
X153890970Y-96176329D01*
X153899235Y-96199429D01*
X153905196Y-96223227D01*
X153908796Y-96247496D01*
X153910000Y-96272000D01*
X153910000Y-97022000D01*
X153908796Y-97046504D01*
X153905196Y-97070773D01*
X153899235Y-97094571D01*
X153890970Y-97117671D01*
X153880480Y-97139849D01*
X153867867Y-97160893D01*
X153853253Y-97180598D01*
X153836777Y-97198777D01*
X153818598Y-97215253D01*
X153798893Y-97229867D01*
X153777849Y-97242480D01*
X153755671Y-97252970D01*
X153732571Y-97261235D01*
X153708773Y-97267196D01*
X153684504Y-97270796D01*
X153660000Y-97272000D01*
X152410000Y-97272000D01*
X152385496Y-97270796D01*
X152361227Y-97267196D01*
X152337429Y-97261235D01*
X152314329Y-97252970D01*
X152292151Y-97242480D01*
X152271107Y-97229867D01*
X152251402Y-97215253D01*
X152233223Y-97198777D01*
X152216747Y-97180598D01*
X152202133Y-97160893D01*
X152189520Y-97139849D01*
X152179030Y-97117671D01*
X152170765Y-97094571D01*
X152164804Y-97070773D01*
X152161204Y-97046504D01*
X152160000Y-97022000D01*
X152160000Y-96272000D01*
X152161204Y-96247496D01*
X152164804Y-96223227D01*
X152170765Y-96199429D01*
X152179030Y-96176329D01*
X152189520Y-96154151D01*
X152202133Y-96133107D01*
X152216747Y-96113402D01*
X152233223Y-96095223D01*
X152251402Y-96078747D01*
X152271107Y-96064133D01*
X152292151Y-96051520D01*
X152314329Y-96041030D01*
X152337429Y-96032765D01*
X152361227Y-96026804D01*
X152385496Y-96023204D01*
X152410000Y-96022000D01*
X153660000Y-96022000D01*
X153684504Y-96023204D01*
G37*
M02*
