G04 #@! TF.GenerationSoftware,KiCad,Pcbnew,(5.1.5)-3*
G04 #@! TF.CreationDate,2021-02-11T22:25:29+01:00*
G04 #@! TF.ProjectId,20210211_eduino,32303231-3032-4313-915f-656475696e6f,v1.0*
G04 #@! TF.SameCoordinates,Original*
G04 #@! TF.FileFunction,Copper,L4,Bot*
G04 #@! TF.FilePolarity,Positive*
%FSLAX46Y46*%
G04 Gerber Fmt 4.6, Leading zero omitted, Abs format (unit mm)*
G04 Created by KiCad (PCBNEW (5.1.5)-3) date 2021-02-11 22:25:29*
%MOMM*%
%LPD*%
G04 APERTURE LIST*
%ADD10O,1.700000X1.700000*%
%ADD11R,1.700000X1.700000*%
%ADD12C,0.800000*%
%ADD13C,0.500000*%
%ADD14C,0.400000*%
%ADD15C,0.250000*%
%ADD16C,0.254000*%
G04 APERTURE END LIST*
D10*
X160020000Y-130810000D03*
X160020000Y-128270000D03*
X160020000Y-125730000D03*
X160020000Y-123190000D03*
X160020000Y-120650000D03*
X160020000Y-118110000D03*
X160020000Y-115570000D03*
X160020000Y-113030000D03*
X160020000Y-110490000D03*
X160020000Y-107950000D03*
X160020000Y-105410000D03*
X160020000Y-102870000D03*
X160020000Y-100330000D03*
X160020000Y-97790000D03*
X160020000Y-95250000D03*
D11*
X160020000Y-92710000D03*
D10*
X137160000Y-130810000D03*
X137160000Y-128270000D03*
X137160000Y-125730000D03*
X137160000Y-123190000D03*
X137160000Y-120650000D03*
X137160000Y-118110000D03*
X137160000Y-115570000D03*
X137160000Y-113030000D03*
X137160000Y-110490000D03*
X137160000Y-107950000D03*
X137160000Y-105410000D03*
X137160000Y-102870000D03*
X137160000Y-100330000D03*
X137160000Y-97790000D03*
X137160000Y-95250000D03*
D11*
X137160000Y-92710000D03*
D12*
X143827500Y-112966500D03*
X152463500Y-104902000D03*
X146748500Y-103378000D03*
X156870400Y-109931200D03*
X150253610Y-119989600D03*
X144774990Y-98502862D03*
X153873200Y-110896400D03*
X156057600Y-117856000D03*
X150114000Y-126390400D03*
X156514800Y-126800000D03*
X158200000Y-123200000D03*
X147218400Y-122529600D03*
X152200000Y-122600000D03*
X139000000Y-119200000D03*
X141986000Y-123139200D03*
X139903200Y-124968000D03*
X147116800Y-131419600D03*
X149910800Y-131419600D03*
X155041600Y-131419600D03*
X158250000Y-129550000D03*
X141935200Y-131419600D03*
X152908000Y-119837200D03*
X142600000Y-127250000D03*
X147116800Y-126796800D03*
X141427200Y-103581200D03*
X144322800Y-102006400D03*
X142392400Y-100126800D03*
X156667200Y-104902000D03*
X157734000Y-97942400D03*
X157784800Y-95402400D03*
X155700000Y-99950000D03*
X139319000Y-95313500D03*
X157480000Y-90805000D03*
X155300000Y-89500000D03*
X139950000Y-89350000D03*
X143967200Y-91440000D03*
X153162000Y-91440000D03*
X142400000Y-95313500D03*
X154800000Y-93800000D03*
X158800000Y-116800000D03*
X148750000Y-98600000D03*
X139450000Y-114250000D03*
X139850000Y-111350000D03*
X158050000Y-114700000D03*
X139700000Y-131350000D03*
X155550000Y-121100000D03*
X145650000Y-120000000D03*
X138650000Y-116800000D03*
X139400000Y-127250000D03*
X154900000Y-97100000D03*
X159950000Y-89350000D03*
X152146000Y-97790000D03*
D13*
X153098500Y-112776000D03*
X148907500Y-117348000D03*
X153670000Y-98107500D03*
X148001059Y-103782015D03*
X154178000Y-127254000D03*
X153817000Y-123717000D03*
X144615000Y-128285000D03*
X146300000Y-114400000D03*
X138800000Y-121900000D03*
X149665892Y-108402243D03*
X151130000Y-107950000D03*
X151464526Y-109540621D03*
X152178090Y-109388187D03*
X152971501Y-109537500D03*
X153012514Y-110929645D03*
X156600000Y-115100000D03*
X155700000Y-116000000D03*
X147968488Y-108384078D03*
X146950410Y-108784794D03*
X146178798Y-109033787D03*
X153987500Y-118110000D03*
X152400000Y-117665500D03*
X158400000Y-111700000D03*
X151765000Y-118173500D03*
X148177278Y-117719135D03*
X147635902Y-117275369D03*
X147716488Y-116085847D03*
X146923565Y-113707711D03*
X145207529Y-113616522D03*
X141224782Y-112316490D03*
D14*
X150272750Y-107092750D02*
X150082250Y-107092750D01*
X150272750Y-107092750D02*
X152463500Y-104902000D01*
X146177000Y-103949500D02*
X146748500Y-103378000D01*
X146177000Y-104076500D02*
X146177000Y-103949500D01*
X156870400Y-109931200D02*
X150253610Y-116547990D01*
X150253610Y-119423915D02*
X150253610Y-119989600D01*
X150253610Y-116547990D02*
X150253610Y-119423915D01*
X150272750Y-107092750D02*
X149292750Y-107092750D01*
X149292750Y-107092750D02*
X149200000Y-107000000D01*
X149200000Y-107000000D02*
X148800000Y-106600000D01*
X148800000Y-106600000D02*
X146177000Y-104076500D01*
X145174989Y-98902861D02*
X144774990Y-98502862D01*
X146177000Y-104076500D02*
X146177000Y-99904872D01*
X146177000Y-99904872D02*
X145174989Y-98902861D01*
X144487199Y-112306801D02*
X145135490Y-112306801D01*
X143827500Y-112966500D02*
X144487199Y-112306801D01*
X145135490Y-112306801D02*
X148800000Y-108642291D01*
X148800000Y-108642291D02*
X148800000Y-106600000D01*
X143827500Y-112966500D02*
X139183500Y-112966500D01*
X138009999Y-114720001D02*
X137160000Y-115570000D01*
X138009999Y-114140001D02*
X138009999Y-114720001D01*
X139183500Y-112966500D02*
X138009999Y-114140001D01*
X152146000Y-97790000D02*
X152711685Y-97790000D01*
X158770000Y-92710000D02*
X160020000Y-92710000D01*
X157791685Y-92710000D02*
X158770000Y-92710000D01*
X152711685Y-97790000D02*
X157791685Y-92710000D01*
D15*
X152848501Y-113025999D02*
X153098500Y-112776000D01*
X152785001Y-113025999D02*
X152848501Y-113025999D01*
X149157499Y-116653501D02*
X152785001Y-113025999D01*
X149157499Y-117098001D02*
X149157499Y-116653501D01*
X148907500Y-117348000D02*
X149157499Y-117098001D01*
X153670000Y-98107500D02*
X148001059Y-103776441D01*
X148001059Y-103776441D02*
X148001059Y-103782015D01*
X153817000Y-126893000D02*
X154178000Y-127254000D01*
X153817000Y-123717000D02*
X153817000Y-126893000D01*
X146300000Y-114400000D02*
X146050001Y-114649999D01*
X146050001Y-114649999D02*
X138800000Y-121900000D01*
X144615000Y-128285000D02*
X144615000Y-128638553D01*
X151828500Y-129603500D02*
X151900000Y-129600000D01*
X145576447Y-129600000D02*
X151900000Y-129600000D01*
X144615000Y-128638553D02*
X145576447Y-129600000D01*
X151900000Y-129600000D02*
X154178000Y-127254000D01*
X139890500Y-118110000D02*
X145168688Y-112831812D01*
X149415893Y-108652242D02*
X149665892Y-108402243D01*
X137160000Y-118110000D02*
X139890500Y-118110000D01*
X145352956Y-112831812D02*
X149415893Y-108768875D01*
X145168688Y-112831812D02*
X145352956Y-112831812D01*
X149415893Y-108768875D02*
X149415893Y-108652242D01*
X137160000Y-120650000D02*
X139168088Y-120650000D01*
X139168088Y-120650000D02*
X149774531Y-110043557D01*
X149774531Y-109743204D02*
X150731640Y-108786095D01*
X150731640Y-108786095D02*
X150731640Y-108348360D01*
X149774531Y-110043557D02*
X149774531Y-109743204D01*
X150731640Y-108348360D02*
X150880001Y-108199999D01*
X150880001Y-108199999D02*
X151130000Y-107950000D01*
X151214527Y-109790620D02*
X151464526Y-109540621D01*
X151214527Y-109876381D02*
X151214527Y-109790620D01*
X147637500Y-113453408D02*
X151214527Y-109876381D01*
X147637500Y-114041011D02*
X147637500Y-113453408D01*
X138488511Y-123190000D02*
X147637500Y-114041011D01*
X137160000Y-123190000D02*
X138488511Y-123190000D01*
X152178090Y-109640245D02*
X152178090Y-109388187D01*
X148087511Y-113730824D02*
X152178090Y-109640245D01*
X148087511Y-114232399D02*
X148087511Y-113730824D01*
X137160000Y-125159910D02*
X148087511Y-114232399D01*
X137160000Y-125730000D02*
X137160000Y-125159910D01*
X152971501Y-109537500D02*
X152971501Y-109537499D01*
X137160000Y-128270000D02*
X138335001Y-127094999D01*
X138335001Y-127094999D02*
X138335001Y-124875320D01*
X138335001Y-124875320D02*
X147082533Y-116127788D01*
X147082533Y-116127788D02*
X147082533Y-115873789D01*
X147082533Y-115873789D02*
X148537522Y-114418799D01*
X148537522Y-114418799D02*
X148537522Y-113917224D01*
X152667247Y-109787499D02*
X152721502Y-109787499D01*
X148537522Y-113917224D02*
X152667247Y-109787499D01*
X152721502Y-109787499D02*
X152971501Y-109537500D01*
X137160000Y-130810000D02*
X147060900Y-120909100D01*
X147367519Y-116694122D02*
X148098056Y-116694122D01*
X148098056Y-116694122D02*
X148257477Y-116534701D01*
X148257477Y-116534701D02*
X148257477Y-116280701D01*
X148257477Y-116280701D02*
X148381339Y-116156839D01*
X148381339Y-116156839D02*
X148381339Y-115914373D01*
X148381339Y-115914373D02*
X153012514Y-111283198D01*
X153012514Y-111283198D02*
X153012514Y-110929645D01*
X147060900Y-117000741D02*
X147367519Y-116694122D01*
X147060900Y-120909100D02*
X147060900Y-117000741D01*
X156600000Y-115100000D02*
X156350001Y-115349999D01*
X156350001Y-115349999D02*
X155700000Y-116000000D01*
X147718489Y-108634077D02*
X147968488Y-108384078D01*
X147718489Y-108981325D02*
X147718489Y-108634077D01*
X137160000Y-110490000D02*
X146209814Y-110490000D01*
X146209814Y-110490000D02*
X147718489Y-108981325D01*
X146950410Y-109112993D02*
X146950410Y-108784794D01*
X146438423Y-109624980D02*
X146950410Y-109112993D01*
X138834980Y-109624980D02*
X146438423Y-109624980D01*
X137160000Y-107950000D02*
X138834980Y-109624980D01*
X142555011Y-105410000D02*
X146178798Y-109033787D01*
X137160000Y-105410000D02*
X142555011Y-105410000D01*
X156981002Y-115570000D02*
X154441002Y-118110000D01*
X154441002Y-118110000D02*
X154341053Y-118110000D01*
X160020000Y-115570000D02*
X156981002Y-115570000D01*
X154341053Y-118110000D02*
X153987500Y-118110000D01*
X152400000Y-117665500D02*
X158369000Y-111696500D01*
X158369000Y-111696500D02*
X158396500Y-111696500D01*
X158396500Y-111696500D02*
X158400000Y-111700000D01*
X151515001Y-116518499D02*
X151701500Y-116332000D01*
X151515001Y-117923501D02*
X151515001Y-116518499D01*
X151765000Y-118173500D02*
X151515001Y-117923501D01*
X160020000Y-107950000D02*
X151701500Y-116332000D01*
X159170001Y-111339999D02*
X159170001Y-111746501D01*
X150978611Y-119937891D02*
X150978611Y-120337601D01*
X148177278Y-118072688D02*
X148177278Y-117719135D01*
X159170001Y-111746501D02*
X156391503Y-114524999D01*
X150978611Y-120337601D02*
X150601611Y-120714601D01*
X155124999Y-115723999D02*
X155124999Y-115791503D01*
X156391503Y-114524999D02*
X156323999Y-114524999D01*
X155124999Y-115791503D02*
X150978611Y-119937891D01*
X148177278Y-119125880D02*
X148177278Y-118072688D01*
X156323999Y-114524999D02*
X155124999Y-115723999D01*
X149765999Y-120714601D02*
X148177278Y-119125880D01*
X150601611Y-120714601D02*
X149765999Y-120714601D01*
X160020000Y-110490000D02*
X159170001Y-111339999D01*
X160020000Y-105410000D02*
X159170001Y-106259999D01*
X159170001Y-106259999D02*
X158718391Y-106259999D01*
X148831350Y-116147040D02*
X148831350Y-116343239D01*
X147767138Y-117144133D02*
X147635902Y-117275369D01*
X148831350Y-116343239D02*
X148707488Y-116467101D01*
X153356989Y-111621401D02*
X148831350Y-116147040D01*
X148284456Y-117144133D02*
X147767138Y-117144133D01*
X148707488Y-116467101D02*
X148707488Y-116721101D01*
X154221201Y-111621401D02*
X153356989Y-111621401D01*
X148707488Y-116721101D02*
X148284456Y-117144133D01*
X154932624Y-110045766D02*
X154932624Y-110909978D01*
X154932624Y-110909978D02*
X154221201Y-111621401D01*
X158718391Y-106259999D02*
X154932624Y-110045766D01*
X160020000Y-102870000D02*
X159170001Y-103719999D01*
X159170001Y-103719999D02*
X159170001Y-104481999D01*
X159170001Y-104481999D02*
X153297356Y-110354644D01*
X153297356Y-110354644D02*
X152736513Y-110354644D01*
X152736513Y-110354644D02*
X148987533Y-114103624D01*
X148987533Y-114103624D02*
X148987533Y-114605200D01*
X148987533Y-114605200D02*
X147716488Y-115876245D01*
X147716488Y-115876245D02*
X147716488Y-116085847D01*
X151181651Y-108728079D02*
X151181651Y-108972494D01*
X147173564Y-113457712D02*
X146923565Y-113707711D01*
X147173564Y-113280935D02*
X147173564Y-113457712D01*
X150224542Y-110229957D02*
X147173564Y-113280935D01*
X150224542Y-109929603D02*
X150224542Y-110229957D01*
X151181651Y-108972494D02*
X150224542Y-109929603D01*
X158729731Y-101179999D02*
X151181651Y-108728079D01*
X159170001Y-101179999D02*
X158729731Y-101179999D01*
X160020000Y-100330000D02*
X159170001Y-101179999D01*
X153188502Y-105250002D02*
X152811502Y-105627002D01*
X145514801Y-113366523D02*
X145457528Y-113366523D01*
X153188502Y-104621498D02*
X153188502Y-105250002D01*
X160020000Y-97790000D02*
X153188502Y-104621498D01*
X150281629Y-107918371D02*
X150281629Y-108599695D01*
X152811502Y-105627002D02*
X152572998Y-105627002D01*
X152572998Y-105627002D02*
X150281629Y-107918371D01*
X150281629Y-108599695D02*
X145514801Y-113366523D01*
X145457528Y-113366523D02*
X145207529Y-113616522D01*
X137160000Y-113030000D02*
X138009999Y-112180001D01*
X141088293Y-112180001D02*
X141224782Y-112316490D01*
X138009999Y-112180001D02*
X141088293Y-112180001D01*
D16*
G36*
X158799718Y-116222254D02*
G01*
X158950414Y-116447787D01*
X159142213Y-116639586D01*
X159367746Y-116790282D01*
X159487776Y-116840000D01*
X159367746Y-116889718D01*
X159142213Y-117040414D01*
X158950414Y-117232213D01*
X158799718Y-117457746D01*
X158695917Y-117708344D01*
X158643000Y-117974377D01*
X158643000Y-118245623D01*
X158695917Y-118511656D01*
X158799718Y-118762254D01*
X158950414Y-118987787D01*
X159142213Y-119179586D01*
X159367746Y-119330282D01*
X159487776Y-119380000D01*
X159367746Y-119429718D01*
X159142213Y-119580414D01*
X158950414Y-119772213D01*
X158799718Y-119997746D01*
X158695917Y-120248344D01*
X158643000Y-120514377D01*
X158643000Y-120785623D01*
X158695917Y-121051656D01*
X158799718Y-121302254D01*
X158950414Y-121527787D01*
X159142213Y-121719586D01*
X159367746Y-121870282D01*
X159487776Y-121920000D01*
X159367746Y-121969718D01*
X159142213Y-122120414D01*
X158950414Y-122312213D01*
X158799718Y-122537746D01*
X158695917Y-122788344D01*
X158643000Y-123054377D01*
X158643000Y-123325623D01*
X158695917Y-123591656D01*
X158799718Y-123842254D01*
X158950414Y-124067787D01*
X159142213Y-124259586D01*
X159367746Y-124410282D01*
X159487776Y-124460000D01*
X159367746Y-124509718D01*
X159142213Y-124660414D01*
X158950414Y-124852213D01*
X158799718Y-125077746D01*
X158695917Y-125328344D01*
X158643000Y-125594377D01*
X158643000Y-125865623D01*
X158695917Y-126131656D01*
X158799718Y-126382254D01*
X158950414Y-126607787D01*
X159142213Y-126799586D01*
X159367746Y-126950282D01*
X159487776Y-127000000D01*
X159367746Y-127049718D01*
X159142213Y-127200414D01*
X158950414Y-127392213D01*
X158799718Y-127617746D01*
X158695917Y-127868344D01*
X158643000Y-128134377D01*
X158643000Y-128405623D01*
X158695917Y-128671656D01*
X158799718Y-128922254D01*
X158950414Y-129147787D01*
X159142213Y-129339586D01*
X159358308Y-129483975D01*
X159138645Y-129614822D01*
X158922412Y-129809731D01*
X158748359Y-130043080D01*
X158623175Y-130305901D01*
X158578524Y-130453110D01*
X158699845Y-130683000D01*
X159893000Y-130683000D01*
X159893000Y-130663000D01*
X160147000Y-130663000D01*
X160147000Y-130683000D01*
X160167000Y-130683000D01*
X160167000Y-130937000D01*
X160147000Y-130937000D01*
X160147000Y-132130814D01*
X160376891Y-132251481D01*
X160651252Y-132154157D01*
X160901355Y-132005178D01*
X160948001Y-131963132D01*
X160948001Y-132448000D01*
X136052000Y-132448000D01*
X136052000Y-131630296D01*
X136090414Y-131687787D01*
X136282213Y-131879586D01*
X136507746Y-132030282D01*
X136758344Y-132134083D01*
X137024377Y-132187000D01*
X137295623Y-132187000D01*
X137561656Y-132134083D01*
X137812254Y-132030282D01*
X138037787Y-131879586D01*
X138229586Y-131687787D01*
X138380282Y-131462254D01*
X138484083Y-131211656D01*
X138492987Y-131166890D01*
X158578524Y-131166890D01*
X158623175Y-131314099D01*
X158748359Y-131576920D01*
X158922412Y-131810269D01*
X159138645Y-132005178D01*
X159388748Y-132154157D01*
X159663109Y-132251481D01*
X159893000Y-132130814D01*
X159893000Y-130937000D01*
X158699845Y-130937000D01*
X158578524Y-131166890D01*
X138492987Y-131166890D01*
X138537000Y-130945623D01*
X138537000Y-130674377D01*
X138484083Y-130408344D01*
X138483977Y-130408089D01*
X140683594Y-128208472D01*
X143838000Y-128208472D01*
X143838000Y-128361528D01*
X143867859Y-128511643D01*
X143926431Y-128653048D01*
X143967298Y-128714209D01*
X143972435Y-128766367D01*
X144009717Y-128889270D01*
X144070259Y-129002537D01*
X144151737Y-129101817D01*
X144176614Y-129122233D01*
X145092767Y-130038387D01*
X145113183Y-130063264D01*
X145212463Y-130144741D01*
X145325730Y-130205283D01*
X145448632Y-130242565D01*
X145461274Y-130243810D01*
X145544425Y-130252000D01*
X145544432Y-130252000D01*
X145576446Y-130255153D01*
X145608461Y-130252000D01*
X151741485Y-130252000D01*
X151828395Y-130256285D01*
X151888711Y-130253333D01*
X151909633Y-130255083D01*
X151952706Y-130250200D01*
X151963862Y-130249654D01*
X151979771Y-130247297D01*
X152027814Y-130242565D01*
X152032443Y-130241161D01*
X152037249Y-130240616D01*
X152047959Y-130237194D01*
X152059078Y-130235547D01*
X152104516Y-130219298D01*
X152150717Y-130205283D01*
X152154984Y-130203002D01*
X152159589Y-130201531D01*
X152169427Y-130196085D01*
X152180011Y-130192300D01*
X152221401Y-130167502D01*
X152263984Y-130144741D01*
X152267728Y-130141668D01*
X152271954Y-130139329D01*
X152280536Y-130132072D01*
X152290182Y-130126293D01*
X152325942Y-130093893D01*
X152363264Y-130063264D01*
X152373458Y-130050842D01*
X152385360Y-130040059D01*
X152397866Y-130023202D01*
X154350947Y-128011822D01*
X154404643Y-128001141D01*
X154546048Y-127942569D01*
X154673309Y-127857536D01*
X154781536Y-127749309D01*
X154866569Y-127622048D01*
X154925141Y-127480643D01*
X154955000Y-127330528D01*
X154955000Y-127177472D01*
X154925141Y-127027357D01*
X154866569Y-126885952D01*
X154781536Y-126758691D01*
X154673309Y-126650464D01*
X154546048Y-126565431D01*
X154469000Y-126533517D01*
X154469000Y-124139777D01*
X154505569Y-124085048D01*
X154564141Y-123943643D01*
X154594000Y-123793528D01*
X154594000Y-123640472D01*
X154564141Y-123490357D01*
X154505569Y-123348952D01*
X154420536Y-123221691D01*
X154312309Y-123113464D01*
X154185048Y-123028431D01*
X154043643Y-122969859D01*
X153893528Y-122940000D01*
X153740472Y-122940000D01*
X153590357Y-122969859D01*
X153448952Y-123028431D01*
X153321691Y-123113464D01*
X153213464Y-123221691D01*
X153128431Y-123348952D01*
X153069859Y-123490357D01*
X153040000Y-123640472D01*
X153040000Y-123793528D01*
X153069859Y-123943643D01*
X153128431Y-124085048D01*
X153165000Y-124139778D01*
X153165001Y-126860968D01*
X153161846Y-126893000D01*
X153174435Y-127020814D01*
X153211717Y-127143716D01*
X153211718Y-127143717D01*
X153270144Y-127253026D01*
X151624300Y-128948000D01*
X145846514Y-128948000D01*
X145370107Y-128471594D01*
X145392000Y-128361528D01*
X145392000Y-128208472D01*
X145362141Y-128058357D01*
X145303569Y-127916952D01*
X145218536Y-127789691D01*
X145110309Y-127681464D01*
X144983048Y-127596431D01*
X144841643Y-127537859D01*
X144691528Y-127508000D01*
X144538472Y-127508000D01*
X144388357Y-127537859D01*
X144246952Y-127596431D01*
X144119691Y-127681464D01*
X144011464Y-127789691D01*
X143926431Y-127916952D01*
X143867859Y-128058357D01*
X143838000Y-128208472D01*
X140683594Y-128208472D01*
X147499288Y-121392779D01*
X147524164Y-121372364D01*
X147605641Y-121273084D01*
X147666183Y-121159817D01*
X147680305Y-121113263D01*
X147703465Y-121036915D01*
X147716054Y-120909101D01*
X147712900Y-120877079D01*
X147712900Y-119587787D01*
X147714014Y-119589144D01*
X147738897Y-119609565D01*
X149282319Y-121152988D01*
X149302735Y-121177865D01*
X149402015Y-121259342D01*
X149515282Y-121319884D01*
X149576734Y-121338525D01*
X149638184Y-121357166D01*
X149765999Y-121369755D01*
X149798021Y-121366601D01*
X150569589Y-121366601D01*
X150601611Y-121369755D01*
X150633633Y-121366601D01*
X150729425Y-121357166D01*
X150852328Y-121319884D01*
X150965595Y-121259342D01*
X151064875Y-121177865D01*
X151085296Y-121152982D01*
X151416992Y-120821286D01*
X151441875Y-120800865D01*
X151523352Y-120701585D01*
X151583894Y-120588318D01*
X151621176Y-120465415D01*
X151627505Y-120401154D01*
X151633765Y-120337601D01*
X151630611Y-120305579D01*
X151630611Y-120207957D01*
X153323600Y-118514968D01*
X153383964Y-118605309D01*
X153492191Y-118713536D01*
X153619452Y-118798569D01*
X153760857Y-118857141D01*
X153910972Y-118887000D01*
X154064028Y-118887000D01*
X154214143Y-118857141D01*
X154355548Y-118798569D01*
X154410111Y-118762111D01*
X154441002Y-118765154D01*
X154473024Y-118762000D01*
X154568816Y-118752565D01*
X154691719Y-118715283D01*
X154804986Y-118654741D01*
X154904266Y-118573264D01*
X154924687Y-118548381D01*
X157251069Y-116222000D01*
X158799613Y-116222000D01*
X158799718Y-116222254D01*
G37*
X158799718Y-116222254D02*
X158950414Y-116447787D01*
X159142213Y-116639586D01*
X159367746Y-116790282D01*
X159487776Y-116840000D01*
X159367746Y-116889718D01*
X159142213Y-117040414D01*
X158950414Y-117232213D01*
X158799718Y-117457746D01*
X158695917Y-117708344D01*
X158643000Y-117974377D01*
X158643000Y-118245623D01*
X158695917Y-118511656D01*
X158799718Y-118762254D01*
X158950414Y-118987787D01*
X159142213Y-119179586D01*
X159367746Y-119330282D01*
X159487776Y-119380000D01*
X159367746Y-119429718D01*
X159142213Y-119580414D01*
X158950414Y-119772213D01*
X158799718Y-119997746D01*
X158695917Y-120248344D01*
X158643000Y-120514377D01*
X158643000Y-120785623D01*
X158695917Y-121051656D01*
X158799718Y-121302254D01*
X158950414Y-121527787D01*
X159142213Y-121719586D01*
X159367746Y-121870282D01*
X159487776Y-121920000D01*
X159367746Y-121969718D01*
X159142213Y-122120414D01*
X158950414Y-122312213D01*
X158799718Y-122537746D01*
X158695917Y-122788344D01*
X158643000Y-123054377D01*
X158643000Y-123325623D01*
X158695917Y-123591656D01*
X158799718Y-123842254D01*
X158950414Y-124067787D01*
X159142213Y-124259586D01*
X159367746Y-124410282D01*
X159487776Y-124460000D01*
X159367746Y-124509718D01*
X159142213Y-124660414D01*
X158950414Y-124852213D01*
X158799718Y-125077746D01*
X158695917Y-125328344D01*
X158643000Y-125594377D01*
X158643000Y-125865623D01*
X158695917Y-126131656D01*
X158799718Y-126382254D01*
X158950414Y-126607787D01*
X159142213Y-126799586D01*
X159367746Y-126950282D01*
X159487776Y-127000000D01*
X159367746Y-127049718D01*
X159142213Y-127200414D01*
X158950414Y-127392213D01*
X158799718Y-127617746D01*
X158695917Y-127868344D01*
X158643000Y-128134377D01*
X158643000Y-128405623D01*
X158695917Y-128671656D01*
X158799718Y-128922254D01*
X158950414Y-129147787D01*
X159142213Y-129339586D01*
X159358308Y-129483975D01*
X159138645Y-129614822D01*
X158922412Y-129809731D01*
X158748359Y-130043080D01*
X158623175Y-130305901D01*
X158578524Y-130453110D01*
X158699845Y-130683000D01*
X159893000Y-130683000D01*
X159893000Y-130663000D01*
X160147000Y-130663000D01*
X160147000Y-130683000D01*
X160167000Y-130683000D01*
X160167000Y-130937000D01*
X160147000Y-130937000D01*
X160147000Y-132130814D01*
X160376891Y-132251481D01*
X160651252Y-132154157D01*
X160901355Y-132005178D01*
X160948001Y-131963132D01*
X160948001Y-132448000D01*
X136052000Y-132448000D01*
X136052000Y-131630296D01*
X136090414Y-131687787D01*
X136282213Y-131879586D01*
X136507746Y-132030282D01*
X136758344Y-132134083D01*
X137024377Y-132187000D01*
X137295623Y-132187000D01*
X137561656Y-132134083D01*
X137812254Y-132030282D01*
X138037787Y-131879586D01*
X138229586Y-131687787D01*
X138380282Y-131462254D01*
X138484083Y-131211656D01*
X138492987Y-131166890D01*
X158578524Y-131166890D01*
X158623175Y-131314099D01*
X158748359Y-131576920D01*
X158922412Y-131810269D01*
X159138645Y-132005178D01*
X159388748Y-132154157D01*
X159663109Y-132251481D01*
X159893000Y-132130814D01*
X159893000Y-130937000D01*
X158699845Y-130937000D01*
X158578524Y-131166890D01*
X138492987Y-131166890D01*
X138537000Y-130945623D01*
X138537000Y-130674377D01*
X138484083Y-130408344D01*
X138483977Y-130408089D01*
X140683594Y-128208472D01*
X143838000Y-128208472D01*
X143838000Y-128361528D01*
X143867859Y-128511643D01*
X143926431Y-128653048D01*
X143967298Y-128714209D01*
X143972435Y-128766367D01*
X144009717Y-128889270D01*
X144070259Y-129002537D01*
X144151737Y-129101817D01*
X144176614Y-129122233D01*
X145092767Y-130038387D01*
X145113183Y-130063264D01*
X145212463Y-130144741D01*
X145325730Y-130205283D01*
X145448632Y-130242565D01*
X145461274Y-130243810D01*
X145544425Y-130252000D01*
X145544432Y-130252000D01*
X145576446Y-130255153D01*
X145608461Y-130252000D01*
X151741485Y-130252000D01*
X151828395Y-130256285D01*
X151888711Y-130253333D01*
X151909633Y-130255083D01*
X151952706Y-130250200D01*
X151963862Y-130249654D01*
X151979771Y-130247297D01*
X152027814Y-130242565D01*
X152032443Y-130241161D01*
X152037249Y-130240616D01*
X152047959Y-130237194D01*
X152059078Y-130235547D01*
X152104516Y-130219298D01*
X152150717Y-130205283D01*
X152154984Y-130203002D01*
X152159589Y-130201531D01*
X152169427Y-130196085D01*
X152180011Y-130192300D01*
X152221401Y-130167502D01*
X152263984Y-130144741D01*
X152267728Y-130141668D01*
X152271954Y-130139329D01*
X152280536Y-130132072D01*
X152290182Y-130126293D01*
X152325942Y-130093893D01*
X152363264Y-130063264D01*
X152373458Y-130050842D01*
X152385360Y-130040059D01*
X152397866Y-130023202D01*
X154350947Y-128011822D01*
X154404643Y-128001141D01*
X154546048Y-127942569D01*
X154673309Y-127857536D01*
X154781536Y-127749309D01*
X154866569Y-127622048D01*
X154925141Y-127480643D01*
X154955000Y-127330528D01*
X154955000Y-127177472D01*
X154925141Y-127027357D01*
X154866569Y-126885952D01*
X154781536Y-126758691D01*
X154673309Y-126650464D01*
X154546048Y-126565431D01*
X154469000Y-126533517D01*
X154469000Y-124139777D01*
X154505569Y-124085048D01*
X154564141Y-123943643D01*
X154594000Y-123793528D01*
X154594000Y-123640472D01*
X154564141Y-123490357D01*
X154505569Y-123348952D01*
X154420536Y-123221691D01*
X154312309Y-123113464D01*
X154185048Y-123028431D01*
X154043643Y-122969859D01*
X153893528Y-122940000D01*
X153740472Y-122940000D01*
X153590357Y-122969859D01*
X153448952Y-123028431D01*
X153321691Y-123113464D01*
X153213464Y-123221691D01*
X153128431Y-123348952D01*
X153069859Y-123490357D01*
X153040000Y-123640472D01*
X153040000Y-123793528D01*
X153069859Y-123943643D01*
X153128431Y-124085048D01*
X153165000Y-124139778D01*
X153165001Y-126860968D01*
X153161846Y-126893000D01*
X153174435Y-127020814D01*
X153211717Y-127143716D01*
X153211718Y-127143717D01*
X153270144Y-127253026D01*
X151624300Y-128948000D01*
X145846514Y-128948000D01*
X145370107Y-128471594D01*
X145392000Y-128361528D01*
X145392000Y-128208472D01*
X145362141Y-128058357D01*
X145303569Y-127916952D01*
X145218536Y-127789691D01*
X145110309Y-127681464D01*
X144983048Y-127596431D01*
X144841643Y-127537859D01*
X144691528Y-127508000D01*
X144538472Y-127508000D01*
X144388357Y-127537859D01*
X144246952Y-127596431D01*
X144119691Y-127681464D01*
X144011464Y-127789691D01*
X143926431Y-127916952D01*
X143867859Y-128058357D01*
X143838000Y-128208472D01*
X140683594Y-128208472D01*
X147499288Y-121392779D01*
X147524164Y-121372364D01*
X147605641Y-121273084D01*
X147666183Y-121159817D01*
X147680305Y-121113263D01*
X147703465Y-121036915D01*
X147716054Y-120909101D01*
X147712900Y-120877079D01*
X147712900Y-119587787D01*
X147714014Y-119589144D01*
X147738897Y-119609565D01*
X149282319Y-121152988D01*
X149302735Y-121177865D01*
X149402015Y-121259342D01*
X149515282Y-121319884D01*
X149576734Y-121338525D01*
X149638184Y-121357166D01*
X149765999Y-121369755D01*
X149798021Y-121366601D01*
X150569589Y-121366601D01*
X150601611Y-121369755D01*
X150633633Y-121366601D01*
X150729425Y-121357166D01*
X150852328Y-121319884D01*
X150965595Y-121259342D01*
X151064875Y-121177865D01*
X151085296Y-121152982D01*
X151416992Y-120821286D01*
X151441875Y-120800865D01*
X151523352Y-120701585D01*
X151583894Y-120588318D01*
X151621176Y-120465415D01*
X151627505Y-120401154D01*
X151633765Y-120337601D01*
X151630611Y-120305579D01*
X151630611Y-120207957D01*
X153323600Y-118514968D01*
X153383964Y-118605309D01*
X153492191Y-118713536D01*
X153619452Y-118798569D01*
X153760857Y-118857141D01*
X153910972Y-118887000D01*
X154064028Y-118887000D01*
X154214143Y-118857141D01*
X154355548Y-118798569D01*
X154410111Y-118762111D01*
X154441002Y-118765154D01*
X154473024Y-118762000D01*
X154568816Y-118752565D01*
X154691719Y-118715283D01*
X154804986Y-118654741D01*
X154904266Y-118573264D01*
X154924687Y-118548381D01*
X157251069Y-116222000D01*
X158799613Y-116222000D01*
X158799718Y-116222254D01*
G36*
X146408900Y-120639033D02*
G01*
X138510851Y-128537083D01*
X138537000Y-128405623D01*
X138537000Y-128134377D01*
X138484083Y-127868344D01*
X138483977Y-127868089D01*
X138773389Y-127578678D01*
X138798265Y-127558263D01*
X138879742Y-127458983D01*
X138940284Y-127345716D01*
X138944891Y-127330528D01*
X138977566Y-127222814D01*
X138982032Y-127177472D01*
X138987001Y-127127021D01*
X138987001Y-127127014D01*
X138990154Y-127095000D01*
X138987001Y-127062985D01*
X138987001Y-125145386D01*
X146408901Y-117723487D01*
X146408900Y-120639033D01*
G37*
X146408900Y-120639033D02*
X138510851Y-128537083D01*
X138537000Y-128405623D01*
X138537000Y-128134377D01*
X138484083Y-127868344D01*
X138483977Y-127868089D01*
X138773389Y-127578678D01*
X138798265Y-127558263D01*
X138879742Y-127458983D01*
X138940284Y-127345716D01*
X138944891Y-127330528D01*
X138977566Y-127222814D01*
X138982032Y-127177472D01*
X138987001Y-127127021D01*
X138987001Y-127127014D01*
X138990154Y-127095000D01*
X138987001Y-127062985D01*
X138987001Y-125145386D01*
X146408901Y-117723487D01*
X146408900Y-120639033D01*
G36*
X138898022Y-119998000D02*
G01*
X138380387Y-119998000D01*
X138380282Y-119997746D01*
X138229586Y-119772213D01*
X138037787Y-119580414D01*
X137812254Y-119429718D01*
X137692224Y-119380000D01*
X137812254Y-119330282D01*
X138037787Y-119179586D01*
X138229586Y-118987787D01*
X138380282Y-118762254D01*
X138380387Y-118762000D01*
X139858478Y-118762000D01*
X139890500Y-118765154D01*
X139922522Y-118762000D01*
X140018314Y-118752565D01*
X140141217Y-118715283D01*
X140226120Y-118669902D01*
X138898022Y-119998000D01*
G37*
X138898022Y-119998000D02*
X138380387Y-119998000D01*
X138380282Y-119997746D01*
X138229586Y-119772213D01*
X138037787Y-119580414D01*
X137812254Y-119429718D01*
X137692224Y-119380000D01*
X137812254Y-119330282D01*
X138037787Y-119179586D01*
X138229586Y-118987787D01*
X138380282Y-118762254D01*
X138380387Y-118762000D01*
X139858478Y-118762000D01*
X139890500Y-118765154D01*
X139922522Y-118762000D01*
X140018314Y-118752565D01*
X140141217Y-118715283D01*
X140226120Y-118669902D01*
X138898022Y-119998000D01*
G36*
X143329676Y-113748757D02*
G01*
X139620434Y-117458000D01*
X138380387Y-117458000D01*
X138380282Y-117457746D01*
X138229586Y-117232213D01*
X138037787Y-117040414D01*
X137812254Y-116889718D01*
X137692224Y-116840000D01*
X137812254Y-116790282D01*
X138037787Y-116639586D01*
X138229586Y-116447787D01*
X138380282Y-116222254D01*
X138484083Y-115971656D01*
X138537000Y-115705623D01*
X138537000Y-115434377D01*
X138501707Y-115256945D01*
X138526553Y-115236555D01*
X138617402Y-115125854D01*
X138684909Y-114999558D01*
X138709726Y-114917746D01*
X138726479Y-114862519D01*
X138740516Y-114720002D01*
X138736999Y-114684294D01*
X138736999Y-114441133D01*
X139484633Y-113693500D01*
X143246976Y-113693500D01*
X143329676Y-113748757D01*
G37*
X143329676Y-113748757D02*
X139620434Y-117458000D01*
X138380387Y-117458000D01*
X138380282Y-117457746D01*
X138229586Y-117232213D01*
X138037787Y-117040414D01*
X137812254Y-116889718D01*
X137692224Y-116840000D01*
X137812254Y-116790282D01*
X138037787Y-116639586D01*
X138229586Y-116447787D01*
X138380282Y-116222254D01*
X138484083Y-115971656D01*
X138537000Y-115705623D01*
X138537000Y-115434377D01*
X138501707Y-115256945D01*
X138526553Y-115236555D01*
X138617402Y-115125854D01*
X138684909Y-114999558D01*
X138709726Y-114917746D01*
X138726479Y-114862519D01*
X138740516Y-114720002D01*
X138736999Y-114684294D01*
X138736999Y-114441133D01*
X139484633Y-113693500D01*
X143246976Y-113693500D01*
X143329676Y-113748757D01*
G36*
X158695917Y-113431656D02*
G01*
X158799718Y-113682254D01*
X158950414Y-113907787D01*
X159142213Y-114099586D01*
X159367746Y-114250282D01*
X159487776Y-114300000D01*
X159367746Y-114349718D01*
X159142213Y-114500414D01*
X158950414Y-114692213D01*
X158799718Y-114917746D01*
X158799613Y-114918000D01*
X157356021Y-114918000D01*
X157347141Y-114873357D01*
X157288569Y-114731952D01*
X157215689Y-114622879D01*
X158647968Y-113190600D01*
X158695917Y-113431656D01*
G37*
X158695917Y-113431656D02*
X158799718Y-113682254D01*
X158950414Y-113907787D01*
X159142213Y-114099586D01*
X159367746Y-114250282D01*
X159487776Y-114300000D01*
X159367746Y-114349718D01*
X159142213Y-114500414D01*
X158950414Y-114692213D01*
X158799718Y-114917746D01*
X158799613Y-114918000D01*
X157356021Y-114918000D01*
X157347141Y-114873357D01*
X157288569Y-114731952D01*
X157215689Y-114622879D01*
X158647968Y-113190600D01*
X158695917Y-113431656D01*
G36*
X144834358Y-111579801D02*
G01*
X144522904Y-111579801D01*
X144487198Y-111576284D01*
X144451493Y-111579801D01*
X144451491Y-111579801D01*
X144344682Y-111590321D01*
X144207642Y-111631891D01*
X144081346Y-111699398D01*
X143970645Y-111790247D01*
X143947878Y-111817990D01*
X143723926Y-112041941D01*
X143557104Y-112075124D01*
X143388401Y-112145004D01*
X143246976Y-112239500D01*
X142001690Y-112239500D01*
X141971923Y-112089847D01*
X141913351Y-111948442D01*
X141828318Y-111821181D01*
X141720091Y-111712954D01*
X141592830Y-111627921D01*
X141451425Y-111569349D01*
X141301310Y-111539490D01*
X141222878Y-111539490D01*
X141216107Y-111537436D01*
X141120315Y-111528001D01*
X141088293Y-111524847D01*
X141056271Y-111528001D01*
X138069372Y-111528001D01*
X138229586Y-111367787D01*
X138380282Y-111142254D01*
X138380387Y-111142000D01*
X145272159Y-111142000D01*
X144834358Y-111579801D01*
G37*
X144834358Y-111579801D02*
X144522904Y-111579801D01*
X144487198Y-111576284D01*
X144451493Y-111579801D01*
X144451491Y-111579801D01*
X144344682Y-111590321D01*
X144207642Y-111631891D01*
X144081346Y-111699398D01*
X143970645Y-111790247D01*
X143947878Y-111817990D01*
X143723926Y-112041941D01*
X143557104Y-112075124D01*
X143388401Y-112145004D01*
X143246976Y-112239500D01*
X142001690Y-112239500D01*
X141971923Y-112089847D01*
X141913351Y-111948442D01*
X141828318Y-111821181D01*
X141720091Y-111712954D01*
X141592830Y-111627921D01*
X141451425Y-111569349D01*
X141301310Y-111539490D01*
X141222878Y-111539490D01*
X141216107Y-111537436D01*
X141120315Y-111528001D01*
X141088293Y-111524847D01*
X141056271Y-111528001D01*
X138069372Y-111528001D01*
X138229586Y-111367787D01*
X138380282Y-111142254D01*
X138380387Y-111142000D01*
X145272159Y-111142000D01*
X144834358Y-111579801D01*
G36*
X154280624Y-110639911D02*
G01*
X153951135Y-110969401D01*
X153789514Y-110969401D01*
X153789514Y-110853117D01*
X153778240Y-110796438D01*
X153781041Y-110793025D01*
X154280624Y-110293442D01*
X154280624Y-110639911D01*
G37*
X154280624Y-110639911D02*
X153951135Y-110969401D01*
X153789514Y-110969401D01*
X153789514Y-110853117D01*
X153778240Y-110796438D01*
X153781041Y-110793025D01*
X154280624Y-110293442D01*
X154280624Y-110639911D01*
G36*
X158950414Y-101992213D02*
G01*
X158799718Y-102217746D01*
X158695917Y-102468344D01*
X158643000Y-102734377D01*
X158643000Y-103005623D01*
X158695639Y-103270258D01*
X158625260Y-103356016D01*
X158569315Y-103460683D01*
X158564718Y-103469283D01*
X158527436Y-103592185D01*
X158514847Y-103719999D01*
X158518001Y-103752021D01*
X158518001Y-104211932D01*
X153620181Y-109109753D01*
X153575037Y-109042191D01*
X153466810Y-108933964D01*
X153339549Y-108848931D01*
X153198144Y-108790359D01*
X153048029Y-108760500D01*
X152894973Y-108760500D01*
X152744858Y-108790359D01*
X152698365Y-108809617D01*
X152673399Y-108784651D01*
X152546138Y-108699618D01*
X152404733Y-108641046D01*
X152254618Y-108611187D01*
X152220609Y-108611187D01*
X158999798Y-101831999D01*
X159110628Y-101831999D01*
X158950414Y-101992213D01*
G37*
X158950414Y-101992213D02*
X158799718Y-102217746D01*
X158695917Y-102468344D01*
X158643000Y-102734377D01*
X158643000Y-103005623D01*
X158695639Y-103270258D01*
X158625260Y-103356016D01*
X158569315Y-103460683D01*
X158564718Y-103469283D01*
X158527436Y-103592185D01*
X158514847Y-103719999D01*
X158518001Y-103752021D01*
X158518001Y-104211932D01*
X153620181Y-109109753D01*
X153575037Y-109042191D01*
X153466810Y-108933964D01*
X153339549Y-108848931D01*
X153198144Y-108790359D01*
X153048029Y-108760500D01*
X152894973Y-108760500D01*
X152744858Y-108790359D01*
X152698365Y-108809617D01*
X152673399Y-108784651D01*
X152546138Y-108699618D01*
X152404733Y-108641046D01*
X152254618Y-108611187D01*
X152220609Y-108611187D01*
X158999798Y-101831999D01*
X159110628Y-101831999D01*
X158950414Y-101992213D01*
G36*
X160948000Y-91338133D02*
G01*
X160870000Y-91330451D01*
X159170000Y-91330451D01*
X159066690Y-91340626D01*
X158967350Y-91370761D01*
X158875798Y-91419696D01*
X158795552Y-91485552D01*
X158729696Y-91565798D01*
X158680761Y-91657350D01*
X158650626Y-91756690D01*
X158640451Y-91860000D01*
X158640451Y-91983000D01*
X157827393Y-91983000D01*
X157791685Y-91979483D01*
X157649167Y-91993520D01*
X157572650Y-92016731D01*
X157512128Y-92035090D01*
X157385832Y-92102597D01*
X157275131Y-92193446D01*
X157252368Y-92221183D01*
X152528495Y-96945058D01*
X152416396Y-96898624D01*
X152237301Y-96863000D01*
X152054699Y-96863000D01*
X151875604Y-96898624D01*
X151706901Y-96968504D01*
X151555072Y-97069952D01*
X151425952Y-97199072D01*
X151324504Y-97350901D01*
X151254624Y-97519604D01*
X151219000Y-97698699D01*
X151219000Y-97881301D01*
X151254624Y-98060396D01*
X151324504Y-98229099D01*
X151425952Y-98380928D01*
X151555072Y-98510048D01*
X151706901Y-98611496D01*
X151875604Y-98681376D01*
X152054699Y-98717000D01*
X152138433Y-98717000D01*
X147832017Y-103023417D01*
X147774416Y-103034874D01*
X147633865Y-103093092D01*
X147569996Y-102938901D01*
X147468548Y-102787072D01*
X147339428Y-102657952D01*
X147187599Y-102556504D01*
X147018896Y-102486624D01*
X146904000Y-102463770D01*
X146904000Y-99940580D01*
X146907517Y-99904872D01*
X146893480Y-99762354D01*
X146851910Y-99625315D01*
X146826497Y-99577771D01*
X146784403Y-99499019D01*
X146693554Y-99388318D01*
X146665812Y-99365551D01*
X145699549Y-98399289D01*
X145666366Y-98232466D01*
X145596486Y-98063763D01*
X145495038Y-97911934D01*
X145365918Y-97782814D01*
X145214089Y-97681366D01*
X145045386Y-97611486D01*
X144866291Y-97575862D01*
X144683689Y-97575862D01*
X144504594Y-97611486D01*
X144335891Y-97681366D01*
X144184062Y-97782814D01*
X144054942Y-97911934D01*
X143953494Y-98063763D01*
X143883614Y-98232466D01*
X143847990Y-98411561D01*
X143847990Y-98594163D01*
X143883614Y-98773258D01*
X143953494Y-98941961D01*
X144054942Y-99093790D01*
X144184062Y-99222910D01*
X144335891Y-99324358D01*
X144504594Y-99394238D01*
X144671417Y-99427421D01*
X145450001Y-100206006D01*
X145450000Y-103913792D01*
X145446483Y-103949500D01*
X145450000Y-103985208D01*
X145450000Y-104047829D01*
X145446619Y-104090620D01*
X145454191Y-104154763D01*
X145460520Y-104219016D01*
X145462578Y-104225800D01*
X145463409Y-104232840D01*
X145483344Y-104294259D01*
X145502090Y-104356056D01*
X145505432Y-104362308D01*
X145507620Y-104369050D01*
X145539158Y-104425405D01*
X145569597Y-104482352D01*
X145574094Y-104487831D01*
X145577556Y-104494018D01*
X145619464Y-104543116D01*
X145660446Y-104593053D01*
X145693633Y-104620289D01*
X148073001Y-106909400D01*
X148073001Y-107612644D01*
X148045016Y-107607078D01*
X147891960Y-107607078D01*
X147741845Y-107636937D01*
X147600440Y-107695509D01*
X147473179Y-107780542D01*
X147364952Y-107888769D01*
X147279919Y-108016030D01*
X147257210Y-108070855D01*
X147177053Y-108037653D01*
X147026938Y-108007794D01*
X146873882Y-108007794D01*
X146723767Y-108037653D01*
X146582362Y-108096225D01*
X146455101Y-108181258D01*
X146358959Y-108277400D01*
X146340883Y-108273805D01*
X143038696Y-104971619D01*
X143018275Y-104946736D01*
X142918995Y-104865259D01*
X142805728Y-104804717D01*
X142682825Y-104767435D01*
X142587033Y-104758000D01*
X142555011Y-104754846D01*
X142522989Y-104758000D01*
X138380387Y-104758000D01*
X138380282Y-104757746D01*
X138229586Y-104532213D01*
X138037787Y-104340414D01*
X137812254Y-104189718D01*
X137692224Y-104140000D01*
X137812254Y-104090282D01*
X138037787Y-103939586D01*
X138229586Y-103747787D01*
X138380282Y-103522254D01*
X138484083Y-103271656D01*
X138537000Y-103005623D01*
X138537000Y-102734377D01*
X138484083Y-102468344D01*
X138380282Y-102217746D01*
X138229586Y-101992213D01*
X138037787Y-101800414D01*
X137812254Y-101649718D01*
X137692224Y-101600000D01*
X137812254Y-101550282D01*
X138037787Y-101399586D01*
X138229586Y-101207787D01*
X138380282Y-100982254D01*
X138484083Y-100731656D01*
X138537000Y-100465623D01*
X138537000Y-100194377D01*
X138484083Y-99928344D01*
X138380282Y-99677746D01*
X138229586Y-99452213D01*
X138037787Y-99260414D01*
X137812254Y-99109718D01*
X137692224Y-99060000D01*
X137812254Y-99010282D01*
X138037787Y-98859586D01*
X138229586Y-98667787D01*
X138380282Y-98442254D01*
X138484083Y-98191656D01*
X138537000Y-97925623D01*
X138537000Y-97654377D01*
X138484083Y-97388344D01*
X138380282Y-97137746D01*
X138229586Y-96912213D01*
X138037787Y-96720414D01*
X137812254Y-96569718D01*
X137692224Y-96520000D01*
X137812254Y-96470282D01*
X138037787Y-96319586D01*
X138229586Y-96127787D01*
X138380282Y-95902254D01*
X138484083Y-95651656D01*
X138537000Y-95385623D01*
X138537000Y-95114377D01*
X138484083Y-94848344D01*
X138380282Y-94597746D01*
X138229586Y-94372213D01*
X138051370Y-94193997D01*
X138134482Y-94185812D01*
X138254180Y-94149502D01*
X138364494Y-94090537D01*
X138461185Y-94011185D01*
X138540537Y-93914494D01*
X138599502Y-93804180D01*
X138635812Y-93684482D01*
X138648072Y-93560000D01*
X138645000Y-92995750D01*
X138486250Y-92837000D01*
X137287000Y-92837000D01*
X137287000Y-92857000D01*
X137033000Y-92857000D01*
X137033000Y-92837000D01*
X137013000Y-92837000D01*
X137013000Y-92583000D01*
X137033000Y-92583000D01*
X137033000Y-91383750D01*
X137287000Y-91383750D01*
X137287000Y-92583000D01*
X138486250Y-92583000D01*
X138645000Y-92424250D01*
X138648072Y-91860000D01*
X138635812Y-91735518D01*
X138599502Y-91615820D01*
X138560872Y-91543548D01*
X145773000Y-91543548D01*
X145773000Y-91706452D01*
X145804782Y-91866227D01*
X145867123Y-92016731D01*
X145957628Y-92152181D01*
X146072819Y-92267372D01*
X146208269Y-92357877D01*
X146358773Y-92420218D01*
X146518548Y-92452000D01*
X146681452Y-92452000D01*
X146841227Y-92420218D01*
X146991731Y-92357877D01*
X147127181Y-92267372D01*
X147242372Y-92152181D01*
X147332877Y-92016731D01*
X147395218Y-91866227D01*
X147427000Y-91706452D01*
X147427000Y-91543548D01*
X149773000Y-91543548D01*
X149773000Y-91706452D01*
X149804782Y-91866227D01*
X149867123Y-92016731D01*
X149957628Y-92152181D01*
X150072819Y-92267372D01*
X150208269Y-92357877D01*
X150358773Y-92420218D01*
X150518548Y-92452000D01*
X150681452Y-92452000D01*
X150841227Y-92420218D01*
X150991731Y-92357877D01*
X151127181Y-92267372D01*
X151242372Y-92152181D01*
X151332877Y-92016731D01*
X151395218Y-91866227D01*
X151427000Y-91706452D01*
X151427000Y-91543548D01*
X151395218Y-91383773D01*
X151332877Y-91233269D01*
X151242372Y-91097819D01*
X151127181Y-90982628D01*
X150991731Y-90892123D01*
X150841227Y-90829782D01*
X150681452Y-90798000D01*
X150518548Y-90798000D01*
X150358773Y-90829782D01*
X150208269Y-90892123D01*
X150072819Y-90982628D01*
X149957628Y-91097819D01*
X149867123Y-91233269D01*
X149804782Y-91383773D01*
X149773000Y-91543548D01*
X147427000Y-91543548D01*
X147395218Y-91383773D01*
X147332877Y-91233269D01*
X147242372Y-91097819D01*
X147127181Y-90982628D01*
X146991731Y-90892123D01*
X146841227Y-90829782D01*
X146681452Y-90798000D01*
X146518548Y-90798000D01*
X146358773Y-90829782D01*
X146208269Y-90892123D01*
X146072819Y-90982628D01*
X145957628Y-91097819D01*
X145867123Y-91233269D01*
X145804782Y-91383773D01*
X145773000Y-91543548D01*
X138560872Y-91543548D01*
X138540537Y-91505506D01*
X138461185Y-91408815D01*
X138364494Y-91329463D01*
X138254180Y-91270498D01*
X138134482Y-91234188D01*
X138010000Y-91221928D01*
X137445750Y-91225000D01*
X137287000Y-91383750D01*
X137033000Y-91383750D01*
X136874250Y-91225000D01*
X136310000Y-91221928D01*
X136185518Y-91234188D01*
X136065820Y-91270498D01*
X136052000Y-91277885D01*
X136052000Y-88552000D01*
X160948000Y-88552000D01*
X160948000Y-91338133D01*
G37*
X160948000Y-91338133D02*
X160870000Y-91330451D01*
X159170000Y-91330451D01*
X159066690Y-91340626D01*
X158967350Y-91370761D01*
X158875798Y-91419696D01*
X158795552Y-91485552D01*
X158729696Y-91565798D01*
X158680761Y-91657350D01*
X158650626Y-91756690D01*
X158640451Y-91860000D01*
X158640451Y-91983000D01*
X157827393Y-91983000D01*
X157791685Y-91979483D01*
X157649167Y-91993520D01*
X157572650Y-92016731D01*
X157512128Y-92035090D01*
X157385832Y-92102597D01*
X157275131Y-92193446D01*
X157252368Y-92221183D01*
X152528495Y-96945058D01*
X152416396Y-96898624D01*
X152237301Y-96863000D01*
X152054699Y-96863000D01*
X151875604Y-96898624D01*
X151706901Y-96968504D01*
X151555072Y-97069952D01*
X151425952Y-97199072D01*
X151324504Y-97350901D01*
X151254624Y-97519604D01*
X151219000Y-97698699D01*
X151219000Y-97881301D01*
X151254624Y-98060396D01*
X151324504Y-98229099D01*
X151425952Y-98380928D01*
X151555072Y-98510048D01*
X151706901Y-98611496D01*
X151875604Y-98681376D01*
X152054699Y-98717000D01*
X152138433Y-98717000D01*
X147832017Y-103023417D01*
X147774416Y-103034874D01*
X147633865Y-103093092D01*
X147569996Y-102938901D01*
X147468548Y-102787072D01*
X147339428Y-102657952D01*
X147187599Y-102556504D01*
X147018896Y-102486624D01*
X146904000Y-102463770D01*
X146904000Y-99940580D01*
X146907517Y-99904872D01*
X146893480Y-99762354D01*
X146851910Y-99625315D01*
X146826497Y-99577771D01*
X146784403Y-99499019D01*
X146693554Y-99388318D01*
X146665812Y-99365551D01*
X145699549Y-98399289D01*
X145666366Y-98232466D01*
X145596486Y-98063763D01*
X145495038Y-97911934D01*
X145365918Y-97782814D01*
X145214089Y-97681366D01*
X145045386Y-97611486D01*
X144866291Y-97575862D01*
X144683689Y-97575862D01*
X144504594Y-97611486D01*
X144335891Y-97681366D01*
X144184062Y-97782814D01*
X144054942Y-97911934D01*
X143953494Y-98063763D01*
X143883614Y-98232466D01*
X143847990Y-98411561D01*
X143847990Y-98594163D01*
X143883614Y-98773258D01*
X143953494Y-98941961D01*
X144054942Y-99093790D01*
X144184062Y-99222910D01*
X144335891Y-99324358D01*
X144504594Y-99394238D01*
X144671417Y-99427421D01*
X145450001Y-100206006D01*
X145450000Y-103913792D01*
X145446483Y-103949500D01*
X145450000Y-103985208D01*
X145450000Y-104047829D01*
X145446619Y-104090620D01*
X145454191Y-104154763D01*
X145460520Y-104219016D01*
X145462578Y-104225800D01*
X145463409Y-104232840D01*
X145483344Y-104294259D01*
X145502090Y-104356056D01*
X145505432Y-104362308D01*
X145507620Y-104369050D01*
X145539158Y-104425405D01*
X145569597Y-104482352D01*
X145574094Y-104487831D01*
X145577556Y-104494018D01*
X145619464Y-104543116D01*
X145660446Y-104593053D01*
X145693633Y-104620289D01*
X148073001Y-106909400D01*
X148073001Y-107612644D01*
X148045016Y-107607078D01*
X147891960Y-107607078D01*
X147741845Y-107636937D01*
X147600440Y-107695509D01*
X147473179Y-107780542D01*
X147364952Y-107888769D01*
X147279919Y-108016030D01*
X147257210Y-108070855D01*
X147177053Y-108037653D01*
X147026938Y-108007794D01*
X146873882Y-108007794D01*
X146723767Y-108037653D01*
X146582362Y-108096225D01*
X146455101Y-108181258D01*
X146358959Y-108277400D01*
X146340883Y-108273805D01*
X143038696Y-104971619D01*
X143018275Y-104946736D01*
X142918995Y-104865259D01*
X142805728Y-104804717D01*
X142682825Y-104767435D01*
X142587033Y-104758000D01*
X142555011Y-104754846D01*
X142522989Y-104758000D01*
X138380387Y-104758000D01*
X138380282Y-104757746D01*
X138229586Y-104532213D01*
X138037787Y-104340414D01*
X137812254Y-104189718D01*
X137692224Y-104140000D01*
X137812254Y-104090282D01*
X138037787Y-103939586D01*
X138229586Y-103747787D01*
X138380282Y-103522254D01*
X138484083Y-103271656D01*
X138537000Y-103005623D01*
X138537000Y-102734377D01*
X138484083Y-102468344D01*
X138380282Y-102217746D01*
X138229586Y-101992213D01*
X138037787Y-101800414D01*
X137812254Y-101649718D01*
X137692224Y-101600000D01*
X137812254Y-101550282D01*
X138037787Y-101399586D01*
X138229586Y-101207787D01*
X138380282Y-100982254D01*
X138484083Y-100731656D01*
X138537000Y-100465623D01*
X138537000Y-100194377D01*
X138484083Y-99928344D01*
X138380282Y-99677746D01*
X138229586Y-99452213D01*
X138037787Y-99260414D01*
X137812254Y-99109718D01*
X137692224Y-99060000D01*
X137812254Y-99010282D01*
X138037787Y-98859586D01*
X138229586Y-98667787D01*
X138380282Y-98442254D01*
X138484083Y-98191656D01*
X138537000Y-97925623D01*
X138537000Y-97654377D01*
X138484083Y-97388344D01*
X138380282Y-97137746D01*
X138229586Y-96912213D01*
X138037787Y-96720414D01*
X137812254Y-96569718D01*
X137692224Y-96520000D01*
X137812254Y-96470282D01*
X138037787Y-96319586D01*
X138229586Y-96127787D01*
X138380282Y-95902254D01*
X138484083Y-95651656D01*
X138537000Y-95385623D01*
X138537000Y-95114377D01*
X138484083Y-94848344D01*
X138380282Y-94597746D01*
X138229586Y-94372213D01*
X138051370Y-94193997D01*
X138134482Y-94185812D01*
X138254180Y-94149502D01*
X138364494Y-94090537D01*
X138461185Y-94011185D01*
X138540537Y-93914494D01*
X138599502Y-93804180D01*
X138635812Y-93684482D01*
X138648072Y-93560000D01*
X138645000Y-92995750D01*
X138486250Y-92837000D01*
X137287000Y-92837000D01*
X137287000Y-92857000D01*
X137033000Y-92857000D01*
X137033000Y-92837000D01*
X137013000Y-92837000D01*
X137013000Y-92583000D01*
X137033000Y-92583000D01*
X137033000Y-91383750D01*
X137287000Y-91383750D01*
X137287000Y-92583000D01*
X138486250Y-92583000D01*
X138645000Y-92424250D01*
X138648072Y-91860000D01*
X138635812Y-91735518D01*
X138599502Y-91615820D01*
X138560872Y-91543548D01*
X145773000Y-91543548D01*
X145773000Y-91706452D01*
X145804782Y-91866227D01*
X145867123Y-92016731D01*
X145957628Y-92152181D01*
X146072819Y-92267372D01*
X146208269Y-92357877D01*
X146358773Y-92420218D01*
X146518548Y-92452000D01*
X146681452Y-92452000D01*
X146841227Y-92420218D01*
X146991731Y-92357877D01*
X147127181Y-92267372D01*
X147242372Y-92152181D01*
X147332877Y-92016731D01*
X147395218Y-91866227D01*
X147427000Y-91706452D01*
X147427000Y-91543548D01*
X149773000Y-91543548D01*
X149773000Y-91706452D01*
X149804782Y-91866227D01*
X149867123Y-92016731D01*
X149957628Y-92152181D01*
X150072819Y-92267372D01*
X150208269Y-92357877D01*
X150358773Y-92420218D01*
X150518548Y-92452000D01*
X150681452Y-92452000D01*
X150841227Y-92420218D01*
X150991731Y-92357877D01*
X151127181Y-92267372D01*
X151242372Y-92152181D01*
X151332877Y-92016731D01*
X151395218Y-91866227D01*
X151427000Y-91706452D01*
X151427000Y-91543548D01*
X151395218Y-91383773D01*
X151332877Y-91233269D01*
X151242372Y-91097819D01*
X151127181Y-90982628D01*
X150991731Y-90892123D01*
X150841227Y-90829782D01*
X150681452Y-90798000D01*
X150518548Y-90798000D01*
X150358773Y-90829782D01*
X150208269Y-90892123D01*
X150072819Y-90982628D01*
X149957628Y-91097819D01*
X149867123Y-91233269D01*
X149804782Y-91383773D01*
X149773000Y-91543548D01*
X147427000Y-91543548D01*
X147395218Y-91383773D01*
X147332877Y-91233269D01*
X147242372Y-91097819D01*
X147127181Y-90982628D01*
X146991731Y-90892123D01*
X146841227Y-90829782D01*
X146681452Y-90798000D01*
X146518548Y-90798000D01*
X146358773Y-90829782D01*
X146208269Y-90892123D01*
X146072819Y-90982628D01*
X145957628Y-91097819D01*
X145867123Y-91233269D01*
X145804782Y-91383773D01*
X145773000Y-91543548D01*
X138560872Y-91543548D01*
X138540537Y-91505506D01*
X138461185Y-91408815D01*
X138364494Y-91329463D01*
X138254180Y-91270498D01*
X138134482Y-91234188D01*
X138010000Y-91221928D01*
X137445750Y-91225000D01*
X137287000Y-91383750D01*
X137033000Y-91383750D01*
X136874250Y-91225000D01*
X136310000Y-91221928D01*
X136185518Y-91234188D01*
X136065820Y-91270498D01*
X136052000Y-91277885D01*
X136052000Y-88552000D01*
X160948000Y-88552000D01*
X160948000Y-91338133D01*
G36*
X158640451Y-93560000D02*
G01*
X158650626Y-93663310D01*
X158680761Y-93762650D01*
X158729696Y-93854202D01*
X158795552Y-93934448D01*
X158875798Y-94000304D01*
X158967350Y-94049239D01*
X159066690Y-94079374D01*
X159107002Y-94083344D01*
X158922412Y-94249731D01*
X158748359Y-94483080D01*
X158623175Y-94745901D01*
X158578524Y-94893110D01*
X158699845Y-95123000D01*
X159893000Y-95123000D01*
X159893000Y-95103000D01*
X160147000Y-95103000D01*
X160147000Y-95123000D01*
X160167000Y-95123000D01*
X160167000Y-95377000D01*
X160147000Y-95377000D01*
X160147000Y-95397000D01*
X159893000Y-95397000D01*
X159893000Y-95377000D01*
X158699845Y-95377000D01*
X158578524Y-95606890D01*
X158623175Y-95754099D01*
X158748359Y-96016920D01*
X158922412Y-96250269D01*
X159138645Y-96445178D01*
X159358308Y-96576025D01*
X159142213Y-96720414D01*
X158950414Y-96912213D01*
X158799718Y-97137746D01*
X158695917Y-97388344D01*
X158643000Y-97654377D01*
X158643000Y-97925623D01*
X158695917Y-98191656D01*
X158696022Y-98191911D01*
X152835305Y-104052629D01*
X152733896Y-104010624D01*
X152554801Y-103975000D01*
X152372199Y-103975000D01*
X152193104Y-104010624D01*
X152024401Y-104080504D01*
X151872572Y-104181952D01*
X151743452Y-104311072D01*
X151642004Y-104462901D01*
X151572124Y-104631604D01*
X151538941Y-104798426D01*
X149971618Y-106365750D01*
X149593882Y-106365750D01*
X149339326Y-106111194D01*
X149316554Y-106083446D01*
X149283369Y-106056212D01*
X147636891Y-104472191D01*
X147774416Y-104529156D01*
X147924531Y-104559015D01*
X148077587Y-104559015D01*
X148227702Y-104529156D01*
X148369107Y-104470584D01*
X148496368Y-104385551D01*
X148604595Y-104277324D01*
X148689628Y-104150063D01*
X148748200Y-104008658D01*
X148762425Y-103937141D01*
X153832085Y-98867482D01*
X153896643Y-98854641D01*
X154038048Y-98796069D01*
X154165309Y-98711036D01*
X154273536Y-98602809D01*
X154358569Y-98475548D01*
X154417141Y-98334143D01*
X154447000Y-98184028D01*
X154447000Y-98030972D01*
X154417141Y-97880857D01*
X154358569Y-97739452D01*
X154273536Y-97612191D01*
X154165309Y-97503964D01*
X154081711Y-97448106D01*
X158092819Y-93437000D01*
X158640451Y-93437000D01*
X158640451Y-93560000D01*
G37*
X158640451Y-93560000D02*
X158650626Y-93663310D01*
X158680761Y-93762650D01*
X158729696Y-93854202D01*
X158795552Y-93934448D01*
X158875798Y-94000304D01*
X158967350Y-94049239D01*
X159066690Y-94079374D01*
X159107002Y-94083344D01*
X158922412Y-94249731D01*
X158748359Y-94483080D01*
X158623175Y-94745901D01*
X158578524Y-94893110D01*
X158699845Y-95123000D01*
X159893000Y-95123000D01*
X159893000Y-95103000D01*
X160147000Y-95103000D01*
X160147000Y-95123000D01*
X160167000Y-95123000D01*
X160167000Y-95377000D01*
X160147000Y-95377000D01*
X160147000Y-95397000D01*
X159893000Y-95397000D01*
X159893000Y-95377000D01*
X158699845Y-95377000D01*
X158578524Y-95606890D01*
X158623175Y-95754099D01*
X158748359Y-96016920D01*
X158922412Y-96250269D01*
X159138645Y-96445178D01*
X159358308Y-96576025D01*
X159142213Y-96720414D01*
X158950414Y-96912213D01*
X158799718Y-97137746D01*
X158695917Y-97388344D01*
X158643000Y-97654377D01*
X158643000Y-97925623D01*
X158695917Y-98191656D01*
X158696022Y-98191911D01*
X152835305Y-104052629D01*
X152733896Y-104010624D01*
X152554801Y-103975000D01*
X152372199Y-103975000D01*
X152193104Y-104010624D01*
X152024401Y-104080504D01*
X151872572Y-104181952D01*
X151743452Y-104311072D01*
X151642004Y-104462901D01*
X151572124Y-104631604D01*
X151538941Y-104798426D01*
X149971618Y-106365750D01*
X149593882Y-106365750D01*
X149339326Y-106111194D01*
X149316554Y-106083446D01*
X149283369Y-106056212D01*
X147636891Y-104472191D01*
X147774416Y-104529156D01*
X147924531Y-104559015D01*
X148077587Y-104559015D01*
X148227702Y-104529156D01*
X148369107Y-104470584D01*
X148496368Y-104385551D01*
X148604595Y-104277324D01*
X148689628Y-104150063D01*
X148748200Y-104008658D01*
X148762425Y-103937141D01*
X153832085Y-98867482D01*
X153896643Y-98854641D01*
X154038048Y-98796069D01*
X154165309Y-98711036D01*
X154273536Y-98602809D01*
X154358569Y-98475548D01*
X154417141Y-98334143D01*
X154447000Y-98184028D01*
X154447000Y-98030972D01*
X154417141Y-97880857D01*
X154358569Y-97739452D01*
X154273536Y-97612191D01*
X154165309Y-97503964D01*
X154081711Y-97448106D01*
X158092819Y-93437000D01*
X158640451Y-93437000D01*
X158640451Y-93560000D01*
M02*
