G04 #@! TF.GenerationSoftware,KiCad,Pcbnew,(5.1.5)-3*
G04 #@! TF.CreationDate,2021-02-11T22:25:29+01:00*
G04 #@! TF.ProjectId,20210211_eduino,32303231-3032-4313-915f-656475696e6f,v1.0*
G04 #@! TF.SameCoordinates,Original*
G04 #@! TF.FileFunction,Soldermask,Top*
G04 #@! TF.FilePolarity,Negative*
%FSLAX46Y46*%
G04 Gerber Fmt 4.6, Leading zero omitted, Abs format (unit mm)*
G04 Created by KiCad (PCBNEW (5.1.5)-3) date 2021-02-11 22:25:29*
%MOMM*%
%LPD*%
G04 APERTURE LIST*
%ADD10C,0.100000*%
G04 APERTURE END LIST*
D10*
G36*
X157227290Y-130025619D02*
G01*
X157291689Y-130038429D01*
X157473678Y-130113811D01*
X157637463Y-130223249D01*
X157776751Y-130362537D01*
X157886189Y-130526322D01*
X157894832Y-130547189D01*
X157961571Y-130708312D01*
X157999450Y-130898741D01*
X158000000Y-130901509D01*
X158000000Y-131098491D01*
X157961571Y-131291689D01*
X157886189Y-131473678D01*
X157776751Y-131637463D01*
X157637463Y-131776751D01*
X157473678Y-131886189D01*
X157291689Y-131961571D01*
X157227290Y-131974381D01*
X157098493Y-132000000D01*
X156901507Y-132000000D01*
X156772710Y-131974381D01*
X156708311Y-131961571D01*
X156526322Y-131886189D01*
X156362537Y-131776751D01*
X156223249Y-131637463D01*
X156113811Y-131473678D01*
X156038429Y-131291689D01*
X156000000Y-131098491D01*
X156000000Y-130901509D01*
X156000551Y-130898741D01*
X156038429Y-130708312D01*
X156105168Y-130547189D01*
X156113811Y-130526322D01*
X156223249Y-130362537D01*
X156362537Y-130223249D01*
X156526322Y-130113811D01*
X156708311Y-130038429D01*
X156772710Y-130025619D01*
X156901507Y-130000000D01*
X157098493Y-130000000D01*
X157227290Y-130025619D01*
G37*
G36*
X153391000Y-131751000D02*
G01*
X151739000Y-131751000D01*
X151739000Y-130349000D01*
X153391000Y-130349000D01*
X153391000Y-131751000D01*
G37*
G36*
X145441000Y-131751000D02*
G01*
X143789000Y-131751000D01*
X143789000Y-130349000D01*
X145441000Y-130349000D01*
X145441000Y-131751000D01*
G37*
G36*
X137273512Y-129913927D02*
G01*
X137422812Y-129943624D01*
X137586784Y-130011544D01*
X137734354Y-130110147D01*
X137859853Y-130235646D01*
X137958456Y-130383216D01*
X138026376Y-130547188D01*
X138056073Y-130696488D01*
X138061000Y-130721258D01*
X138061000Y-130898742D01*
X138056073Y-130923512D01*
X138026376Y-131072812D01*
X137958456Y-131236784D01*
X137859853Y-131384354D01*
X137734354Y-131509853D01*
X137586784Y-131608456D01*
X137422812Y-131676376D01*
X137273512Y-131706073D01*
X137248742Y-131711000D01*
X137071258Y-131711000D01*
X137046488Y-131706073D01*
X136897188Y-131676376D01*
X136733216Y-131608456D01*
X136585646Y-131509853D01*
X136460147Y-131384354D01*
X136361544Y-131236784D01*
X136293624Y-131072812D01*
X136263927Y-130923512D01*
X136259000Y-130898742D01*
X136259000Y-130721258D01*
X136263927Y-130696488D01*
X136293624Y-130547188D01*
X136361544Y-130383216D01*
X136460147Y-130235646D01*
X136585646Y-130110147D01*
X136733216Y-130011544D01*
X136897188Y-129943624D01*
X137046488Y-129913927D01*
X137071258Y-129909000D01*
X137248742Y-129909000D01*
X137273512Y-129913927D01*
G37*
G36*
X160133512Y-129913927D02*
G01*
X160282812Y-129943624D01*
X160446784Y-130011544D01*
X160594354Y-130110147D01*
X160719853Y-130235646D01*
X160818456Y-130383216D01*
X160886376Y-130547188D01*
X160916073Y-130696488D01*
X160921000Y-130721258D01*
X160921000Y-130898742D01*
X160916073Y-130923512D01*
X160886376Y-131072812D01*
X160818456Y-131236784D01*
X160719853Y-131384354D01*
X160594354Y-131509853D01*
X160446784Y-131608456D01*
X160282812Y-131676376D01*
X160133512Y-131706073D01*
X160108742Y-131711000D01*
X159931258Y-131711000D01*
X159906488Y-131706073D01*
X159757188Y-131676376D01*
X159593216Y-131608456D01*
X159445646Y-131509853D01*
X159320147Y-131384354D01*
X159221544Y-131236784D01*
X159153624Y-131072812D01*
X159123927Y-130923512D01*
X159119000Y-130898742D01*
X159119000Y-130721258D01*
X159123927Y-130696488D01*
X159153624Y-130547188D01*
X159221544Y-130383216D01*
X159320147Y-130235646D01*
X159445646Y-130110147D01*
X159593216Y-130011544D01*
X159757188Y-129943624D01*
X159906488Y-129913927D01*
X159931258Y-129909000D01*
X160108742Y-129909000D01*
X160133512Y-129913927D01*
G37*
G36*
X160133512Y-127373927D02*
G01*
X160282812Y-127403624D01*
X160446784Y-127471544D01*
X160594354Y-127570147D01*
X160719853Y-127695646D01*
X160818456Y-127843216D01*
X160886376Y-128007188D01*
X160921000Y-128181259D01*
X160921000Y-128358741D01*
X160886376Y-128532812D01*
X160818456Y-128696784D01*
X160719853Y-128844354D01*
X160594354Y-128969853D01*
X160446784Y-129068456D01*
X160282812Y-129136376D01*
X160133512Y-129166073D01*
X160108742Y-129171000D01*
X159931258Y-129171000D01*
X159906488Y-129166073D01*
X159757188Y-129136376D01*
X159593216Y-129068456D01*
X159445646Y-128969853D01*
X159320147Y-128844354D01*
X159221544Y-128696784D01*
X159153624Y-128532812D01*
X159119000Y-128358741D01*
X159119000Y-128181259D01*
X159153624Y-128007188D01*
X159221544Y-127843216D01*
X159320147Y-127695646D01*
X159445646Y-127570147D01*
X159593216Y-127471544D01*
X159757188Y-127403624D01*
X159906488Y-127373927D01*
X159931258Y-127369000D01*
X160108742Y-127369000D01*
X160133512Y-127373927D01*
G37*
G36*
X137273512Y-127373927D02*
G01*
X137422812Y-127403624D01*
X137586784Y-127471544D01*
X137734354Y-127570147D01*
X137859853Y-127695646D01*
X137958456Y-127843216D01*
X138026376Y-128007188D01*
X138061000Y-128181259D01*
X138061000Y-128358741D01*
X138026376Y-128532812D01*
X137958456Y-128696784D01*
X137859853Y-128844354D01*
X137734354Y-128969853D01*
X137586784Y-129068456D01*
X137422812Y-129136376D01*
X137273512Y-129166073D01*
X137248742Y-129171000D01*
X137071258Y-129171000D01*
X137046488Y-129166073D01*
X136897188Y-129136376D01*
X136733216Y-129068456D01*
X136585646Y-128969853D01*
X136460147Y-128844354D01*
X136361544Y-128696784D01*
X136293624Y-128532812D01*
X136259000Y-128358741D01*
X136259000Y-128181259D01*
X136293624Y-128007188D01*
X136361544Y-127843216D01*
X136460147Y-127695646D01*
X136585646Y-127570147D01*
X136733216Y-127471544D01*
X136897188Y-127403624D01*
X137046488Y-127373927D01*
X137071258Y-127369000D01*
X137248742Y-127369000D01*
X137273512Y-127373927D01*
G37*
G36*
X153391000Y-127251000D02*
G01*
X151739000Y-127251000D01*
X151739000Y-125849000D01*
X153391000Y-125849000D01*
X153391000Y-127251000D01*
G37*
G36*
X145441000Y-127251000D02*
G01*
X143789000Y-127251000D01*
X143789000Y-125849000D01*
X145441000Y-125849000D01*
X145441000Y-127251000D01*
G37*
G36*
X160133512Y-124833927D02*
G01*
X160282812Y-124863624D01*
X160446784Y-124931544D01*
X160594354Y-125030147D01*
X160719853Y-125155646D01*
X160818456Y-125303216D01*
X160886376Y-125467188D01*
X160921000Y-125641259D01*
X160921000Y-125818741D01*
X160886376Y-125992812D01*
X160818456Y-126156784D01*
X160719853Y-126304354D01*
X160594354Y-126429853D01*
X160446784Y-126528456D01*
X160282812Y-126596376D01*
X160133512Y-126626073D01*
X160108742Y-126631000D01*
X159931258Y-126631000D01*
X159906488Y-126626073D01*
X159757188Y-126596376D01*
X159593216Y-126528456D01*
X159445646Y-126429853D01*
X159320147Y-126304354D01*
X159221544Y-126156784D01*
X159153624Y-125992812D01*
X159119000Y-125818741D01*
X159119000Y-125641259D01*
X159153624Y-125467188D01*
X159221544Y-125303216D01*
X159320147Y-125155646D01*
X159445646Y-125030147D01*
X159593216Y-124931544D01*
X159757188Y-124863624D01*
X159906488Y-124833927D01*
X159931258Y-124829000D01*
X160108742Y-124829000D01*
X160133512Y-124833927D01*
G37*
G36*
X137273512Y-124833927D02*
G01*
X137422812Y-124863624D01*
X137586784Y-124931544D01*
X137734354Y-125030147D01*
X137859853Y-125155646D01*
X137958456Y-125303216D01*
X138026376Y-125467188D01*
X138061000Y-125641259D01*
X138061000Y-125818741D01*
X138026376Y-125992812D01*
X137958456Y-126156784D01*
X137859853Y-126304354D01*
X137734354Y-126429853D01*
X137586784Y-126528456D01*
X137422812Y-126596376D01*
X137273512Y-126626073D01*
X137248742Y-126631000D01*
X137071258Y-126631000D01*
X137046488Y-126626073D01*
X136897188Y-126596376D01*
X136733216Y-126528456D01*
X136585646Y-126429853D01*
X136460147Y-126304354D01*
X136361544Y-126156784D01*
X136293624Y-125992812D01*
X136259000Y-125818741D01*
X136259000Y-125641259D01*
X136293624Y-125467188D01*
X136361544Y-125303216D01*
X136460147Y-125155646D01*
X136585646Y-125030147D01*
X136733216Y-124931544D01*
X136897188Y-124863624D01*
X137046488Y-124833927D01*
X137071258Y-124829000D01*
X137248742Y-124829000D01*
X137273512Y-124833927D01*
G37*
G36*
X155265591Y-124807585D02*
G01*
X155299569Y-124817893D01*
X155330890Y-124834634D01*
X155358339Y-124857161D01*
X155380866Y-124884610D01*
X155397607Y-124915931D01*
X155407915Y-124949909D01*
X155412000Y-124991390D01*
X155412000Y-125592610D01*
X155407915Y-125634091D01*
X155397607Y-125668069D01*
X155380866Y-125699390D01*
X155358339Y-125726839D01*
X155330890Y-125749366D01*
X155299569Y-125766107D01*
X155265591Y-125776415D01*
X155224110Y-125780500D01*
X154547890Y-125780500D01*
X154506409Y-125776415D01*
X154472431Y-125766107D01*
X154441110Y-125749366D01*
X154413661Y-125726839D01*
X154391134Y-125699390D01*
X154374393Y-125668069D01*
X154364085Y-125634091D01*
X154360000Y-125592610D01*
X154360000Y-124991390D01*
X154364085Y-124949909D01*
X154374393Y-124915931D01*
X154391134Y-124884610D01*
X154413661Y-124857161D01*
X154441110Y-124834634D01*
X154472431Y-124817893D01*
X154506409Y-124807585D01*
X154547890Y-124803500D01*
X155224110Y-124803500D01*
X155265591Y-124807585D01*
G37*
G36*
X156879591Y-124803085D02*
G01*
X156913569Y-124813393D01*
X156944890Y-124830134D01*
X156972339Y-124852661D01*
X156994866Y-124880110D01*
X157011607Y-124911431D01*
X157021915Y-124945409D01*
X157026000Y-124986890D01*
X157026000Y-125588110D01*
X157021915Y-125629591D01*
X157011607Y-125663569D01*
X156994866Y-125694890D01*
X156972339Y-125722339D01*
X156944890Y-125744866D01*
X156913569Y-125761607D01*
X156879591Y-125771915D01*
X156838110Y-125776000D01*
X156161890Y-125776000D01*
X156120409Y-125771915D01*
X156086431Y-125761607D01*
X156055110Y-125744866D01*
X156027661Y-125722339D01*
X156005134Y-125694890D01*
X155988393Y-125663569D01*
X155978085Y-125629591D01*
X155974000Y-125588110D01*
X155974000Y-124986890D01*
X155978085Y-124945409D01*
X155988393Y-124911431D01*
X156005134Y-124880110D01*
X156027661Y-124852661D01*
X156055110Y-124830134D01*
X156086431Y-124813393D01*
X156120409Y-124803085D01*
X156161890Y-124799000D01*
X156838110Y-124799000D01*
X156879591Y-124803085D01*
G37*
G36*
X155265591Y-123232585D02*
G01*
X155299569Y-123242893D01*
X155330890Y-123259634D01*
X155358339Y-123282161D01*
X155380866Y-123309610D01*
X155397607Y-123340931D01*
X155407915Y-123374909D01*
X155412000Y-123416390D01*
X155412000Y-124017610D01*
X155407915Y-124059091D01*
X155397607Y-124093069D01*
X155380866Y-124124390D01*
X155358339Y-124151839D01*
X155330890Y-124174366D01*
X155299569Y-124191107D01*
X155265591Y-124201415D01*
X155224110Y-124205500D01*
X154547890Y-124205500D01*
X154506409Y-124201415D01*
X154472431Y-124191107D01*
X154441110Y-124174366D01*
X154413661Y-124151839D01*
X154391134Y-124124390D01*
X154374393Y-124093069D01*
X154364085Y-124059091D01*
X154360000Y-124017610D01*
X154360000Y-123416390D01*
X154364085Y-123374909D01*
X154374393Y-123340931D01*
X154391134Y-123309610D01*
X154413661Y-123282161D01*
X154441110Y-123259634D01*
X154472431Y-123242893D01*
X154506409Y-123232585D01*
X154547890Y-123228500D01*
X155224110Y-123228500D01*
X155265591Y-123232585D01*
G37*
G36*
X156879591Y-123228085D02*
G01*
X156913569Y-123238393D01*
X156944890Y-123255134D01*
X156972339Y-123277661D01*
X156994866Y-123305110D01*
X157011607Y-123336431D01*
X157021915Y-123370409D01*
X157026000Y-123411890D01*
X157026000Y-124013110D01*
X157021915Y-124054591D01*
X157011607Y-124088569D01*
X156994866Y-124119890D01*
X156972339Y-124147339D01*
X156944890Y-124169866D01*
X156913569Y-124186607D01*
X156879591Y-124196915D01*
X156838110Y-124201000D01*
X156161890Y-124201000D01*
X156120409Y-124196915D01*
X156086431Y-124186607D01*
X156055110Y-124169866D01*
X156027661Y-124147339D01*
X156005134Y-124119890D01*
X155988393Y-124088569D01*
X155978085Y-124054591D01*
X155974000Y-124013110D01*
X155974000Y-123411890D01*
X155978085Y-123370409D01*
X155988393Y-123336431D01*
X156005134Y-123305110D01*
X156027661Y-123277661D01*
X156055110Y-123255134D01*
X156086431Y-123238393D01*
X156120409Y-123228085D01*
X156161890Y-123224000D01*
X156838110Y-123224000D01*
X156879591Y-123228085D01*
G37*
G36*
X137273512Y-122293927D02*
G01*
X137422812Y-122323624D01*
X137586784Y-122391544D01*
X137734354Y-122490147D01*
X137859853Y-122615646D01*
X137958456Y-122763216D01*
X138026376Y-122927188D01*
X138061000Y-123101259D01*
X138061000Y-123278741D01*
X138026376Y-123452812D01*
X137958456Y-123616784D01*
X137859853Y-123764354D01*
X137734354Y-123889853D01*
X137586784Y-123988456D01*
X137422812Y-124056376D01*
X137273512Y-124086073D01*
X137248742Y-124091000D01*
X137071258Y-124091000D01*
X137046488Y-124086073D01*
X136897188Y-124056376D01*
X136733216Y-123988456D01*
X136585646Y-123889853D01*
X136460147Y-123764354D01*
X136361544Y-123616784D01*
X136293624Y-123452812D01*
X136259000Y-123278741D01*
X136259000Y-123101259D01*
X136293624Y-122927188D01*
X136361544Y-122763216D01*
X136460147Y-122615646D01*
X136585646Y-122490147D01*
X136733216Y-122391544D01*
X136897188Y-122323624D01*
X137046488Y-122293927D01*
X137071258Y-122289000D01*
X137248742Y-122289000D01*
X137273512Y-122293927D01*
G37*
G36*
X160133512Y-122293927D02*
G01*
X160282812Y-122323624D01*
X160446784Y-122391544D01*
X160594354Y-122490147D01*
X160719853Y-122615646D01*
X160818456Y-122763216D01*
X160886376Y-122927188D01*
X160921000Y-123101259D01*
X160921000Y-123278741D01*
X160886376Y-123452812D01*
X160818456Y-123616784D01*
X160719853Y-123764354D01*
X160594354Y-123889853D01*
X160446784Y-123988456D01*
X160282812Y-124056376D01*
X160133512Y-124086073D01*
X160108742Y-124091000D01*
X159931258Y-124091000D01*
X159906488Y-124086073D01*
X159757188Y-124056376D01*
X159593216Y-123988456D01*
X159445646Y-123889853D01*
X159320147Y-123764354D01*
X159221544Y-123616784D01*
X159153624Y-123452812D01*
X159119000Y-123278741D01*
X159119000Y-123101259D01*
X159153624Y-122927188D01*
X159221544Y-122763216D01*
X159320147Y-122615646D01*
X159445646Y-122490147D01*
X159593216Y-122391544D01*
X159757188Y-122323624D01*
X159906488Y-122293927D01*
X159931258Y-122289000D01*
X160108742Y-122289000D01*
X160133512Y-122293927D01*
G37*
G36*
X160133512Y-119753927D02*
G01*
X160282812Y-119783624D01*
X160446784Y-119851544D01*
X160594354Y-119950147D01*
X160719853Y-120075646D01*
X160818456Y-120223216D01*
X160886376Y-120387188D01*
X160921000Y-120561259D01*
X160921000Y-120738741D01*
X160886376Y-120912812D01*
X160818456Y-121076784D01*
X160719853Y-121224354D01*
X160594354Y-121349853D01*
X160446784Y-121448456D01*
X160282812Y-121516376D01*
X160133512Y-121546073D01*
X160108742Y-121551000D01*
X159931258Y-121551000D01*
X159906488Y-121546073D01*
X159757188Y-121516376D01*
X159593216Y-121448456D01*
X159445646Y-121349853D01*
X159320147Y-121224354D01*
X159221544Y-121076784D01*
X159153624Y-120912812D01*
X159119000Y-120738741D01*
X159119000Y-120561259D01*
X159153624Y-120387188D01*
X159221544Y-120223216D01*
X159320147Y-120075646D01*
X159445646Y-119950147D01*
X159593216Y-119851544D01*
X159757188Y-119783624D01*
X159906488Y-119753927D01*
X159931258Y-119749000D01*
X160108742Y-119749000D01*
X160133512Y-119753927D01*
G37*
G36*
X137273512Y-119753927D02*
G01*
X137422812Y-119783624D01*
X137586784Y-119851544D01*
X137734354Y-119950147D01*
X137859853Y-120075646D01*
X137958456Y-120223216D01*
X138026376Y-120387188D01*
X138061000Y-120561259D01*
X138061000Y-120738741D01*
X138026376Y-120912812D01*
X137958456Y-121076784D01*
X137859853Y-121224354D01*
X137734354Y-121349853D01*
X137586784Y-121448456D01*
X137422812Y-121516376D01*
X137273512Y-121546073D01*
X137248742Y-121551000D01*
X137071258Y-121551000D01*
X137046488Y-121546073D01*
X136897188Y-121516376D01*
X136733216Y-121448456D01*
X136585646Y-121349853D01*
X136460147Y-121224354D01*
X136361544Y-121076784D01*
X136293624Y-120912812D01*
X136259000Y-120738741D01*
X136259000Y-120561259D01*
X136293624Y-120387188D01*
X136361544Y-120223216D01*
X136460147Y-120075646D01*
X136585646Y-119950147D01*
X136733216Y-119851544D01*
X136897188Y-119783624D01*
X137046488Y-119753927D01*
X137071258Y-119749000D01*
X137248742Y-119749000D01*
X137273512Y-119753927D01*
G37*
G36*
X143901977Y-119068855D02*
G01*
X143935955Y-119079163D01*
X143967276Y-119095904D01*
X143999490Y-119122342D01*
X144039341Y-119162193D01*
X144039347Y-119162198D01*
X144437802Y-119560653D01*
X144437807Y-119560659D01*
X144477658Y-119600510D01*
X144504096Y-119632724D01*
X144520837Y-119664045D01*
X144531145Y-119698023D01*
X144534625Y-119733364D01*
X144531145Y-119768705D01*
X144520837Y-119802683D01*
X144504096Y-119834004D01*
X144477658Y-119866218D01*
X144437807Y-119906069D01*
X144437802Y-119906075D01*
X144092381Y-120251496D01*
X144092375Y-120251501D01*
X144052524Y-120291352D01*
X144020310Y-120317790D01*
X143988989Y-120334531D01*
X143955011Y-120344839D01*
X143919670Y-120348319D01*
X143884329Y-120344839D01*
X143850351Y-120334531D01*
X143819030Y-120317790D01*
X143786816Y-120291352D01*
X143746965Y-120251501D01*
X143746959Y-120251496D01*
X143348504Y-119853041D01*
X143348499Y-119853035D01*
X143308648Y-119813184D01*
X143282210Y-119780970D01*
X143265469Y-119749649D01*
X143255161Y-119715671D01*
X143251681Y-119680330D01*
X143255161Y-119644989D01*
X143265469Y-119611011D01*
X143282210Y-119579690D01*
X143308648Y-119547476D01*
X143348499Y-119507625D01*
X143348504Y-119507619D01*
X143693925Y-119162198D01*
X143693931Y-119162193D01*
X143733782Y-119122342D01*
X143765996Y-119095904D01*
X143797317Y-119079163D01*
X143831295Y-119068855D01*
X143866636Y-119065375D01*
X143901977Y-119068855D01*
G37*
G36*
X143268141Y-118849569D02*
G01*
X142347488Y-119770222D01*
X141285413Y-118708147D01*
X142206066Y-117787494D01*
X143268141Y-118849569D01*
G37*
G36*
X156255845Y-113170958D02*
G01*
X155706424Y-113720379D01*
X155140738Y-114286064D01*
X154647177Y-114779626D01*
X151746626Y-117680177D01*
X151180940Y-118245862D01*
X150687379Y-118739424D01*
X150137958Y-119288845D01*
X149005173Y-118156060D01*
X149466206Y-117695027D01*
X149482471Y-117678763D01*
X149482480Y-117678752D01*
X150685954Y-116475278D01*
X150685965Y-116475269D01*
X150702230Y-116459005D01*
X150702229Y-116459004D01*
X151163262Y-115997971D01*
X151163263Y-115997972D01*
X151179527Y-115981707D01*
X151179536Y-115981696D01*
X151817325Y-115343907D01*
X151817336Y-115343898D01*
X151833601Y-115327634D01*
X151833600Y-115327633D01*
X152294633Y-114866600D01*
X152294634Y-114866601D01*
X152310898Y-114850336D01*
X152310907Y-114850325D01*
X152948696Y-114212536D01*
X152948707Y-114212527D01*
X152964972Y-114196263D01*
X152964971Y-114196262D01*
X153426004Y-113735229D01*
X153426005Y-113735230D01*
X153442269Y-113718965D01*
X153442278Y-113718954D01*
X154645752Y-112515480D01*
X154645763Y-112515471D01*
X154662027Y-112499206D01*
X155123060Y-112038173D01*
X156255845Y-113170958D01*
G37*
G36*
X142554238Y-112515471D02*
G01*
X142554244Y-112515476D01*
X143757727Y-113718959D01*
X143757732Y-113718965D01*
X144251294Y-114212527D01*
X144251300Y-114212532D01*
X144889098Y-114850330D01*
X144889103Y-114850336D01*
X145382665Y-115343898D01*
X145382671Y-115343903D01*
X146020469Y-115981701D01*
X146020474Y-115981707D01*
X146514036Y-116475269D01*
X146514042Y-116475274D01*
X147717525Y-117678757D01*
X147717530Y-117678763D01*
X148194827Y-118156060D01*
X147062042Y-119288845D01*
X146512627Y-118739430D01*
X146512622Y-118739424D01*
X145453375Y-117680177D01*
X145453369Y-117680172D01*
X144815571Y-117042374D01*
X144815566Y-117042368D01*
X144322004Y-116548806D01*
X144321998Y-116548801D01*
X143684200Y-115911003D01*
X143684195Y-115910997D01*
X143190633Y-115417435D01*
X143190627Y-115417430D01*
X142552829Y-114779632D01*
X142552824Y-114779626D01*
X141493577Y-113720379D01*
X141493571Y-113720374D01*
X140944155Y-113170958D01*
X142076940Y-112038173D01*
X142554238Y-112515471D01*
G37*
G36*
X145015671Y-117955161D02*
G01*
X145049649Y-117965469D01*
X145080970Y-117982210D01*
X145113184Y-118008648D01*
X145153035Y-118048499D01*
X145153041Y-118048504D01*
X145551496Y-118446959D01*
X145551501Y-118446965D01*
X145591352Y-118486816D01*
X145617790Y-118519030D01*
X145634531Y-118550351D01*
X145644839Y-118584329D01*
X145648319Y-118619670D01*
X145644839Y-118655011D01*
X145634531Y-118688989D01*
X145617790Y-118720310D01*
X145591352Y-118752524D01*
X145551501Y-118792375D01*
X145551496Y-118792381D01*
X145206075Y-119137802D01*
X145206069Y-119137807D01*
X145166218Y-119177658D01*
X145134004Y-119204096D01*
X145102683Y-119220837D01*
X145068705Y-119231145D01*
X145033364Y-119234625D01*
X144998023Y-119231145D01*
X144964045Y-119220837D01*
X144932724Y-119204096D01*
X144900510Y-119177658D01*
X144860659Y-119137807D01*
X144860653Y-119137802D01*
X144462198Y-118739347D01*
X144462193Y-118739341D01*
X144422342Y-118699490D01*
X144395904Y-118667276D01*
X144379163Y-118635955D01*
X144368855Y-118601977D01*
X144365375Y-118566636D01*
X144368855Y-118531295D01*
X144379163Y-118497317D01*
X144395904Y-118465996D01*
X144422342Y-118433782D01*
X144462193Y-118393931D01*
X144462198Y-118393925D01*
X144807619Y-118048504D01*
X144807625Y-118048499D01*
X144847476Y-118008648D01*
X144879690Y-117982210D01*
X144911011Y-117965469D01*
X144944989Y-117955161D01*
X144980330Y-117951681D01*
X145015671Y-117955161D01*
G37*
G36*
X160133512Y-117213927D02*
G01*
X160282812Y-117243624D01*
X160446784Y-117311544D01*
X160594354Y-117410147D01*
X160719853Y-117535646D01*
X160818456Y-117683216D01*
X160886376Y-117847188D01*
X160913123Y-117981658D01*
X160920378Y-118018129D01*
X160921000Y-118021259D01*
X160921000Y-118198741D01*
X160886376Y-118372812D01*
X160818456Y-118536784D01*
X160719853Y-118684354D01*
X160594354Y-118809853D01*
X160446784Y-118908456D01*
X160282812Y-118976376D01*
X160133512Y-119006073D01*
X160108742Y-119011000D01*
X159931258Y-119011000D01*
X159906488Y-119006073D01*
X159757188Y-118976376D01*
X159593216Y-118908456D01*
X159445646Y-118809853D01*
X159320147Y-118684354D01*
X159221544Y-118536784D01*
X159153624Y-118372812D01*
X159119000Y-118198741D01*
X159119000Y-118021259D01*
X159119623Y-118018129D01*
X159126877Y-117981658D01*
X159153624Y-117847188D01*
X159221544Y-117683216D01*
X159320147Y-117535646D01*
X159445646Y-117410147D01*
X159593216Y-117311544D01*
X159757188Y-117243624D01*
X159906488Y-117213927D01*
X159931258Y-117209000D01*
X160108742Y-117209000D01*
X160133512Y-117213927D01*
G37*
G36*
X137273512Y-117213927D02*
G01*
X137422812Y-117243624D01*
X137586784Y-117311544D01*
X137734354Y-117410147D01*
X137859853Y-117535646D01*
X137958456Y-117683216D01*
X138026376Y-117847188D01*
X138053123Y-117981658D01*
X138060378Y-118018129D01*
X138061000Y-118021259D01*
X138061000Y-118198741D01*
X138026376Y-118372812D01*
X137958456Y-118536784D01*
X137859853Y-118684354D01*
X137734354Y-118809853D01*
X137586784Y-118908456D01*
X137422812Y-118976376D01*
X137273512Y-119006073D01*
X137248742Y-119011000D01*
X137071258Y-119011000D01*
X137046488Y-119006073D01*
X136897188Y-118976376D01*
X136733216Y-118908456D01*
X136585646Y-118809853D01*
X136460147Y-118684354D01*
X136361544Y-118536784D01*
X136293624Y-118372812D01*
X136259000Y-118198741D01*
X136259000Y-118021259D01*
X136259623Y-118018129D01*
X136266877Y-117981658D01*
X136293624Y-117847188D01*
X136361544Y-117683216D01*
X136460147Y-117535646D01*
X136585646Y-117410147D01*
X136733216Y-117311544D01*
X136897188Y-117243624D01*
X137046488Y-117213927D01*
X137071258Y-117209000D01*
X137248742Y-117209000D01*
X137273512Y-117213927D01*
G37*
G36*
X144470222Y-117647488D02*
G01*
X143549569Y-118568141D01*
X142487494Y-117506066D01*
X143408147Y-116585413D01*
X144470222Y-117647488D01*
G37*
G36*
X141712506Y-117293934D02*
G01*
X140791853Y-118214587D01*
X139729778Y-117152512D01*
X140650431Y-116231859D01*
X141712506Y-117293934D01*
G37*
G36*
X142914587Y-116091853D02*
G01*
X141993934Y-117012506D01*
X140931859Y-115950431D01*
X141852512Y-115029778D01*
X142914587Y-116091853D01*
G37*
G36*
X160133512Y-114673927D02*
G01*
X160282812Y-114703624D01*
X160446784Y-114771544D01*
X160594354Y-114870147D01*
X160719853Y-114995646D01*
X160818456Y-115143216D01*
X160886376Y-115307188D01*
X160906352Y-115407619D01*
X160921000Y-115481258D01*
X160921000Y-115658742D01*
X160916570Y-115681015D01*
X160886376Y-115832812D01*
X160818456Y-115996784D01*
X160719853Y-116144354D01*
X160594354Y-116269853D01*
X160446784Y-116368456D01*
X160282812Y-116436376D01*
X160133512Y-116466073D01*
X160108742Y-116471000D01*
X159931258Y-116471000D01*
X159906488Y-116466073D01*
X159757188Y-116436376D01*
X159593216Y-116368456D01*
X159445646Y-116269853D01*
X159320147Y-116144354D01*
X159221544Y-115996784D01*
X159153624Y-115832812D01*
X159123430Y-115681015D01*
X159119000Y-115658742D01*
X159119000Y-115481258D01*
X159133648Y-115407619D01*
X159153624Y-115307188D01*
X159221544Y-115143216D01*
X159320147Y-114995646D01*
X159445646Y-114870147D01*
X159593216Y-114771544D01*
X159757188Y-114703624D01*
X159906488Y-114673927D01*
X159931258Y-114669000D01*
X160108742Y-114669000D01*
X160133512Y-114673927D01*
G37*
G36*
X137273512Y-114673927D02*
G01*
X137422812Y-114703624D01*
X137586784Y-114771544D01*
X137734354Y-114870147D01*
X137859853Y-114995646D01*
X137958456Y-115143216D01*
X138026376Y-115307188D01*
X138046352Y-115407619D01*
X138061000Y-115481258D01*
X138061000Y-115658742D01*
X138056570Y-115681015D01*
X138026376Y-115832812D01*
X137958456Y-115996784D01*
X137859853Y-116144354D01*
X137734354Y-116269853D01*
X137586784Y-116368456D01*
X137422812Y-116436376D01*
X137273512Y-116466073D01*
X137248742Y-116471000D01*
X137071258Y-116471000D01*
X137046488Y-116466073D01*
X136897188Y-116436376D01*
X136733216Y-116368456D01*
X136585646Y-116269853D01*
X136460147Y-116144354D01*
X136361544Y-115996784D01*
X136293624Y-115832812D01*
X136263430Y-115681015D01*
X136259000Y-115658742D01*
X136259000Y-115481258D01*
X136273648Y-115407619D01*
X136293624Y-115307188D01*
X136361544Y-115143216D01*
X136460147Y-114995646D01*
X136585646Y-114870147D01*
X136733216Y-114771544D01*
X136897188Y-114703624D01*
X137046488Y-114673927D01*
X137071258Y-114669000D01*
X137248742Y-114669000D01*
X137273512Y-114673927D01*
G37*
G36*
X139801977Y-114968855D02*
G01*
X139835955Y-114979163D01*
X139867276Y-114995904D01*
X139899490Y-115022342D01*
X139939341Y-115062193D01*
X139939347Y-115062198D01*
X140337802Y-115460653D01*
X140337807Y-115460659D01*
X140377658Y-115500510D01*
X140404096Y-115532724D01*
X140420837Y-115564045D01*
X140431145Y-115598023D01*
X140434625Y-115633364D01*
X140431145Y-115668705D01*
X140420837Y-115702683D01*
X140404096Y-115734004D01*
X140377658Y-115766218D01*
X140337807Y-115806069D01*
X140337802Y-115806075D01*
X139992381Y-116151496D01*
X139992375Y-116151501D01*
X139952524Y-116191352D01*
X139920310Y-116217790D01*
X139888989Y-116234531D01*
X139855011Y-116244839D01*
X139819670Y-116248319D01*
X139784329Y-116244839D01*
X139750351Y-116234531D01*
X139719030Y-116217790D01*
X139686816Y-116191352D01*
X139646965Y-116151501D01*
X139646959Y-116151496D01*
X139248504Y-115753041D01*
X139248499Y-115753035D01*
X139208648Y-115713184D01*
X139182210Y-115680970D01*
X139165469Y-115649649D01*
X139155161Y-115615671D01*
X139151681Y-115580330D01*
X139155161Y-115544989D01*
X139165469Y-115511011D01*
X139182210Y-115479690D01*
X139208648Y-115447476D01*
X139248499Y-115407625D01*
X139248504Y-115407619D01*
X139593925Y-115062198D01*
X139593931Y-115062193D01*
X139633782Y-115022342D01*
X139665996Y-114995904D01*
X139697317Y-114979163D01*
X139731295Y-114968855D01*
X139766636Y-114965375D01*
X139801977Y-114968855D01*
G37*
G36*
X140915671Y-113855161D02*
G01*
X140949649Y-113865469D01*
X140980970Y-113882210D01*
X141013184Y-113908648D01*
X141053035Y-113948499D01*
X141053041Y-113948504D01*
X141451496Y-114346959D01*
X141451501Y-114346965D01*
X141491352Y-114386816D01*
X141517790Y-114419030D01*
X141534531Y-114450351D01*
X141544839Y-114484329D01*
X141548319Y-114519670D01*
X141544839Y-114555011D01*
X141534531Y-114588989D01*
X141517790Y-114620310D01*
X141491352Y-114652524D01*
X141451501Y-114692375D01*
X141451496Y-114692381D01*
X141106075Y-115037802D01*
X141106069Y-115037807D01*
X141066218Y-115077658D01*
X141034004Y-115104096D01*
X141002683Y-115120837D01*
X140968705Y-115131145D01*
X140933364Y-115134625D01*
X140898023Y-115131145D01*
X140864045Y-115120837D01*
X140832724Y-115104096D01*
X140800510Y-115077658D01*
X140760659Y-115037807D01*
X140760653Y-115037802D01*
X140362198Y-114639347D01*
X140362193Y-114639341D01*
X140322342Y-114599490D01*
X140295904Y-114567276D01*
X140279163Y-114535955D01*
X140268855Y-114501977D01*
X140265375Y-114466636D01*
X140268855Y-114431295D01*
X140279163Y-114397317D01*
X140295904Y-114365996D01*
X140322342Y-114333782D01*
X140362193Y-114293931D01*
X140362198Y-114293925D01*
X140707619Y-113948504D01*
X140707625Y-113948499D01*
X140747476Y-113908648D01*
X140779690Y-113882210D01*
X140811011Y-113865469D01*
X140844989Y-113855161D01*
X140880330Y-113851681D01*
X140915671Y-113855161D01*
G37*
G36*
X160133512Y-112133927D02*
G01*
X160282812Y-112163624D01*
X160446784Y-112231544D01*
X160594354Y-112330147D01*
X160719853Y-112455646D01*
X160818456Y-112603216D01*
X160886376Y-112767188D01*
X160921000Y-112941259D01*
X160921000Y-113118741D01*
X160886376Y-113292812D01*
X160818456Y-113456784D01*
X160719853Y-113604354D01*
X160594354Y-113729853D01*
X160446784Y-113828456D01*
X160282812Y-113896376D01*
X160133512Y-113926073D01*
X160108742Y-113931000D01*
X159931258Y-113931000D01*
X159906488Y-113926073D01*
X159757188Y-113896376D01*
X159593216Y-113828456D01*
X159445646Y-113729853D01*
X159320147Y-113604354D01*
X159221544Y-113456784D01*
X159153624Y-113292812D01*
X159119000Y-113118741D01*
X159119000Y-112941259D01*
X159153624Y-112767188D01*
X159221544Y-112603216D01*
X159320147Y-112455646D01*
X159445646Y-112330147D01*
X159593216Y-112231544D01*
X159757188Y-112163624D01*
X159906488Y-112133927D01*
X159931258Y-112129000D01*
X160108742Y-112129000D01*
X160133512Y-112133927D01*
G37*
G36*
X137273512Y-112133927D02*
G01*
X137422812Y-112163624D01*
X137586784Y-112231544D01*
X137734354Y-112330147D01*
X137859853Y-112455646D01*
X137958456Y-112603216D01*
X138026376Y-112767188D01*
X138061000Y-112941259D01*
X138061000Y-113118741D01*
X138026376Y-113292812D01*
X137958456Y-113456784D01*
X137859853Y-113604354D01*
X137734354Y-113729853D01*
X137586784Y-113828456D01*
X137422812Y-113896376D01*
X137273512Y-113926073D01*
X137248742Y-113931000D01*
X137071258Y-113931000D01*
X137046488Y-113926073D01*
X136897188Y-113896376D01*
X136733216Y-113828456D01*
X136585646Y-113729853D01*
X136460147Y-113604354D01*
X136361544Y-113456784D01*
X136293624Y-113292812D01*
X136259000Y-113118741D01*
X136259000Y-112941259D01*
X136293624Y-112767188D01*
X136361544Y-112603216D01*
X136460147Y-112455646D01*
X136585646Y-112330147D01*
X136733216Y-112231544D01*
X136897188Y-112163624D01*
X137046488Y-112133927D01*
X137071258Y-112129000D01*
X137248742Y-112129000D01*
X137273512Y-112133927D01*
G37*
G36*
X160133512Y-109593927D02*
G01*
X160282812Y-109623624D01*
X160446784Y-109691544D01*
X160594354Y-109790147D01*
X160719853Y-109915646D01*
X160818456Y-110063216D01*
X160886376Y-110227188D01*
X160921000Y-110401259D01*
X160921000Y-110578741D01*
X160886376Y-110752812D01*
X160818456Y-110916784D01*
X160719853Y-111064354D01*
X160594354Y-111189853D01*
X160446784Y-111288456D01*
X160282812Y-111356376D01*
X160133512Y-111386073D01*
X160108742Y-111391000D01*
X159931258Y-111391000D01*
X159906488Y-111386073D01*
X159757188Y-111356376D01*
X159593216Y-111288456D01*
X159445646Y-111189853D01*
X159320147Y-111064354D01*
X159221544Y-110916784D01*
X159153624Y-110752812D01*
X159119000Y-110578741D01*
X159119000Y-110401259D01*
X159153624Y-110227188D01*
X159221544Y-110063216D01*
X159320147Y-109915646D01*
X159445646Y-109790147D01*
X159593216Y-109691544D01*
X159757188Y-109623624D01*
X159906488Y-109593927D01*
X159931258Y-109589000D01*
X160108742Y-109589000D01*
X160133512Y-109593927D01*
G37*
G36*
X137273512Y-109593927D02*
G01*
X137422812Y-109623624D01*
X137586784Y-109691544D01*
X137734354Y-109790147D01*
X137859853Y-109915646D01*
X137958456Y-110063216D01*
X138026376Y-110227188D01*
X138061000Y-110401259D01*
X138061000Y-110578741D01*
X138026376Y-110752812D01*
X137958456Y-110916784D01*
X137859853Y-111064354D01*
X137734354Y-111189853D01*
X137586784Y-111288456D01*
X137422812Y-111356376D01*
X137273512Y-111386073D01*
X137248742Y-111391000D01*
X137071258Y-111391000D01*
X137046488Y-111386073D01*
X136897188Y-111356376D01*
X136733216Y-111288456D01*
X136585646Y-111189853D01*
X136460147Y-111064354D01*
X136361544Y-110916784D01*
X136293624Y-110752812D01*
X136259000Y-110578741D01*
X136259000Y-110401259D01*
X136293624Y-110227188D01*
X136361544Y-110063216D01*
X136460147Y-109915646D01*
X136585646Y-109790147D01*
X136733216Y-109691544D01*
X136897188Y-109623624D01*
X137046488Y-109593927D01*
X137071258Y-109589000D01*
X137248742Y-109589000D01*
X137273512Y-109593927D01*
G37*
G36*
X150687374Y-104526571D02*
G01*
X150687379Y-104526577D01*
X151746626Y-105585824D01*
X151746632Y-105585829D01*
X152384430Y-106223627D01*
X152384435Y-106223633D01*
X152877997Y-106717195D01*
X152878003Y-106717200D01*
X153515801Y-107354998D01*
X153515806Y-107355004D01*
X154009368Y-107848566D01*
X154009374Y-107848571D01*
X154647172Y-108486369D01*
X154647177Y-108486375D01*
X155706424Y-109545622D01*
X155706430Y-109545627D01*
X156255845Y-110095042D01*
X155123060Y-111227827D01*
X154645763Y-110750530D01*
X154645757Y-110750525D01*
X153442274Y-109547042D01*
X153442269Y-109547036D01*
X152948707Y-109053474D01*
X152948701Y-109053469D01*
X152310903Y-108415671D01*
X152310898Y-108415665D01*
X151817336Y-107922103D01*
X151817330Y-107922098D01*
X151179532Y-107284300D01*
X151179527Y-107284294D01*
X150685965Y-106790732D01*
X150685959Y-106790727D01*
X149482476Y-105587244D01*
X149482471Y-105587238D01*
X149005173Y-105109940D01*
X150137958Y-103977155D01*
X150687374Y-104526571D01*
G37*
G36*
X148194827Y-105109940D02*
G01*
X147717530Y-105587238D01*
X142554238Y-110750530D01*
X142076940Y-111227827D01*
X140944155Y-110095042D01*
X141493566Y-109545631D01*
X141493577Y-109545622D01*
X141509841Y-109529357D01*
X142536559Y-108502639D01*
X142552824Y-108486375D01*
X142552833Y-108486364D01*
X143190622Y-107848575D01*
X143190633Y-107848566D01*
X143206898Y-107832302D01*
X143206897Y-107832301D01*
X143667930Y-107371268D01*
X143667931Y-107371269D01*
X143684195Y-107355004D01*
X143684204Y-107354993D01*
X144321993Y-106717204D01*
X144322004Y-106717195D01*
X144338269Y-106700931D01*
X144338268Y-106700930D01*
X144799301Y-106239897D01*
X144799302Y-106239898D01*
X144815566Y-106223633D01*
X144815575Y-106223622D01*
X145453364Y-105585833D01*
X145453375Y-105585824D01*
X145469639Y-105569559D01*
X146496357Y-104542841D01*
X146512622Y-104526577D01*
X146512631Y-104526566D01*
X147062042Y-103977155D01*
X148194827Y-105109940D01*
G37*
G36*
X160133512Y-107053927D02*
G01*
X160282812Y-107083624D01*
X160446784Y-107151544D01*
X160594354Y-107250147D01*
X160719853Y-107375646D01*
X160818456Y-107523216D01*
X160886376Y-107687188D01*
X160921000Y-107861259D01*
X160921000Y-108038741D01*
X160886376Y-108212812D01*
X160818456Y-108376784D01*
X160719853Y-108524354D01*
X160594354Y-108649853D01*
X160446784Y-108748456D01*
X160282812Y-108816376D01*
X160133512Y-108846073D01*
X160108742Y-108851000D01*
X159931258Y-108851000D01*
X159906488Y-108846073D01*
X159757188Y-108816376D01*
X159593216Y-108748456D01*
X159445646Y-108649853D01*
X159320147Y-108524354D01*
X159221544Y-108376784D01*
X159153624Y-108212812D01*
X159119000Y-108038741D01*
X159119000Y-107861259D01*
X159153624Y-107687188D01*
X159221544Y-107523216D01*
X159320147Y-107375646D01*
X159445646Y-107250147D01*
X159593216Y-107151544D01*
X159757188Y-107083624D01*
X159906488Y-107053927D01*
X159931258Y-107049000D01*
X160108742Y-107049000D01*
X160133512Y-107053927D01*
G37*
G36*
X137273512Y-107053927D02*
G01*
X137422812Y-107083624D01*
X137586784Y-107151544D01*
X137734354Y-107250147D01*
X137859853Y-107375646D01*
X137958456Y-107523216D01*
X138026376Y-107687188D01*
X138061000Y-107861259D01*
X138061000Y-108038741D01*
X138026376Y-108212812D01*
X137958456Y-108376784D01*
X137859853Y-108524354D01*
X137734354Y-108649853D01*
X137586784Y-108748456D01*
X137422812Y-108816376D01*
X137273512Y-108846073D01*
X137248742Y-108851000D01*
X137071258Y-108851000D01*
X137046488Y-108846073D01*
X136897188Y-108816376D01*
X136733216Y-108748456D01*
X136585646Y-108649853D01*
X136460147Y-108524354D01*
X136361544Y-108376784D01*
X136293624Y-108212812D01*
X136259000Y-108038741D01*
X136259000Y-107861259D01*
X136293624Y-107687188D01*
X136361544Y-107523216D01*
X136460147Y-107375646D01*
X136585646Y-107250147D01*
X136733216Y-107151544D01*
X136897188Y-107083624D01*
X137046488Y-107053927D01*
X137071258Y-107049000D01*
X137248742Y-107049000D01*
X137273512Y-107053927D01*
G37*
G36*
X156218705Y-107318855D02*
G01*
X156252683Y-107329163D01*
X156284004Y-107345904D01*
X156316218Y-107372342D01*
X156356069Y-107412193D01*
X156356075Y-107412198D01*
X156701496Y-107757619D01*
X156701501Y-107757625D01*
X156741352Y-107797476D01*
X156767790Y-107829690D01*
X156784531Y-107861011D01*
X156794839Y-107894989D01*
X156798319Y-107930330D01*
X156794839Y-107965671D01*
X156784531Y-107999649D01*
X156767790Y-108030970D01*
X156741352Y-108063184D01*
X156701501Y-108103035D01*
X156701496Y-108103041D01*
X156303041Y-108501496D01*
X156303035Y-108501501D01*
X156263184Y-108541352D01*
X156230970Y-108567790D01*
X156199649Y-108584531D01*
X156165671Y-108594839D01*
X156130330Y-108598319D01*
X156094989Y-108594839D01*
X156061011Y-108584531D01*
X156029690Y-108567790D01*
X155997476Y-108541352D01*
X155957625Y-108501501D01*
X155957619Y-108501496D01*
X155612198Y-108156075D01*
X155612193Y-108156069D01*
X155572342Y-108116218D01*
X155545904Y-108084004D01*
X155529163Y-108052683D01*
X155518855Y-108018705D01*
X155515375Y-107983364D01*
X155518855Y-107948023D01*
X155529163Y-107914045D01*
X155545904Y-107882724D01*
X155572342Y-107850510D01*
X155612193Y-107810659D01*
X155612198Y-107810653D01*
X156010653Y-107412198D01*
X156010659Y-107412193D01*
X156050510Y-107372342D01*
X156082724Y-107345904D01*
X156114045Y-107329163D01*
X156148023Y-107318855D01*
X156183364Y-107315375D01*
X156218705Y-107318855D01*
G37*
G36*
X155105011Y-106205161D02*
G01*
X155138989Y-106215469D01*
X155170310Y-106232210D01*
X155202524Y-106258648D01*
X155242375Y-106298499D01*
X155242381Y-106298504D01*
X155587802Y-106643925D01*
X155587807Y-106643931D01*
X155627658Y-106683782D01*
X155654096Y-106715996D01*
X155670837Y-106747317D01*
X155681145Y-106781295D01*
X155684625Y-106816636D01*
X155681145Y-106851977D01*
X155670837Y-106885955D01*
X155654096Y-106917276D01*
X155627658Y-106949490D01*
X155587807Y-106989341D01*
X155587802Y-106989347D01*
X155189347Y-107387802D01*
X155189341Y-107387807D01*
X155149490Y-107427658D01*
X155117276Y-107454096D01*
X155085955Y-107470837D01*
X155051977Y-107481145D01*
X155016636Y-107484625D01*
X154981295Y-107481145D01*
X154947317Y-107470837D01*
X154915996Y-107454096D01*
X154883782Y-107427658D01*
X154843931Y-107387807D01*
X154843925Y-107387802D01*
X154498504Y-107042381D01*
X154498499Y-107042375D01*
X154458648Y-107002524D01*
X154432210Y-106970310D01*
X154415469Y-106938989D01*
X154405161Y-106905011D01*
X154401681Y-106869670D01*
X154405161Y-106834329D01*
X154415469Y-106800351D01*
X154432210Y-106769030D01*
X154458648Y-106736816D01*
X154498499Y-106696965D01*
X154498504Y-106696959D01*
X154896959Y-106298504D01*
X154896965Y-106298499D01*
X154936816Y-106258648D01*
X154969030Y-106232210D01*
X155000351Y-106215469D01*
X155034329Y-106205161D01*
X155069670Y-106201681D01*
X155105011Y-106205161D01*
G37*
G36*
X137273512Y-104513927D02*
G01*
X137422812Y-104543624D01*
X137586784Y-104611544D01*
X137734354Y-104710147D01*
X137859853Y-104835646D01*
X137958456Y-104983216D01*
X138026376Y-105147188D01*
X138061000Y-105321259D01*
X138061000Y-105498741D01*
X138026376Y-105672812D01*
X137958456Y-105836784D01*
X137859853Y-105984354D01*
X137734354Y-106109853D01*
X137586784Y-106208456D01*
X137422812Y-106276376D01*
X137273512Y-106306073D01*
X137248742Y-106311000D01*
X137071258Y-106311000D01*
X137046488Y-106306073D01*
X136897188Y-106276376D01*
X136733216Y-106208456D01*
X136585646Y-106109853D01*
X136460147Y-105984354D01*
X136361544Y-105836784D01*
X136293624Y-105672812D01*
X136259000Y-105498741D01*
X136259000Y-105321259D01*
X136293624Y-105147188D01*
X136361544Y-104983216D01*
X136460147Y-104835646D01*
X136585646Y-104710147D01*
X136733216Y-104611544D01*
X136897188Y-104543624D01*
X137046488Y-104513927D01*
X137071258Y-104509000D01*
X137248742Y-104509000D01*
X137273512Y-104513927D01*
G37*
G36*
X160133512Y-104513927D02*
G01*
X160282812Y-104543624D01*
X160446784Y-104611544D01*
X160594354Y-104710147D01*
X160719853Y-104835646D01*
X160818456Y-104983216D01*
X160886376Y-105147188D01*
X160921000Y-105321259D01*
X160921000Y-105498741D01*
X160886376Y-105672812D01*
X160818456Y-105836784D01*
X160719853Y-105984354D01*
X160594354Y-106109853D01*
X160446784Y-106208456D01*
X160282812Y-106276376D01*
X160133512Y-106306073D01*
X160108742Y-106311000D01*
X159931258Y-106311000D01*
X159906488Y-106306073D01*
X159757188Y-106276376D01*
X159593216Y-106208456D01*
X159445646Y-106109853D01*
X159320147Y-105984354D01*
X159221544Y-105836784D01*
X159153624Y-105672812D01*
X159119000Y-105498741D01*
X159119000Y-105321259D01*
X159153624Y-105147188D01*
X159221544Y-104983216D01*
X159320147Y-104835646D01*
X159445646Y-104710147D01*
X159593216Y-104611544D01*
X159757188Y-104543624D01*
X159906488Y-104513927D01*
X159931258Y-104509000D01*
X160108742Y-104509000D01*
X160133512Y-104513927D01*
G37*
G36*
X142320458Y-104651889D02*
G01*
X142359128Y-104663620D01*
X142394767Y-104682670D01*
X142430773Y-104712219D01*
X142470623Y-104752069D01*
X142470629Y-104752074D01*
X143151926Y-105433371D01*
X143151931Y-105433377D01*
X143191781Y-105473227D01*
X143221330Y-105509233D01*
X143240380Y-105544872D01*
X143252111Y-105583542D01*
X143256071Y-105623760D01*
X143252111Y-105663978D01*
X143240380Y-105702648D01*
X143221330Y-105738287D01*
X143191781Y-105774293D01*
X143151931Y-105814143D01*
X143151926Y-105814149D01*
X142771149Y-106194926D01*
X142771143Y-106194931D01*
X142731293Y-106234781D01*
X142695287Y-106264330D01*
X142659648Y-106283380D01*
X142620978Y-106295111D01*
X142580760Y-106299071D01*
X142540542Y-106295111D01*
X142501872Y-106283380D01*
X142466233Y-106264330D01*
X142430227Y-106234781D01*
X142390377Y-106194931D01*
X142390371Y-106194926D01*
X141709074Y-105513629D01*
X141709069Y-105513623D01*
X141669219Y-105473773D01*
X141639670Y-105437767D01*
X141620620Y-105402128D01*
X141608889Y-105363458D01*
X141604929Y-105323240D01*
X141608889Y-105283022D01*
X141620620Y-105244352D01*
X141639670Y-105208713D01*
X141669219Y-105172707D01*
X141709069Y-105132857D01*
X141709074Y-105132851D01*
X142089851Y-104752074D01*
X142089857Y-104752069D01*
X142129707Y-104712219D01*
X142165713Y-104682670D01*
X142201352Y-104663620D01*
X142240022Y-104651889D01*
X142280240Y-104647929D01*
X142320458Y-104651889D01*
G37*
G36*
X143646284Y-103326063D02*
G01*
X143684954Y-103337794D01*
X143720593Y-103356844D01*
X143756599Y-103386393D01*
X143796449Y-103426243D01*
X143796455Y-103426248D01*
X144477752Y-104107545D01*
X144477757Y-104107551D01*
X144517607Y-104147401D01*
X144547156Y-104183407D01*
X144566206Y-104219046D01*
X144577937Y-104257716D01*
X144581897Y-104297934D01*
X144577937Y-104338152D01*
X144566206Y-104376822D01*
X144547156Y-104412461D01*
X144517607Y-104448467D01*
X144477757Y-104488317D01*
X144477752Y-104488323D01*
X144096975Y-104869100D01*
X144096969Y-104869105D01*
X144057119Y-104908955D01*
X144021113Y-104938504D01*
X143985474Y-104957554D01*
X143946804Y-104969285D01*
X143906586Y-104973245D01*
X143866368Y-104969285D01*
X143827698Y-104957554D01*
X143792059Y-104938504D01*
X143756053Y-104908955D01*
X143716203Y-104869105D01*
X143716197Y-104869100D01*
X143034900Y-104187803D01*
X143034895Y-104187797D01*
X142995045Y-104147947D01*
X142965496Y-104111941D01*
X142946446Y-104076302D01*
X142934715Y-104037632D01*
X142930755Y-103997414D01*
X142934715Y-103957196D01*
X142946446Y-103918526D01*
X142965496Y-103882887D01*
X142995045Y-103846881D01*
X143034895Y-103807031D01*
X143034900Y-103807025D01*
X143415677Y-103426248D01*
X143415683Y-103426243D01*
X143455533Y-103386393D01*
X143491539Y-103356844D01*
X143527178Y-103337794D01*
X143565848Y-103326063D01*
X143606066Y-103322103D01*
X143646284Y-103326063D01*
G37*
G36*
X137273512Y-101973927D02*
G01*
X137422812Y-102003624D01*
X137586784Y-102071544D01*
X137734354Y-102170147D01*
X137859853Y-102295646D01*
X137958456Y-102443216D01*
X138026376Y-102607188D01*
X138061000Y-102781259D01*
X138061000Y-102958741D01*
X138026376Y-103132812D01*
X137958456Y-103296784D01*
X137859853Y-103444354D01*
X137734354Y-103569853D01*
X137586784Y-103668456D01*
X137422812Y-103736376D01*
X137273512Y-103766073D01*
X137248742Y-103771000D01*
X137071258Y-103771000D01*
X137046488Y-103766073D01*
X136897188Y-103736376D01*
X136733216Y-103668456D01*
X136585646Y-103569853D01*
X136460147Y-103444354D01*
X136361544Y-103296784D01*
X136293624Y-103132812D01*
X136259000Y-102958741D01*
X136259000Y-102781259D01*
X136293624Y-102607188D01*
X136361544Y-102443216D01*
X136460147Y-102295646D01*
X136585646Y-102170147D01*
X136733216Y-102071544D01*
X136897188Y-102003624D01*
X137046488Y-101973927D01*
X137071258Y-101969000D01*
X137248742Y-101969000D01*
X137273512Y-101973927D01*
G37*
G36*
X160133512Y-101973927D02*
G01*
X160282812Y-102003624D01*
X160446784Y-102071544D01*
X160594354Y-102170147D01*
X160719853Y-102295646D01*
X160818456Y-102443216D01*
X160886376Y-102607188D01*
X160921000Y-102781259D01*
X160921000Y-102958741D01*
X160886376Y-103132812D01*
X160818456Y-103296784D01*
X160719853Y-103444354D01*
X160594354Y-103569853D01*
X160446784Y-103668456D01*
X160282812Y-103736376D01*
X160133512Y-103766073D01*
X160108742Y-103771000D01*
X159931258Y-103771000D01*
X159906488Y-103766073D01*
X159757188Y-103736376D01*
X159593216Y-103668456D01*
X159445646Y-103569853D01*
X159320147Y-103444354D01*
X159221544Y-103296784D01*
X159153624Y-103132812D01*
X159119000Y-102958741D01*
X159119000Y-102781259D01*
X159153624Y-102607188D01*
X159221544Y-102443216D01*
X159320147Y-102295646D01*
X159445646Y-102170147D01*
X159593216Y-102071544D01*
X159757188Y-102003624D01*
X159906488Y-101973927D01*
X159931258Y-101969000D01*
X160108742Y-101969000D01*
X160133512Y-101973927D01*
G37*
G36*
X152843091Y-102284085D02*
G01*
X152877069Y-102294393D01*
X152908390Y-102311134D01*
X152935839Y-102333661D01*
X152958366Y-102361110D01*
X152975107Y-102392431D01*
X152985415Y-102426409D01*
X152989500Y-102467890D01*
X152989500Y-103069110D01*
X152985415Y-103110591D01*
X152975107Y-103144569D01*
X152958366Y-103175890D01*
X152935839Y-103203339D01*
X152908390Y-103225866D01*
X152877069Y-103242607D01*
X152843091Y-103252915D01*
X152801610Y-103257000D01*
X152125390Y-103257000D01*
X152083909Y-103252915D01*
X152049931Y-103242607D01*
X152018610Y-103225866D01*
X151991161Y-103203339D01*
X151968634Y-103175890D01*
X151951893Y-103144569D01*
X151941585Y-103110591D01*
X151937500Y-103069110D01*
X151937500Y-102467890D01*
X151941585Y-102426409D01*
X151951893Y-102392431D01*
X151968634Y-102361110D01*
X151991161Y-102333661D01*
X152018610Y-102311134D01*
X152049931Y-102294393D01*
X152083909Y-102284085D01*
X152125390Y-102280000D01*
X152801610Y-102280000D01*
X152843091Y-102284085D01*
G37*
G36*
X147708604Y-100678347D02*
G01*
X147745144Y-100689432D01*
X147778821Y-100707433D01*
X147808341Y-100731659D01*
X147832567Y-100761179D01*
X147850568Y-100794856D01*
X147861653Y-100831396D01*
X147866000Y-100875538D01*
X147866000Y-102324462D01*
X147861653Y-102368604D01*
X147850568Y-102405144D01*
X147832567Y-102438821D01*
X147808341Y-102468341D01*
X147778821Y-102492567D01*
X147745144Y-102510568D01*
X147708604Y-102521653D01*
X147664462Y-102526000D01*
X146715538Y-102526000D01*
X146671396Y-102521653D01*
X146634856Y-102510568D01*
X146601179Y-102492567D01*
X146571659Y-102468341D01*
X146547433Y-102438821D01*
X146529432Y-102405144D01*
X146518347Y-102368604D01*
X146514000Y-102324462D01*
X146514000Y-100875538D01*
X146518347Y-100831396D01*
X146529432Y-100794856D01*
X146547433Y-100761179D01*
X146571659Y-100731659D01*
X146601179Y-100707433D01*
X146634856Y-100689432D01*
X146671396Y-100678347D01*
X146715538Y-100674000D01*
X147664462Y-100674000D01*
X147708604Y-100678347D01*
G37*
G36*
X150508604Y-100678347D02*
G01*
X150545144Y-100689432D01*
X150578821Y-100707433D01*
X150608341Y-100731659D01*
X150632567Y-100761179D01*
X150650568Y-100794856D01*
X150661653Y-100831396D01*
X150666000Y-100875538D01*
X150666000Y-102324462D01*
X150661653Y-102368604D01*
X150650568Y-102405144D01*
X150632567Y-102438821D01*
X150608341Y-102468341D01*
X150578821Y-102492567D01*
X150545144Y-102510568D01*
X150508604Y-102521653D01*
X150464462Y-102526000D01*
X149515538Y-102526000D01*
X149471396Y-102521653D01*
X149434856Y-102510568D01*
X149401179Y-102492567D01*
X149371659Y-102468341D01*
X149347433Y-102438821D01*
X149329432Y-102405144D01*
X149318347Y-102368604D01*
X149314000Y-102324462D01*
X149314000Y-100875538D01*
X149318347Y-100831396D01*
X149329432Y-100794856D01*
X149347433Y-100761179D01*
X149371659Y-100731659D01*
X149401179Y-100707433D01*
X149434856Y-100689432D01*
X149471396Y-100678347D01*
X149515538Y-100674000D01*
X150464462Y-100674000D01*
X150508604Y-100678347D01*
G37*
G36*
X152843091Y-100709085D02*
G01*
X152877069Y-100719393D01*
X152908390Y-100736134D01*
X152935839Y-100758661D01*
X152958366Y-100786110D01*
X152975107Y-100817431D01*
X152985415Y-100851409D01*
X152989500Y-100892890D01*
X152989500Y-101494110D01*
X152985415Y-101535591D01*
X152975107Y-101569569D01*
X152958366Y-101600890D01*
X152935839Y-101628339D01*
X152908390Y-101650866D01*
X152877069Y-101667607D01*
X152843091Y-101677915D01*
X152801610Y-101682000D01*
X152125390Y-101682000D01*
X152083909Y-101677915D01*
X152049931Y-101667607D01*
X152018610Y-101650866D01*
X151991161Y-101628339D01*
X151968634Y-101600890D01*
X151951893Y-101569569D01*
X151941585Y-101535591D01*
X151937500Y-101494110D01*
X151937500Y-100892890D01*
X151941585Y-100851409D01*
X151951893Y-100817431D01*
X151968634Y-100786110D01*
X151991161Y-100758661D01*
X152018610Y-100736134D01*
X152049931Y-100719393D01*
X152083909Y-100709085D01*
X152125390Y-100705000D01*
X152801610Y-100705000D01*
X152843091Y-100709085D01*
G37*
G36*
X160133512Y-99433927D02*
G01*
X160282812Y-99463624D01*
X160446784Y-99531544D01*
X160594354Y-99630147D01*
X160719853Y-99755646D01*
X160818456Y-99903216D01*
X160886376Y-100067188D01*
X160921000Y-100241259D01*
X160921000Y-100418741D01*
X160886376Y-100592812D01*
X160818456Y-100756784D01*
X160719853Y-100904354D01*
X160594354Y-101029853D01*
X160446784Y-101128456D01*
X160282812Y-101196376D01*
X160133512Y-101226073D01*
X160108742Y-101231000D01*
X159931258Y-101231000D01*
X159906488Y-101226073D01*
X159757188Y-101196376D01*
X159593216Y-101128456D01*
X159445646Y-101029853D01*
X159320147Y-100904354D01*
X159221544Y-100756784D01*
X159153624Y-100592812D01*
X159119000Y-100418741D01*
X159119000Y-100241259D01*
X159153624Y-100067188D01*
X159221544Y-99903216D01*
X159320147Y-99755646D01*
X159445646Y-99630147D01*
X159593216Y-99531544D01*
X159757188Y-99463624D01*
X159906488Y-99433927D01*
X159931258Y-99429000D01*
X160108742Y-99429000D01*
X160133512Y-99433927D01*
G37*
G36*
X137273512Y-99433927D02*
G01*
X137422812Y-99463624D01*
X137586784Y-99531544D01*
X137734354Y-99630147D01*
X137859853Y-99755646D01*
X137958456Y-99903216D01*
X138026376Y-100067188D01*
X138061000Y-100241259D01*
X138061000Y-100418741D01*
X138026376Y-100592812D01*
X137958456Y-100756784D01*
X137859853Y-100904354D01*
X137734354Y-101029853D01*
X137586784Y-101128456D01*
X137422812Y-101196376D01*
X137273512Y-101226073D01*
X137248742Y-101231000D01*
X137071258Y-101231000D01*
X137046488Y-101226073D01*
X136897188Y-101196376D01*
X136733216Y-101128456D01*
X136585646Y-101029853D01*
X136460147Y-100904354D01*
X136361544Y-100756784D01*
X136293624Y-100592812D01*
X136259000Y-100418741D01*
X136259000Y-100241259D01*
X136293624Y-100067188D01*
X136361544Y-99903216D01*
X136460147Y-99755646D01*
X136585646Y-99630147D01*
X136733216Y-99531544D01*
X136897188Y-99463624D01*
X137046488Y-99433927D01*
X137071258Y-99429000D01*
X137248742Y-99429000D01*
X137273512Y-99433927D01*
G37*
G36*
X150581000Y-99926000D02*
G01*
X149419000Y-99926000D01*
X149419000Y-97274000D01*
X150581000Y-97274000D01*
X150581000Y-99926000D01*
G37*
G36*
X148381000Y-99926000D02*
G01*
X147219000Y-99926000D01*
X147219000Y-99174000D01*
X148381000Y-99174000D01*
X148381000Y-99926000D01*
G37*
G36*
X154092091Y-98665085D02*
G01*
X154126069Y-98675393D01*
X154157390Y-98692134D01*
X154184839Y-98714661D01*
X154207366Y-98742110D01*
X154224107Y-98773431D01*
X154234415Y-98807409D01*
X154238500Y-98848890D01*
X154238500Y-99525110D01*
X154234415Y-99566591D01*
X154224107Y-99600569D01*
X154207366Y-99631890D01*
X154184839Y-99659339D01*
X154157390Y-99681866D01*
X154126069Y-99698607D01*
X154092091Y-99708915D01*
X154050610Y-99713000D01*
X153449390Y-99713000D01*
X153407909Y-99708915D01*
X153373931Y-99698607D01*
X153342610Y-99681866D01*
X153315161Y-99659339D01*
X153292634Y-99631890D01*
X153275893Y-99600569D01*
X153265585Y-99566591D01*
X153261500Y-99525110D01*
X153261500Y-98848890D01*
X153265585Y-98807409D01*
X153275893Y-98773431D01*
X153292634Y-98742110D01*
X153315161Y-98714661D01*
X153342610Y-98692134D01*
X153373931Y-98675393D01*
X153407909Y-98665085D01*
X153449390Y-98661000D01*
X154050610Y-98661000D01*
X154092091Y-98665085D01*
G37*
G36*
X152517091Y-98665085D02*
G01*
X152551069Y-98675393D01*
X152582390Y-98692134D01*
X152609839Y-98714661D01*
X152632366Y-98742110D01*
X152649107Y-98773431D01*
X152659415Y-98807409D01*
X152663500Y-98848890D01*
X152663500Y-99525110D01*
X152659415Y-99566591D01*
X152649107Y-99600569D01*
X152632366Y-99631890D01*
X152609839Y-99659339D01*
X152582390Y-99681866D01*
X152551069Y-99698607D01*
X152517091Y-99708915D01*
X152475610Y-99713000D01*
X151874390Y-99713000D01*
X151832909Y-99708915D01*
X151798931Y-99698607D01*
X151767610Y-99681866D01*
X151740161Y-99659339D01*
X151717634Y-99631890D01*
X151700893Y-99600569D01*
X151690585Y-99566591D01*
X151686500Y-99525110D01*
X151686500Y-98848890D01*
X151690585Y-98807409D01*
X151700893Y-98773431D01*
X151717634Y-98742110D01*
X151740161Y-98714661D01*
X151767610Y-98692134D01*
X151798931Y-98675393D01*
X151832909Y-98665085D01*
X151874390Y-98661000D01*
X152475610Y-98661000D01*
X152517091Y-98665085D01*
G37*
G36*
X160133512Y-96893927D02*
G01*
X160282812Y-96923624D01*
X160446784Y-96991544D01*
X160594354Y-97090147D01*
X160719853Y-97215646D01*
X160818456Y-97363216D01*
X160886376Y-97527188D01*
X160921000Y-97701259D01*
X160921000Y-97878741D01*
X160886376Y-98052812D01*
X160818456Y-98216784D01*
X160719853Y-98364354D01*
X160594354Y-98489853D01*
X160446784Y-98588456D01*
X160282812Y-98656376D01*
X160133512Y-98686073D01*
X160108742Y-98691000D01*
X159931258Y-98691000D01*
X159906488Y-98686073D01*
X159757188Y-98656376D01*
X159593216Y-98588456D01*
X159445646Y-98489853D01*
X159320147Y-98364354D01*
X159221544Y-98216784D01*
X159153624Y-98052812D01*
X159119000Y-97878741D01*
X159119000Y-97701259D01*
X159153624Y-97527188D01*
X159221544Y-97363216D01*
X159320147Y-97215646D01*
X159445646Y-97090147D01*
X159593216Y-96991544D01*
X159757188Y-96923624D01*
X159906488Y-96893927D01*
X159931258Y-96889000D01*
X160108742Y-96889000D01*
X160133512Y-96893927D01*
G37*
G36*
X137273512Y-96893927D02*
G01*
X137422812Y-96923624D01*
X137586784Y-96991544D01*
X137734354Y-97090147D01*
X137859853Y-97215646D01*
X137958456Y-97363216D01*
X138026376Y-97527188D01*
X138061000Y-97701259D01*
X138061000Y-97878741D01*
X138026376Y-98052812D01*
X137958456Y-98216784D01*
X137859853Y-98364354D01*
X137734354Y-98489853D01*
X137586784Y-98588456D01*
X137422812Y-98656376D01*
X137273512Y-98686073D01*
X137248742Y-98691000D01*
X137071258Y-98691000D01*
X137046488Y-98686073D01*
X136897188Y-98656376D01*
X136733216Y-98588456D01*
X136585646Y-98489853D01*
X136460147Y-98364354D01*
X136361544Y-98216784D01*
X136293624Y-98052812D01*
X136259000Y-97878741D01*
X136259000Y-97701259D01*
X136293624Y-97527188D01*
X136361544Y-97363216D01*
X136460147Y-97215646D01*
X136585646Y-97090147D01*
X136733216Y-96991544D01*
X136897188Y-96923624D01*
X137046488Y-96893927D01*
X137071258Y-96889000D01*
X137248742Y-96889000D01*
X137273512Y-96893927D01*
G37*
G36*
X156589591Y-97610585D02*
G01*
X156623569Y-97620893D01*
X156654890Y-97637634D01*
X156682339Y-97660161D01*
X156704866Y-97687610D01*
X156721607Y-97718931D01*
X156731915Y-97752909D01*
X156736000Y-97794390D01*
X156736000Y-98395610D01*
X156731915Y-98437091D01*
X156721607Y-98471069D01*
X156704866Y-98502390D01*
X156682339Y-98529839D01*
X156654890Y-98552366D01*
X156623569Y-98569107D01*
X156589591Y-98579415D01*
X156548110Y-98583500D01*
X155871890Y-98583500D01*
X155830409Y-98579415D01*
X155796431Y-98569107D01*
X155765110Y-98552366D01*
X155737661Y-98529839D01*
X155715134Y-98502390D01*
X155698393Y-98471069D01*
X155688085Y-98437091D01*
X155684000Y-98395610D01*
X155684000Y-97794390D01*
X155688085Y-97752909D01*
X155698393Y-97718931D01*
X155715134Y-97687610D01*
X155737661Y-97660161D01*
X155765110Y-97637634D01*
X155796431Y-97620893D01*
X155830409Y-97610585D01*
X155871890Y-97606500D01*
X156548110Y-97606500D01*
X156589591Y-97610585D01*
G37*
G36*
X141349591Y-97559585D02*
G01*
X141383569Y-97569893D01*
X141414890Y-97586634D01*
X141442339Y-97609161D01*
X141464866Y-97636610D01*
X141481607Y-97667931D01*
X141491915Y-97701909D01*
X141496000Y-97743390D01*
X141496000Y-98344610D01*
X141491915Y-98386091D01*
X141481607Y-98420069D01*
X141464866Y-98451390D01*
X141442339Y-98478839D01*
X141414890Y-98501366D01*
X141383569Y-98518107D01*
X141349591Y-98528415D01*
X141308110Y-98532500D01*
X140631890Y-98532500D01*
X140590409Y-98528415D01*
X140556431Y-98518107D01*
X140525110Y-98501366D01*
X140497661Y-98478839D01*
X140475134Y-98451390D01*
X140458393Y-98420069D01*
X140448085Y-98386091D01*
X140444000Y-98344610D01*
X140444000Y-97743390D01*
X140448085Y-97701909D01*
X140458393Y-97667931D01*
X140475134Y-97636610D01*
X140497661Y-97609161D01*
X140525110Y-97586634D01*
X140556431Y-97569893D01*
X140590409Y-97559585D01*
X140631890Y-97555500D01*
X141308110Y-97555500D01*
X141349591Y-97559585D01*
G37*
G36*
X148381000Y-98026000D02*
G01*
X147219000Y-98026000D01*
X147219000Y-97274000D01*
X148381000Y-97274000D01*
X148381000Y-98026000D01*
G37*
G36*
X144913604Y-95978347D02*
G01*
X144950144Y-95989432D01*
X144983821Y-96007433D01*
X145013341Y-96031659D01*
X145037567Y-96061179D01*
X145055568Y-96094856D01*
X145066653Y-96131396D01*
X145071000Y-96175538D01*
X145071000Y-97124462D01*
X145066653Y-97168604D01*
X145055568Y-97205144D01*
X145037567Y-97238821D01*
X145013341Y-97268341D01*
X144983821Y-97292567D01*
X144950144Y-97310568D01*
X144913604Y-97321653D01*
X144869462Y-97326000D01*
X143420538Y-97326000D01*
X143376396Y-97321653D01*
X143339856Y-97310568D01*
X143306179Y-97292567D01*
X143276659Y-97268341D01*
X143252433Y-97238821D01*
X143234432Y-97205144D01*
X143223347Y-97168604D01*
X143219000Y-97124462D01*
X143219000Y-96175538D01*
X143223347Y-96131396D01*
X143234432Y-96094856D01*
X143252433Y-96061179D01*
X143276659Y-96031659D01*
X143306179Y-96007433D01*
X143339856Y-95989432D01*
X143376396Y-95978347D01*
X143420538Y-95974000D01*
X144869462Y-95974000D01*
X144913604Y-95978347D01*
G37*
G36*
X153803604Y-95975347D02*
G01*
X153840144Y-95986432D01*
X153873821Y-96004433D01*
X153903341Y-96028659D01*
X153927567Y-96058179D01*
X153945568Y-96091856D01*
X153956653Y-96128396D01*
X153961000Y-96172538D01*
X153961000Y-97121462D01*
X153956653Y-97165604D01*
X153945568Y-97202144D01*
X153927567Y-97235821D01*
X153903341Y-97265341D01*
X153873821Y-97289567D01*
X153840144Y-97307568D01*
X153803604Y-97318653D01*
X153759462Y-97323000D01*
X152310538Y-97323000D01*
X152266396Y-97318653D01*
X152229856Y-97307568D01*
X152196179Y-97289567D01*
X152166659Y-97265341D01*
X152142433Y-97235821D01*
X152124432Y-97202144D01*
X152113347Y-97165604D01*
X152109000Y-97121462D01*
X152109000Y-96172538D01*
X152113347Y-96128396D01*
X152124432Y-96091856D01*
X152142433Y-96058179D01*
X152166659Y-96028659D01*
X152196179Y-96004433D01*
X152229856Y-95986432D01*
X152266396Y-95975347D01*
X152310538Y-95971000D01*
X153759462Y-95971000D01*
X153803604Y-95975347D01*
G37*
G36*
X156589591Y-96035585D02*
G01*
X156623569Y-96045893D01*
X156654890Y-96062634D01*
X156682339Y-96085161D01*
X156704866Y-96112610D01*
X156721607Y-96143931D01*
X156731915Y-96177909D01*
X156736000Y-96219390D01*
X156736000Y-96820610D01*
X156731915Y-96862091D01*
X156721607Y-96896069D01*
X156704866Y-96927390D01*
X156682339Y-96954839D01*
X156654890Y-96977366D01*
X156623569Y-96994107D01*
X156589591Y-97004415D01*
X156548110Y-97008500D01*
X155871890Y-97008500D01*
X155830409Y-97004415D01*
X155796431Y-96994107D01*
X155765110Y-96977366D01*
X155737661Y-96954839D01*
X155715134Y-96927390D01*
X155698393Y-96896069D01*
X155688085Y-96862091D01*
X155684000Y-96820610D01*
X155684000Y-96219390D01*
X155688085Y-96177909D01*
X155698393Y-96143931D01*
X155715134Y-96112610D01*
X155737661Y-96085161D01*
X155765110Y-96062634D01*
X155796431Y-96045893D01*
X155830409Y-96035585D01*
X155871890Y-96031500D01*
X156548110Y-96031500D01*
X156589591Y-96035585D01*
G37*
G36*
X141349591Y-95984585D02*
G01*
X141383569Y-95994893D01*
X141414890Y-96011634D01*
X141442339Y-96034161D01*
X141464866Y-96061610D01*
X141481607Y-96092931D01*
X141491915Y-96126909D01*
X141496000Y-96168390D01*
X141496000Y-96769610D01*
X141491915Y-96811091D01*
X141481607Y-96845069D01*
X141464866Y-96876390D01*
X141442339Y-96903839D01*
X141414890Y-96926366D01*
X141383569Y-96943107D01*
X141349591Y-96953415D01*
X141308110Y-96957500D01*
X140631890Y-96957500D01*
X140590409Y-96953415D01*
X140556431Y-96943107D01*
X140525110Y-96926366D01*
X140497661Y-96903839D01*
X140475134Y-96876390D01*
X140458393Y-96845069D01*
X140448085Y-96811091D01*
X140444000Y-96769610D01*
X140444000Y-96168390D01*
X140448085Y-96126909D01*
X140458393Y-96092931D01*
X140475134Y-96061610D01*
X140497661Y-96034161D01*
X140525110Y-96011634D01*
X140556431Y-95994893D01*
X140590409Y-95984585D01*
X140631890Y-95980500D01*
X141308110Y-95980500D01*
X141349591Y-95984585D01*
G37*
G36*
X137273512Y-94353927D02*
G01*
X137422812Y-94383624D01*
X137586784Y-94451544D01*
X137734354Y-94550147D01*
X137859853Y-94675646D01*
X137958456Y-94823216D01*
X138026376Y-94987188D01*
X138061000Y-95161259D01*
X138061000Y-95338741D01*
X138026376Y-95512812D01*
X137958456Y-95676784D01*
X137859853Y-95824354D01*
X137734354Y-95949853D01*
X137586784Y-96048456D01*
X137422812Y-96116376D01*
X137284280Y-96143931D01*
X137248742Y-96151000D01*
X137071258Y-96151000D01*
X137035720Y-96143931D01*
X136897188Y-96116376D01*
X136733216Y-96048456D01*
X136585646Y-95949853D01*
X136460147Y-95824354D01*
X136361544Y-95676784D01*
X136293624Y-95512812D01*
X136259000Y-95338741D01*
X136259000Y-95161259D01*
X136293624Y-94987188D01*
X136361544Y-94823216D01*
X136460147Y-94675646D01*
X136585646Y-94550147D01*
X136733216Y-94451544D01*
X136897188Y-94383624D01*
X137046488Y-94353927D01*
X137071258Y-94349000D01*
X137248742Y-94349000D01*
X137273512Y-94353927D01*
G37*
G36*
X160133512Y-94353927D02*
G01*
X160282812Y-94383624D01*
X160446784Y-94451544D01*
X160594354Y-94550147D01*
X160719853Y-94675646D01*
X160818456Y-94823216D01*
X160886376Y-94987188D01*
X160921000Y-95161259D01*
X160921000Y-95338741D01*
X160886376Y-95512812D01*
X160818456Y-95676784D01*
X160719853Y-95824354D01*
X160594354Y-95949853D01*
X160446784Y-96048456D01*
X160282812Y-96116376D01*
X160144280Y-96143931D01*
X160108742Y-96151000D01*
X159931258Y-96151000D01*
X159895720Y-96143931D01*
X159757188Y-96116376D01*
X159593216Y-96048456D01*
X159445646Y-95949853D01*
X159320147Y-95824354D01*
X159221544Y-95676784D01*
X159153624Y-95512812D01*
X159119000Y-95338741D01*
X159119000Y-95161259D01*
X159153624Y-94987188D01*
X159221544Y-94823216D01*
X159320147Y-94675646D01*
X159445646Y-94550147D01*
X159593216Y-94451544D01*
X159757188Y-94383624D01*
X159906488Y-94353927D01*
X159931258Y-94349000D01*
X160108742Y-94349000D01*
X160133512Y-94353927D01*
G37*
G36*
X150279591Y-95003085D02*
G01*
X150313569Y-95013393D01*
X150344890Y-95030134D01*
X150372339Y-95052661D01*
X150394866Y-95080110D01*
X150411607Y-95111431D01*
X150421915Y-95145409D01*
X150426000Y-95186890D01*
X150426000Y-95788110D01*
X150421915Y-95829591D01*
X150411607Y-95863569D01*
X150394866Y-95894890D01*
X150372339Y-95922339D01*
X150344890Y-95944866D01*
X150313569Y-95961607D01*
X150279591Y-95971915D01*
X150238110Y-95976000D01*
X149561890Y-95976000D01*
X149520409Y-95971915D01*
X149486431Y-95961607D01*
X149455110Y-95944866D01*
X149427661Y-95922339D01*
X149405134Y-95894890D01*
X149388393Y-95863569D01*
X149378085Y-95829591D01*
X149374000Y-95788110D01*
X149374000Y-95186890D01*
X149378085Y-95145409D01*
X149388393Y-95111431D01*
X149405134Y-95080110D01*
X149427661Y-95052661D01*
X149455110Y-95030134D01*
X149486431Y-95013393D01*
X149520409Y-95003085D01*
X149561890Y-94999000D01*
X150238110Y-94999000D01*
X150279591Y-95003085D01*
G37*
G36*
X148207591Y-95003085D02*
G01*
X148241569Y-95013393D01*
X148272890Y-95030134D01*
X148300339Y-95052661D01*
X148322866Y-95080110D01*
X148339607Y-95111431D01*
X148349915Y-95145409D01*
X148354000Y-95186890D01*
X148354000Y-95788110D01*
X148349915Y-95829591D01*
X148339607Y-95863569D01*
X148322866Y-95894890D01*
X148300339Y-95922339D01*
X148272890Y-95944866D01*
X148241569Y-95961607D01*
X148207591Y-95971915D01*
X148166110Y-95976000D01*
X147489890Y-95976000D01*
X147448409Y-95971915D01*
X147414431Y-95961607D01*
X147383110Y-95944866D01*
X147355661Y-95922339D01*
X147333134Y-95894890D01*
X147316393Y-95863569D01*
X147306085Y-95829591D01*
X147302000Y-95788110D01*
X147302000Y-95186890D01*
X147306085Y-95145409D01*
X147316393Y-95111431D01*
X147333134Y-95080110D01*
X147355661Y-95052661D01*
X147383110Y-95030134D01*
X147414431Y-95013393D01*
X147448409Y-95003085D01*
X147489890Y-94999000D01*
X148166110Y-94999000D01*
X148207591Y-95003085D01*
G37*
G36*
X156589591Y-94130585D02*
G01*
X156623569Y-94140893D01*
X156654890Y-94157634D01*
X156682339Y-94180161D01*
X156704866Y-94207610D01*
X156721607Y-94238931D01*
X156731915Y-94272909D01*
X156736000Y-94314390D01*
X156736000Y-94915610D01*
X156731915Y-94957091D01*
X156721607Y-94991069D01*
X156704866Y-95022390D01*
X156682339Y-95049839D01*
X156654890Y-95072366D01*
X156623569Y-95089107D01*
X156589591Y-95099415D01*
X156548110Y-95103500D01*
X155871890Y-95103500D01*
X155830409Y-95099415D01*
X155796431Y-95089107D01*
X155765110Y-95072366D01*
X155737661Y-95049839D01*
X155715134Y-95022390D01*
X155698393Y-94991069D01*
X155688085Y-94957091D01*
X155684000Y-94915610D01*
X155684000Y-94314390D01*
X155688085Y-94272909D01*
X155698393Y-94238931D01*
X155715134Y-94207610D01*
X155737661Y-94180161D01*
X155765110Y-94157634D01*
X155796431Y-94140893D01*
X155830409Y-94130585D01*
X155871890Y-94126500D01*
X156548110Y-94126500D01*
X156589591Y-94130585D01*
G37*
G36*
X141349591Y-94130585D02*
G01*
X141383569Y-94140893D01*
X141414890Y-94157634D01*
X141442339Y-94180161D01*
X141464866Y-94207610D01*
X141481607Y-94238931D01*
X141491915Y-94272909D01*
X141496000Y-94314390D01*
X141496000Y-94915610D01*
X141491915Y-94957091D01*
X141481607Y-94991069D01*
X141464866Y-95022390D01*
X141442339Y-95049839D01*
X141414890Y-95072366D01*
X141383569Y-95089107D01*
X141349591Y-95099415D01*
X141308110Y-95103500D01*
X140631890Y-95103500D01*
X140590409Y-95099415D01*
X140556431Y-95089107D01*
X140525110Y-95072366D01*
X140497661Y-95049839D01*
X140475134Y-95022390D01*
X140458393Y-94991069D01*
X140448085Y-94957091D01*
X140444000Y-94915610D01*
X140444000Y-94314390D01*
X140448085Y-94272909D01*
X140458393Y-94238931D01*
X140475134Y-94207610D01*
X140497661Y-94180161D01*
X140525110Y-94157634D01*
X140556431Y-94140893D01*
X140590409Y-94130585D01*
X140631890Y-94126500D01*
X141308110Y-94126500D01*
X141349591Y-94130585D01*
G37*
G36*
X144913604Y-93178347D02*
G01*
X144950144Y-93189432D01*
X144983821Y-93207433D01*
X145013341Y-93231659D01*
X145037567Y-93261179D01*
X145055568Y-93294856D01*
X145066653Y-93331396D01*
X145071000Y-93375538D01*
X145071000Y-94324462D01*
X145066653Y-94368604D01*
X145055568Y-94405144D01*
X145037567Y-94438821D01*
X145013341Y-94468341D01*
X144983821Y-94492567D01*
X144950144Y-94510568D01*
X144913604Y-94521653D01*
X144869462Y-94526000D01*
X143420538Y-94526000D01*
X143376396Y-94521653D01*
X143339856Y-94510568D01*
X143306179Y-94492567D01*
X143276659Y-94468341D01*
X143252433Y-94438821D01*
X143234432Y-94405144D01*
X143223347Y-94368604D01*
X143219000Y-94324462D01*
X143219000Y-93375538D01*
X143223347Y-93331396D01*
X143234432Y-93294856D01*
X143252433Y-93261179D01*
X143276659Y-93231659D01*
X143306179Y-93207433D01*
X143339856Y-93189432D01*
X143376396Y-93178347D01*
X143420538Y-93174000D01*
X144869462Y-93174000D01*
X144913604Y-93178347D01*
G37*
G36*
X153803604Y-93175347D02*
G01*
X153840144Y-93186432D01*
X153873821Y-93204433D01*
X153903341Y-93228659D01*
X153927567Y-93258179D01*
X153945568Y-93291856D01*
X153956653Y-93328396D01*
X153961000Y-93372538D01*
X153961000Y-94321462D01*
X153956653Y-94365604D01*
X153945568Y-94402144D01*
X153927567Y-94435821D01*
X153903341Y-94465341D01*
X153873821Y-94489567D01*
X153840144Y-94507568D01*
X153803604Y-94518653D01*
X153759462Y-94523000D01*
X152310538Y-94523000D01*
X152266396Y-94518653D01*
X152229856Y-94507568D01*
X152196179Y-94489567D01*
X152166659Y-94465341D01*
X152142433Y-94435821D01*
X152124432Y-94402144D01*
X152113347Y-94365604D01*
X152109000Y-94321462D01*
X152109000Y-93372538D01*
X152113347Y-93328396D01*
X152124432Y-93291856D01*
X152142433Y-93258179D01*
X152166659Y-93228659D01*
X152196179Y-93204433D01*
X152229856Y-93186432D01*
X152266396Y-93175347D01*
X152310538Y-93171000D01*
X153759462Y-93171000D01*
X153803604Y-93175347D01*
G37*
G36*
X148207591Y-93428085D02*
G01*
X148241569Y-93438393D01*
X148272890Y-93455134D01*
X148300339Y-93477661D01*
X148322866Y-93505110D01*
X148339607Y-93536431D01*
X148349915Y-93570409D01*
X148354000Y-93611890D01*
X148354000Y-94213110D01*
X148349915Y-94254591D01*
X148339607Y-94288569D01*
X148322866Y-94319890D01*
X148300339Y-94347339D01*
X148272890Y-94369866D01*
X148241569Y-94386607D01*
X148207591Y-94396915D01*
X148166110Y-94401000D01*
X147489890Y-94401000D01*
X147448409Y-94396915D01*
X147414431Y-94386607D01*
X147383110Y-94369866D01*
X147355661Y-94347339D01*
X147333134Y-94319890D01*
X147316393Y-94288569D01*
X147306085Y-94254591D01*
X147302000Y-94213110D01*
X147302000Y-93611890D01*
X147306085Y-93570409D01*
X147316393Y-93536431D01*
X147333134Y-93505110D01*
X147355661Y-93477661D01*
X147383110Y-93455134D01*
X147414431Y-93438393D01*
X147448409Y-93428085D01*
X147489890Y-93424000D01*
X148166110Y-93424000D01*
X148207591Y-93428085D01*
G37*
G36*
X150279591Y-93428085D02*
G01*
X150313569Y-93438393D01*
X150344890Y-93455134D01*
X150372339Y-93477661D01*
X150394866Y-93505110D01*
X150411607Y-93536431D01*
X150421915Y-93570409D01*
X150426000Y-93611890D01*
X150426000Y-94213110D01*
X150421915Y-94254591D01*
X150411607Y-94288569D01*
X150394866Y-94319890D01*
X150372339Y-94347339D01*
X150344890Y-94369866D01*
X150313569Y-94386607D01*
X150279591Y-94396915D01*
X150238110Y-94401000D01*
X149561890Y-94401000D01*
X149520409Y-94396915D01*
X149486431Y-94386607D01*
X149455110Y-94369866D01*
X149427661Y-94347339D01*
X149405134Y-94319890D01*
X149388393Y-94288569D01*
X149378085Y-94254591D01*
X149374000Y-94213110D01*
X149374000Y-93611890D01*
X149378085Y-93570409D01*
X149388393Y-93536431D01*
X149405134Y-93505110D01*
X149427661Y-93477661D01*
X149455110Y-93455134D01*
X149486431Y-93438393D01*
X149520409Y-93428085D01*
X149561890Y-93424000D01*
X150238110Y-93424000D01*
X150279591Y-93428085D01*
G37*
G36*
X138061000Y-93611000D02*
G01*
X136259000Y-93611000D01*
X136259000Y-91809000D01*
X138061000Y-91809000D01*
X138061000Y-93611000D01*
G37*
G36*
X160921000Y-93611000D02*
G01*
X159119000Y-93611000D01*
X159119000Y-91809000D01*
X160921000Y-91809000D01*
X160921000Y-93611000D01*
G37*
G36*
X156589591Y-92555585D02*
G01*
X156623569Y-92565893D01*
X156654890Y-92582634D01*
X156682339Y-92605161D01*
X156704866Y-92632610D01*
X156721607Y-92663931D01*
X156731915Y-92697909D01*
X156736000Y-92739390D01*
X156736000Y-93340610D01*
X156731915Y-93382091D01*
X156721607Y-93416069D01*
X156704866Y-93447390D01*
X156682339Y-93474839D01*
X156654890Y-93497366D01*
X156623569Y-93514107D01*
X156589591Y-93524415D01*
X156548110Y-93528500D01*
X155871890Y-93528500D01*
X155830409Y-93524415D01*
X155796431Y-93514107D01*
X155765110Y-93497366D01*
X155737661Y-93474839D01*
X155715134Y-93447390D01*
X155698393Y-93416069D01*
X155688085Y-93382091D01*
X155684000Y-93340610D01*
X155684000Y-92739390D01*
X155688085Y-92697909D01*
X155698393Y-92663931D01*
X155715134Y-92632610D01*
X155737661Y-92605161D01*
X155765110Y-92582634D01*
X155796431Y-92565893D01*
X155830409Y-92555585D01*
X155871890Y-92551500D01*
X156548110Y-92551500D01*
X156589591Y-92555585D01*
G37*
G36*
X141349591Y-92555585D02*
G01*
X141383569Y-92565893D01*
X141414890Y-92582634D01*
X141442339Y-92605161D01*
X141464866Y-92632610D01*
X141481607Y-92663931D01*
X141491915Y-92697909D01*
X141496000Y-92739390D01*
X141496000Y-93340610D01*
X141491915Y-93382091D01*
X141481607Y-93416069D01*
X141464866Y-93447390D01*
X141442339Y-93474839D01*
X141414890Y-93497366D01*
X141383569Y-93514107D01*
X141349591Y-93524415D01*
X141308110Y-93528500D01*
X140631890Y-93528500D01*
X140590409Y-93524415D01*
X140556431Y-93514107D01*
X140525110Y-93497366D01*
X140497661Y-93474839D01*
X140475134Y-93447390D01*
X140458393Y-93416069D01*
X140448085Y-93382091D01*
X140444000Y-93340610D01*
X140444000Y-92739390D01*
X140448085Y-92697909D01*
X140458393Y-92663931D01*
X140475134Y-92632610D01*
X140497661Y-92605161D01*
X140525110Y-92582634D01*
X140556431Y-92565893D01*
X140590409Y-92555585D01*
X140631890Y-92551500D01*
X141308110Y-92551500D01*
X141349591Y-92555585D01*
G37*
G36*
X146702383Y-91287489D02*
G01*
X146702386Y-91287490D01*
X146702385Y-91287490D01*
X146766258Y-91313946D01*
X146823748Y-91352360D01*
X146858777Y-91387389D01*
X146877719Y-91402934D01*
X146899330Y-91414485D01*
X146922779Y-91421598D01*
X146947165Y-91424000D01*
X150252835Y-91424000D01*
X150277221Y-91421598D01*
X150300670Y-91414485D01*
X150322281Y-91402934D01*
X150341223Y-91387389D01*
X150376252Y-91352360D01*
X150433742Y-91313946D01*
X150497615Y-91287490D01*
X150497614Y-91287490D01*
X150497617Y-91287489D01*
X150565430Y-91274000D01*
X150634570Y-91274000D01*
X150702383Y-91287489D01*
X150702386Y-91287490D01*
X150702385Y-91287490D01*
X150766258Y-91313946D01*
X150823748Y-91352360D01*
X150872640Y-91401252D01*
X150911054Y-91458742D01*
X150932624Y-91510818D01*
X150937511Y-91522617D01*
X150951000Y-91590430D01*
X150951000Y-91659570D01*
X150937511Y-91727383D01*
X150937510Y-91727385D01*
X150911054Y-91791258D01*
X150872640Y-91848748D01*
X150823748Y-91897640D01*
X150766258Y-91936054D01*
X150733126Y-91949777D01*
X150702383Y-91962511D01*
X150634570Y-91976000D01*
X150565430Y-91976000D01*
X150497617Y-91962511D01*
X150466874Y-91949777D01*
X150433742Y-91936054D01*
X150376252Y-91897640D01*
X150364387Y-91885775D01*
X150345445Y-91870230D01*
X150323834Y-91858679D01*
X150300385Y-91851566D01*
X150275999Y-91849164D01*
X150251613Y-91851566D01*
X150228164Y-91858679D01*
X150206553Y-91870230D01*
X150187611Y-91885775D01*
X150172066Y-91904717D01*
X150160515Y-91926328D01*
X150153402Y-91949777D01*
X150151000Y-91974163D01*
X150151000Y-92876000D01*
X147049000Y-92876000D01*
X147049000Y-91974163D01*
X147046598Y-91949777D01*
X147039485Y-91926328D01*
X147027934Y-91904717D01*
X147012389Y-91885775D01*
X146993447Y-91870230D01*
X146971836Y-91858679D01*
X146948387Y-91851566D01*
X146924001Y-91849164D01*
X146899615Y-91851566D01*
X146876166Y-91858679D01*
X146854555Y-91870230D01*
X146835613Y-91885775D01*
X146823748Y-91897640D01*
X146766258Y-91936054D01*
X146733126Y-91949777D01*
X146702383Y-91962511D01*
X146634570Y-91976000D01*
X146565430Y-91976000D01*
X146497617Y-91962511D01*
X146466874Y-91949777D01*
X146433742Y-91936054D01*
X146376252Y-91897640D01*
X146327360Y-91848748D01*
X146288946Y-91791258D01*
X146262490Y-91727385D01*
X146262489Y-91727383D01*
X146249000Y-91659570D01*
X146249000Y-91590430D01*
X146262489Y-91522617D01*
X146267376Y-91510818D01*
X146288946Y-91458742D01*
X146327360Y-91401252D01*
X146376252Y-91352360D01*
X146433742Y-91313946D01*
X146497615Y-91287490D01*
X146497614Y-91287490D01*
X146497617Y-91287489D01*
X146565430Y-91274000D01*
X146634570Y-91274000D01*
X146702383Y-91287489D01*
G37*
G36*
X138227290Y-89025619D02*
G01*
X138291689Y-89038429D01*
X138473678Y-89113811D01*
X138637463Y-89223249D01*
X138776751Y-89362537D01*
X138886189Y-89526322D01*
X138961571Y-89708311D01*
X139000000Y-89901509D01*
X139000000Y-90098491D01*
X138961571Y-90291689D01*
X138886189Y-90473678D01*
X138776751Y-90637463D01*
X138637463Y-90776751D01*
X138473678Y-90886189D01*
X138291689Y-90961571D01*
X138227290Y-90974381D01*
X138098493Y-91000000D01*
X137901507Y-91000000D01*
X137772710Y-90974381D01*
X137708311Y-90961571D01*
X137526322Y-90886189D01*
X137362537Y-90776751D01*
X137223249Y-90637463D01*
X137113811Y-90473678D01*
X137038429Y-90291689D01*
X137000000Y-90098491D01*
X137000000Y-89901509D01*
X137038429Y-89708311D01*
X137113811Y-89526322D01*
X137223249Y-89362537D01*
X137362537Y-89223249D01*
X137526322Y-89113811D01*
X137708311Y-89038429D01*
X137772710Y-89025619D01*
X137901507Y-89000000D01*
X138098493Y-89000000D01*
X138227290Y-89025619D01*
G37*
G36*
X153551000Y-90476000D02*
G01*
X151549000Y-90476000D01*
X151549000Y-88474000D01*
X153551000Y-88474000D01*
X153551000Y-90476000D01*
G37*
G36*
X150801000Y-90476000D02*
G01*
X148799000Y-90476000D01*
X148799000Y-88474000D01*
X150801000Y-88474000D01*
X150801000Y-90476000D01*
G37*
G36*
X148401000Y-90476000D02*
G01*
X146399000Y-90476000D01*
X146399000Y-88474000D01*
X148401000Y-88474000D01*
X148401000Y-90476000D01*
G37*
G36*
X145651000Y-90476000D02*
G01*
X143649000Y-90476000D01*
X143649000Y-88474000D01*
X145651000Y-88474000D01*
X145651000Y-90476000D01*
G37*
M02*
