M48
; DRILL file {KiCad (5.1.5)-3} date 02/11/21 22:25:31
; FORMAT={-:-/ absolute / inch / decimal}
; #@! TF.CreationDate,2021-02-11T22:25:31+01:00
; #@! TF.GenerationSoftware,Kicad,Pcbnew,(5.1.5)-3
; #@! TF.FileFunction,Plated,1,4,PTH
FMAT,2
INCH
T1C0.0118
T2C0.0157
T3C0.0394
%
G90
G05
T1
X5.4646Y-4.7992
X5.56Y-4.4219
X5.6935Y-5.0506
X5.7168Y-4.4731
X5.7551Y-4.2927
X5.7598Y-4.5039
X5.7844Y-4.4767
X5.7854Y-4.2829
X5.8124Y-4.6171
X5.8156Y-4.5703
X5.8255Y-4.2671
X5.8268Y-4.0859
X5.8338Y-4.6346
X5.8625Y-4.62
X5.8924Y-4.2678
X5.95Y-4.25
X5.9632Y-4.3126
X5.975Y-4.6525
X5.9913Y-4.3066
X6.0Y-4.6325
X6.0225Y-4.3125
X6.0241Y-4.3673
X6.0275Y-4.44
X6.05Y-3.8625
X6.0558Y-4.8707
X6.0625Y-4.65
X6.07Y-5.01
X6.1299Y-4.5669
X6.1654Y-4.5315
X6.2362Y-4.3976
T2
X5.4587Y-4.5984
X5.4724Y-4.6929
X5.485Y-3.7525
X5.4882Y-5.0098
X5.4902Y-4.498
X5.5Y-5.1713
X5.5059Y-4.3839
X5.508Y-4.92
X5.5098Y-3.5177
X5.568Y-4.078
X5.588Y-5.174
X5.59Y-4.848
X5.606Y-3.942
X5.6063Y-3.7525
X5.6142Y-5.0098
X5.6625Y-4.4475
X5.668Y-3.6
X5.682Y-4.016
X5.6998Y-3.8781
X5.7343Y-4.7244
X5.7775Y-4.07
X5.792Y-4.992
X5.792Y-5.174
X5.796Y-4.824
X5.8563Y-3.8819
X5.902Y-5.174
X5.91Y-4.976
X5.9155Y-4.724
X5.99Y-3.85
X5.9921Y-4.8268
X6.0025Y-4.13
X6.02Y-4.718
X6.03Y-3.6
X6.058Y-4.366
X6.0945Y-3.6929
X6.0984Y-3.8228
X6.104Y-5.174
X6.1142Y-3.5236
X6.124Y-4.7677
X6.1299Y-3.935
X6.144Y-4.64
X6.162Y-4.9921
X6.168Y-4.13
X6.176Y-4.328
X6.2Y-3.575
X6.21Y-3.856
X6.212Y-3.756
X6.2224Y-4.5157
X6.2283Y-4.8504
X6.2303Y-5.1004
X6.252Y-4.5984
X6.2972Y-3.5177
T3
X5.4Y-3.65
X5.4Y-3.75
X5.4Y-3.85
X5.4Y-3.95
X5.4Y-4.05
X5.4Y-4.15
X5.4Y-4.25
X5.4Y-4.35
X5.4Y-4.45
X5.4Y-4.55
X5.4Y-4.65
X5.4Y-4.75
X5.4Y-4.85
X5.4Y-4.95
X5.4Y-5.05
X5.4Y-5.15
X6.3Y-3.65
X6.3Y-3.75
X6.3Y-3.85
X6.3Y-3.95
X6.3Y-4.05
X6.3Y-4.15
X6.3Y-4.25
X6.3Y-4.35
X6.3Y-4.45
X6.3Y-4.55
X6.3Y-4.65
X6.3Y-4.75
X6.3Y-4.85
X6.3Y-4.95
X6.3Y-5.05
X6.3Y-5.15
T0
M30
